<?xml version="1.0" encoding="utf-8"?>
<!-- Generator: Adobe Illustrator 22.1.0, SVG Export Plug-In . SVG Version: 6.00 Build 0)  -->
<svg version="1.1" id="Layer_1" xmlns="http://www.w3.org/2000/svg" xmlns:xlink="http://www.w3.org/1999/xlink" x="0px" y="0px"
	 viewBox="0 0 148.8 186.9" style="enable-background:new 0 0 148.8 186.9;" xml:space="preserve">
<style type="text/css">
	.st0{fill:#F3CC0D;}
	.st1{fill:url(#SVGID_1_);}
	.st2{fill:#EE3A31;stroke:#EE3A31;stroke-miterlimit:10;}
	.st3{fill:#F3B40D;}
</style>
<rect x="74.8" y="124.2" class="st0" width="1.9" height="50.1"/>
<radialGradient id="SVGID_1_" cx="74.6996" cy="86.8" r="60.1311" gradientTransform="matrix(1 0 0 -1 0 170)" gradientUnits="userSpaceOnUse">
	<stop  offset="0" style="stop-color:#6EF3C0"/>
	<stop  offset="1" style="stop-color:#3A79EE"/>
</radialGradient>
<path class="st1" d="M91.5,41.4H74.7H57.8c-18,2.7-56.9,23.1-57.3,41c-0.2,11,29,34.8,57.3,42.6h16.9h16.9
	c28.3-7.8,57.4-31.6,57.3-42.6C148.5,64.6,109.6,44.1,91.5,41.4z"/>
<circle class="st0" cx="75.7" cy="149.4" r="2"/>
<rect x="74.9" y="130" class="st0" width="1.7" height="40.8"/>
<rect x="73.4" y="169.3" class="st0" width="4.7" height="17.6"/>
<rect x="73.4" y="171.5" class="st2" width="4.7" height="4.7"/>
<rect x="51.2" y="32.1" class="st3" width="46.8" height="11.2"/>
<rect x="51.2" y="123.2" class="st3" width="46.8" height="11.2"/>
<path class="st0" d="M75.7,146.8c-3,0-5.4-2.4-5.4-5.4s2.4-5.4,5.4-5.4s5.4,2.4,5.4,5.4l0,0C81,144.4,78.6,146.7,75.7,146.8z
	 M75.7,138.2c-1.8,0-3.2,1.4-3.2,3.2c0,1.7,1.5,3.2,3.2,3.2c1.8,0,3.2-1.4,3.2-3.2C78.8,139.7,77.4,138.2,75.7,138.2z"/>
<path class="st0" d="M75.7,162.4c-3,0-5.4-2.4-5.4-5.4s2.4-5.4,5.4-5.4s5.4,2.4,5.4,5.4l0,0C81,160,78.6,162.3,75.7,162.4z
	 M75.7,153.8c-1.8,0-3.2,1.4-3.2,3.2c0,1.7,1.5,3.2,3.2,3.2c1.8,0,3.2-1.4,3.2-3.2C78.8,155.3,77.4,153.8,75.7,153.8L75.7,153.8z"/>
<path class="st0" d="M68.3,154.7c-3,0-5.4-2.4-5.4-5.4s2.4-5.4,5.4-5.4s5.4,2.4,5.4,5.4l0,0C73.7,152.3,71.3,154.7,68.3,154.7
	L68.3,154.7z M68.3,146.1c-1.8,0-3.2,1.4-3.2,3.2s1.4,3.2,3.2,3.2c1.7,0,3.2-1.5,3.2-3.2C71.5,147.5,70.1,146.1,68.3,146.1
	L68.3,146.1z"/>
<path class="st0" d="M83.2,154.7c-3,0-5.4-2.4-5.4-5.4s2.4-5.4,5.4-5.4s5.4,2.4,5.4,5.4l0,0C88.6,152.3,86.2,154.7,83.2,154.7
	L83.2,154.7z M83.2,146.1c-1.8,0-3.2,1.4-3.2,3.2s1.4,3.2,3.2,3.2l0,0c1.7,0,3.2-1.5,3.2-3.2C86.4,147.6,85,146.1,83.2,146.1
	L83.2,146.1L83.2,146.1z"/>
<path class="st3" d="M69.2,127.1c-11.2-7-22.5-24.4-22.5-43.9c0-20,11.6-37.2,23.1-43.9l1.4,1.6c-10.7,6.2-22,23.1-22,42.3
	c0,18.9,10.9,35.7,21.6,42.4L69.2,127.1z"/>
<path class="st3" d="M56.1,127.3c-8.4-6-24.4-22.9-24.4-44.1c0-20.3,15.2-37.8,24.9-44.1l1.5,1.6c-9.3,6-23.9,22.9-23.9,42.5
	c0,19,14.1,35.8,23.5,42.5L56.1,127.3z"/>
<path class="st3" d="M38.2,47.9c-2.2,1-4.4,2-6.5,3.2C24.4,58.4,17,69.9,17,82.8c0,12.4,6.7,23.2,13.4,30.3c2.2,1.3,4.5,2.6,6.9,3.8
	c-8.2-6.8-18-19.8-18-34.2C19.2,67.4,30,54.1,38.2,47.9z"/>
<path class="st3" d="M80.1,127.1c11.2-7,22.5-24.4,22.5-43.9c0-20-11.6-37.2-23.1-43.9l-1.4,1.6c10.7,6.2,22,23.1,22,42.3
	c0,18.9-10.9,35.7-21.6,42.4L80.1,127.1z"/>
<path class="st3" d="M93.2,127.3c8.4-6,24.4-22.9,24.4-44.1c0-20.3-15.2-37.8-24.9-44.1l-1.5,1.6c9.3,6,23.9,22.9,23.9,42.5
	c0,19-14.1,35.8-23.5,42.5L93.2,127.3z"/>
<path class="st3" d="M111.1,47.9c2.2,1,4.4,2,6.5,3.2c7.3,7.3,14.7,18.8,14.7,31.7c0,12.4-6.7,23.2-13.4,30.3
	c-2.2,1.3-4.5,2.6-6.9,3.8c8.2-6.8,18-19.8,18-34.2C130.2,67.4,119.3,54.1,111.1,47.9z"/>
<rect x="53.2" y="125" class="st0" width="44.9" height="7.7"/>
<rect x="53.2" y="32.1" class="st0" width="44.9" height="7.7"/>
<rect x="73.6" y="0" class="st0" width="1.9" height="32"/>
</svg>
