<?xml version="1.0" encoding="utf-8"?>
<!-- Generator: Adobe Illustrator 22.1.0, SVG Export Plug-In . SVG Version: 6.00 Build 0)  -->
<svg version="1.1" id="Layer_1" xmlns="http://www.w3.org/2000/svg" xmlns:xlink="http://www.w3.org/1999/xlink" x="0px" y="0px"
	 viewBox="0 0 211.7 335" style="enable-background:new 0 0 211.7 335;" xml:space="preserve">
<style type="text/css">
	.st0{display:none;}
	.st1{display:inline;fill:#8A88FF;}
	.st2{display:inline;fill:#231152;}
	.st3{fill:#0E3F8F;}
	.st4{fill:#1970FF;}
	.st5{fill:#3E3752;}
	.st6{fill:#008BD0;}
	.st7{fill:#421900;}
	.st8{fill:url(#hand_2_);}
	.st9{fill:#FDD6AE;}
	.st10{fill:#F8A586;}
	.st11{fill:#231152;}
	.st12{fill:url(#SVGID_1_);}
	.st13{fill:#F9BFBD;}
	.st14{fill:#FFFFFD;}
	.st15{fill:#FFFFFF;}
	.st16{fill:#B8B8B8;}
	.st17{fill:#363636;}
	.st18{fill:#F97570;}
	.st19{fill:#6084BF;}
</style>
<g id="Layer_2" class="st0">
	<rect x="-12.4" y="-19.8" class="st1" width="245.5" height="378.8"/>
	<path class="st2" d="M159.4,125.9"/>
</g>
<g id="right_foot">
	<path class="st3" d="M129.1,206c0,0,4.7,21.1,5,53.5c0.2,22.5-11.7,47.9-11.6,53c4.7,4.2,17.6,2.2,17.6,2.2l13.8-47.3l9.6-59.5
		L129.1,206z"/>
</g>
<g id="left_foot">
	<path class="st4" d="M135.4,207.3c0,0,22.6,31.1,31.2,61.1c6.7,23.5,7,40,10,51.8c11,1.8,15.5-1.3,15.5-1.3l-2.3-52.3l-9.8-58.6
		L135.4,207.3z"/>
</g>
<path id="body_1_" class="st5" d="M148.6,123.3c0,0-31.9,95.8-9,96.4c50.5,7.6,53.4-2.4,52.3-30c-2-31.9-7.5-50.4-9.2-61.2
	C181.1,117.6,148.6,123.3,148.6,123.3z"/>
<path id="body" class="st6" d="M144.5,123.4c0,0-31.9,95.8-9,96.4c50.5,7.6,53.4-2.4,52.3-30c-2-31.9-7.5-50.4-9.2-61.2
	c-0.4-2.7-1-3.6-4.1-4.6C164.7,120.8,144.5,123.4,144.5,123.4z"/>
<g>
	<path class="st7" d="M15.5,210.1c-8.5,0-13.8-1.7-13.9-1.7l0.7-2c0,0,28.1,8.8,58.8-15.1c28.6-22.1,63,2.2,63.3,2.4l-1.2,1.7
		c-0.3-0.2-33.5-23.6-60.8-2.4C44.2,207.1,26.9,210.1,15.5,210.1z"/>
</g>
<radialGradient id="hand_2_" cx="120.5875" cy="191.3674" r="13.9235" gradientUnits="userSpaceOnUse">
	<stop  offset="0" style="stop-color:#FEE8D2"/>
	<stop  offset="3.145862e-02" style="stop-color:#FEE5CC"/>
	<stop  offset="0.1026" style="stop-color:#FEE2C5"/>
	<stop  offset="0.3004" style="stop-color:#FEE1C3"/>
	<stop  offset="0.3167" style="stop-color:#FEE1C2"/>
	<stop  offset="0.6926" style="stop-color:#FDD9B3"/>
	<stop  offset="1" style="stop-color:#FDD6AE"/>
</radialGradient>
<path id="hand_1_" class="st8" d="M122.6,174.9v2.5l8.8,8.8v13.5c0,0-1,1.6-1.9,0.9s-2.5-3.3-2.5-3.3v-6l-1.2,13.2
	c0,0,0,2.5-0.7,3.2s-4,0-4,0l-2.3-2.6c0,0-6.1-0.9-6.8-1.6s-2.1-4.7-2.1-5.3c0-0.5,0-10,0-11.2c0-1.2,1.6-4.7,1.8-6
	c0.2-1.2-0.5-5.1-0.5-5.1L122.6,174.9z"/>
<polygon class="st9" points="155.9,108.8 170.4,108.8 170.4,122.6 155.9,126.7 "/>
<path class="st10" d="M155.9,98.2h14.5v14.4c0,0-4.2,0.7-4.5,0.8c-1.8,0.2-3.7,0.2-6.2,0.1l-3.7-0.2V98.2z"/>
<g id="hood">
	<path class="st5" d="M152.1,116.8l22.1,0.3l0.5,6.5c0,0-29.6,1.7-34.4,13c-5.8,13.5-13.1,12.3-13.1,12.3s-11-2.8-6.8-14.1
		c1.6-4.2,14.3-19.3,14.3-19.3l4.4,2.7c0.5,0.3,0.9,0.5,1.5,0.6l9.9,2.6L152.1,116.8z"/>
	<g>
		<path class="st11" d="M135.7,134.5c-8.1,9.4-10.8,12.3-12.6,12.3c2,1.5,4.1,2.1,4.1,2.1s7.3,1.2,13.1-12.3
			c4.8-11.2,33.5-12.9,33.5-12.9l-8.6,0.1C158.3,123.7,143.6,125.4,135.7,134.5z"/>
	</g>
</g>
<g id="hand">
	<path class="st5" d="M117,183c-25.8,2.1,16.9-41.5,16.9-41.5c3.9-5.1,12.5-15.4,19.7-9.8l6.3,2.8c7.3,5.7-12.7,24.4-16.6,29.4
		l-11.1,24.6C124.4,185.5,117,183,117,183z"/>
</g>
<linearGradient id="SVGID_1_" gradientUnits="userSpaceOnUse" x1="206.1908" y1="40.3444" x2="120.1833" y2="90.0009">
	<stop  offset="0" style="stop-color:#FEE8D2"/>
	<stop  offset="0.979" style="stop-color:#FDD7B0"/>
	<stop  offset="1" style="stop-color:#FDD6AE"/>
</linearGradient>
<path class="st12" d="M156.8,110.4c-19.5-2.3-24.4-5.4-34.4-16.8c-10.3-15.9-0.8-6.3-3.3-10.5c-2.9-4.9-3.9-3.2-4.2-10.7
	c-0.6-1.1-12.1-17.4-2-15.4c2.1,0.4,5.5-7,5.5-3.6l5.3-2.8c-2.9-26.7,6.6-20.1,35.3-20.2c21.8-0.1,11.5-12.7,19.7,2.6
	c1.8,3.4,11.2-13.9,16.4-7.6c2,2.4,6.8,2.9,8.1,14.5c0.4,5.1,0,23.5,4.6,26.2c3.7,2.3,3.1,8.8-3.1,10.5
	C201,76.7,210.5,112.6,156.8,110.4z"/>
<ellipse transform="matrix(0.9993 -3.716629e-02 3.716629e-02 0.9993 -2.6277 6.4459)" class="st13" cx="172.1" cy="73.9" rx="6.6" ry="4.2"/>
<ellipse class="st14" cx="193.8" cy="60.5" rx="5.8" ry="6.3"/>
<ellipse cx="195.7" cy="60.5" rx="3.9" ry="3.9"/>
<g>
	<path class="st15" d="M175.5,332.5l32.3-0.3c1.1,0,2-1.2,2.2-2.7l0.2-3.5l-34.4,0.9l-3.1-0.9l0.1,3.2
		C172.9,331,174.1,332.5,175.5,332.5z"/>
	<path class="st16" d="M175.4,328.9l32.3-0.4c1.1,0,2.2-0.3,2.4-2.1l-0.8-2.3l-33.7,0.8l-2.9-0.6l-0.1,2.2
		C172.8,328.7,174,329,175.4,328.9z"/>
</g>
<g>
	<path class="st15" d="M122.3,331.4l32.3,1.1c1.1,0,2.1-1.1,2.3-2.7l0.3-3.6l-34.4-0.6l-3-1.1l0,3.2
		C119.8,329.7,120.9,331.3,122.3,331.4z"/>
	<path class="st16" d="M122.4,327.7l32.3,1.2c1.1,0,2.3-0.1,2.5-2l-0.7-2.3l-33.7-0.9l-2.8-0.7l-0.2,2.2
		C119.7,327.4,121,327.7,122.4,327.7z"/>
	<path class="st17" d="M121.2,311.9l-1.4,12.9c-0.1,0.9,0.6,1.7,1.5,1.7c6.1,0.3,27.2,1.5,34.5,1.3c1,0,1.7-1,1.5-1.9l-0.3-1.2
		c-0.1-0.3-0.3-0.6-0.5-0.8c-1.8-1.5-9.1-7.4-10.8-8.6c-1.1-0.8-2.9-3.3-4.3-5.5c-0.8-1.2-2.6-0.8-2.8,0.6l-0.1,0.6
		c-0.1,0.8-0.9,1.4-1.7,1.3l-13.7-1.6C122,310.4,121.3,311,121.2,311.9z"/>
</g>
<path class="st17" d="M173.2,315.3l-0.6,10.5c-0.1,0.9,0.7,1.7,1.6,1.7c6.1,0.1,27,0.2,34.4-0.3c1-0.1,1.8-1.1,1.5-2.1l-0.3-1.1
	c-0.1-0.3-0.3-0.6-0.6-0.9c-1.9-1.4-9.4-7-11.2-8.1c-1.1-0.7-2.9-3.1-4.4-5.2c-0.9-1.2-2.8-0.7-3,0.7l-0.4,2.6
	c-0.1,0.9-0.6,0.8-1.4,0.7l-13.9-0.3C174,313.7,173.3,314.4,173.2,315.3z"/>
<polygon class="st5" points="183.4,223.1 184.7,217.2 129.6,216 130.2,222.2 "/>
<path class="st18" d="M193,86.5c0,0-0.4,6.1,7.4,6.1c0.9-2.1,1.2-3,1.6-4.9c0,0-1.4,0.5-3.2,0.3C196.4,87.6,193,86.5,193,86.5z"/>
<path class="st10" d="M130.4,72.5c-7.8-0.6-8.3-14.3,0.2-12.6l-0.4,4.7C129.7,66.8,130.4,72.5,130.4,72.5z"/>
<path class="st19" d="M140.8,313.9l-16.7-2.6c-1.1-0.2-1.8-1.2-1.6-2.2l0.6-3.7c0.2-1.1,1.2-1.8,2.2-1.6l16.7,2.6
	c1.1,0.2,1.8,1.2,1.6,2.2l-0.6,3.7C142.9,313.3,141.9,314.1,140.8,313.9z"/>
<path class="st19" d="M192.3,314.3l-16.9,0.6c-1.1,0-2-0.8-2-1.9l-0.1-3.7c0-1.1,0.8-2,1.9-2l16.9-0.6c1.1,0,2,0.8,2,1.9l0.1,3.7
	C194.2,313.4,193.4,314.3,192.3,314.3z"/>
<path d="M113,21.6c-19.7,28.7-7.3,77.6,20.2,83.1c0,0-4.4-9.3-4.5-13.2c-0.4-8.8,3-14.2,2.9-14.2c-15.8-0.3-13.8-25.6-0.3-21.4
	c1.5,0.5,1.8,2,2.6,3.3l3.7,11.9l1.9-6.9c0.9-3.4,3.3-6.3,6.5-7.8c13.4-6.3,43.5-9.2,45.8-19.1c7.5,1,1.2,14.5,1.2,14.5
	c1.6-0.8,6.3-5.8,6.3-15.1c0,0,4.1,2.3,5.5,12.3C208.6-7.5,132.7-7.1,113,21.6z"/>
<path class="st11" d="M160.1,134.7c0,0-0.1,2.3-1.2,4.8c-1.1,2.5-5.1,9.5-8.8,12.6c-2.2,1.9-7.3,7.9-10.1,12.9c-2.8,5-6,12.8-6.8,15
	c-1.2,3.1-0.9,8.5-0.9,8.5s5.1-11.8,7.1-15.1c2-3.3,4.1-9.8,5.8-11.6c1.7-1.8,11.2-11.7,12.8-14.6s3.5-6.6,3.8-8.6
	C162.3,135.8,160.1,134.7,160.1,134.7z"/>
</svg>
