<?xml version="1.0" encoding="utf-8"?>
<!-- Generator: Adobe Illustrator 22.1.0, SVG Export Plug-In . SVG Version: 6.00 Build 0)  -->
<svg version="1.1" id="Layer_1" xmlns="http://www.w3.org/2000/svg" xmlns:xlink="http://www.w3.org/1999/xlink" x="0px" y="0px"
	 viewBox="0 0 201.7 335" style="enable-background:new 0 0 201.7 335;" xml:space="preserve">
<style type="text/css">
	.st0{fill:#1952FF;}
	.st1{fill:#1970FF;}
	.st2{fill:#3E3752;}
	.st3{fill:#008BD0;}
	.st4{fill:#FDD6AE;}
	.st5{fill:#231152;}
	.st6{fill:#F9BFBD;}
	.st7{fill:none;stroke:#000000;stroke-width:2;stroke-linejoin:round;}
	.st8{fill:#FFFFFD;}
	.st9{fill:#363636;}
	.st10{fill:#FFFFFF;}
	.st11{fill:#F97570;}
</style>
<title>Asset 3</title>
<g id="right_foot">
	<path class="st0" d="M121.1,194.3c0,0,4.5,20.1,4.7,50.8c0.2,21.4-11.1,45.5-11,50.4c4.5,4,16.7,2.1,16.7,2.1l13.2-44.9l9.2-56.6
		L121.1,194.3z"/>
</g>
<g id="left_foot">
	<path class="st1" d="M127.2,195.6c0,0,21.5,29.5,29.7,58c6.4,22.3,6.6,38,9.5,49.2c10.4,1.7,11.3-0.9,11.3-0.9l1.2-50.1l-9.3-55.7
		L127.2,195.6z"/>
</g>
<path id="body_1_" class="st2" d="M139.7,115.8c0,0-30.3,91.1-8.5,91.6c48,7.2,50.8-2.3,49.7-28.5c-1.9-30.3-7.2-47.9-8.7-58.2
	C170.6,110.4,139.7,115.8,139.7,115.8z"/>
<path id="body" class="st3" d="M135.7,115.8c0,0-30.3,91.1-8.5,91.6c48,7.2,50.8-2.3,49.7-28.5c-1.9-30.3-7.2-47.9-8.7-58.2
	c-0.4-2.5-0.9-3.4-3.9-4.4C155,113.4,135.7,115.8,135.7,115.8z"/>
<path id="hand_1_" class="st4" d="M115,164.8v2.3l8.3,8.3v12.8c0,0-1,1.5-1.8,0.8c-0.8-0.7-2.3-3.2-2.3-3.2v-5.7l-1.2,12.5
	c0,0,0,2.3-0.7,3c-0.7,0.7-3.8,0-3.8,0l-2.2-2.5c0,0-5.8-0.8-6.5-1.5c-0.7-0.7-2-4.5-2-5s0-9.5,0-10.7c0-1.2,1.5-4.5,1.7-5.7
	s-0.5-4.8-0.5-4.8L115,164.8z"/>
<polygon class="st4" points="146.6,102 160.4,102 160.4,115.1 146.6,119 "/>
<g id="hood">
	<path class="st2" d="M143,109.7l21,0.3l0.5,6.2c0,0-28.1,1.6-32.7,12.3c-5.5,12.8-12.5,11.7-12.5,11.7s-10.5-2.6-6.5-13.4
		c1.5-4,13.6-18.3,13.6-18.3l4.2,2.6c0.4,0.3,0.9,0.5,1.4,0.6l9.4,2.5L143,109.7z"/>
	<g>
		<path class="st5" d="M127.4,126.4c-7.7,8.9-10.3,11.7-12,11.7c1.9,1.5,3.9,2,3.9,2s7,1.2,12.5-11.7c4.6-10.7,31.8-12.3,31.8-12.3
			l-8.2,0.1C148.9,116.1,134.9,117.8,127.4,126.4z"/>
	</g>
</g>
<g id="hand">
	<path class="st2" d="M109.7,172.5c-24.5,2,16.1-39.4,16.1-39.4c3.7-4.8,11.8-14.6,18.7-9.3l6,2.6c6.9,5.4-12.1,23.2-15.8,28
		l-10.5,23.3C116.7,174.9,109.7,172.5,109.7,172.5z"/>
</g>
<path class="st4" d="M145.7,104.2c-18.5-2.2-23.2-5.2-32.6-16c-9.8-15.1-0.7-6-3.1-10c-2.8-4.7-3.7-3-4-10.2
	c-0.6-1-11.5-16.5-1.9-14.6c2,0.4,8.8,3.2,8.8,6.4l4.6-3.8c-2.8-25.4,3.2-27.8,30.5-27.9c20.7-0.1,10.9-12.1,18.7,2.5
	c1.7,3.2,10.7-13.2,15.6-7.2c1.9,2.3,6.5,2.8,7.7,13.8c0.4,4.9,0,22.3,4.3,24.9c3.5,2.2,4.3,8-1.6,9.7
	C190.7,72.2,198.8,106.8,145.7,104.2z"/>
<ellipse transform="matrix(0.9993 -3.716629e-02 3.716629e-02 0.9993 -2.4477 6.0665)" class="st6" cx="161.9" cy="68.9" rx="6.2" ry="4"/>
<path class="st7" d="M0.3,195.7c0,0,26.8,8.8,56.8-14.5c26.9-20.8,59,2.3,59,2.3"/>
<ellipse class="st8" cx="182.6" cy="56.1" rx="5.5" ry="6"/>
<ellipse cx="184.4" cy="56.1" rx="3.7" ry="3.7"/>
<g>
	<path d="M104.7,19.8c-13.8,28.6-8.3,51,13.2,76.3l0.1-1c0.8-5.8,3.6-11.1,7.8-15.1c4.1-3.9,8.6-8.2,8.5-8.2
		c-15.3-0.3-13.3-22,0-18.1c1.9,0.6,3.6,1.8,4.8,3.4l2,2.7c-0.3-0.7-0.6-2.6-0.4-4.6c0.1-1,1.5-5.1,2.3-6.6c1,0.7-1.7,4.4,1.8,6.8
		c6.4-18.5,32.2-11.7,34.8-23c7.3,1,1.1,13.9,1.1,13.9c1.6-0.7,6.1-5.6,6.2-14.6c0,0,3.9,2.3,5.3,11.8
		C197.8-14.2,110.4,2.7,104.7,19.8z"/>
</g>
<path class="st9" d="M115.2,295.9l-1.3,13.2c0,0,31.7,1.8,36.2,1.2l-0.8-3.3c0,0-8.8-7.2-10.7-8.5c-1.8-1.3-6.1-8.5-6.1-8.5
	l-1.4,7.8L115.2,295.9z"/>
<path class="st9" d="M164.3,295.9L163,309c0,0,31.7,1.8,36.2,1.2l-0.8-3.3c0,0-8.8-7.2-10.7-8.5c-1.8-1.3-6.1-8.5-6.1-8.5l-1.4,7.8
	L164.3,295.9z"/>
<polygon class="st10" points="110.3,312.2 146.5,312.2 146.5,309.7 111.8,308.6 110.3,308.5 "/>
<polygon class="st10" points="163,312.9 199.1,312.9 199.1,310.4 164.5,309.3 163,309.3 "/>
<image style="overflow:visible;" width="600" height="277" xlink:href="../references/millennial-character-various-poses-front-600w-768400141.jpg"  transform="matrix(0.2408 0 0 0.2408 41.6667 344)">
</image>
<image style="overflow:visible;" width="1299" height="1300" xlink:href="../references/69364555-standing-young-man-boy-character-in-front-back-side-view-in-casual-clothes-vector-set-guy-stand-side.jpg"  transform="matrix(-0.333 0 0 0.333 306.2147 374.0795)">
</image>
<polygon class="st2" points="172.8,210.6 174,205 121.6,203.9 122.2,209.8 "/>
<path class="st11" d="M180.4,80.2c0,0-0.6,6,9.3,6c0.9-2,1.4-4,1.8-5.8c-0.1,0-0.1,0-0.2,0C182.9,81.7,180.4,80.2,180.4,80.2z"/>
</svg>
