<?xml version="1.0" encoding="utf-8"?>
<!-- Generator: Adobe Illustrator 22.1.0, SVG Export Plug-In . SVG Version: 6.00 Build 0)  -->
<svg version="1.1" id="Layer_1" xmlns="http://www.w3.org/2000/svg" xmlns:xlink="http://www.w3.org/1999/xlink" x="0px" y="0px"
	 viewBox="0 0 4212.5 1899.5" style="enable-background:new 0 0 4212.5 1899.5;" xml:space="preserve">
<style type="text/css">
	.st0{fill:url(#skys_1_);}
	.st1{fill:url(#SVGID_1_);}
	.st2{fill:url(#SVGID_2_);}
	.st3{fill:url(#SVGID_3_);}
	.st4{fill:url(#SVGID_4_);}
	.st5{fill:url(#SVGID_5_);}
	.st6{fill:url(#SVGID_6_);}
	.st7{fill:url(#SVGID_7_);}
	.st8{fill:#FDF6CE;}
	.st9{opacity:0.3;}
	.st10{fill:none;stroke:#F9672D;stroke-width:5;stroke-miterlimit:10;}
	.st11{fill:#FFF6CD;}
	.st12{fill:#28232B;}
	.st13{fill:#964548;}
	.st14{fill:#472223;}
	.st15{fill:#FFF9F7;}
	.st16{fill:#FFD2C2;}
	.st17{fill:#FF7BAC;}
	.st18{fill:#0071BC;}
	.st19{fill:#FFCFE1;}
	.st20{fill:#A550AC;}
	.st21{fill:url(#SVGID_8_);}
	.st22{fill:#FFFFFF;}
	.st23{fill:#CFEAFF;}
	.st24{fill:url(#SVGID_9_);}
	.st25{fill:url(#SVGID_10_);}
	.st26{fill:url(#SVGID_11_);}
	.st27{fill:#AEE0C0;stroke:#AEE0C0;stroke-miterlimit:10;}
	.st28{fill:#FDD6AE;}
	.st29{fill:#F8A586;}
	.st30{fill:#2D191E;}
	.st31{fill:#FFFFFD;}
	.st32{fill:url(#SVGID_12_);}
	.st33{fill:url(#SVGID_13_);}
	.st34{fill:url(#SVGID_14_);}
	.st35{fill:url(#SVGID_15_);}
	.st36{fill:#BA7F29;}
	.st37{fill:#D6BC7C;}
	.st38{fill:#302A32;}
</style>
<title>Asset 1</title>
<g id="Layer_2_1_">
	<g id="background">
		<g id="background-2">
			
				<linearGradient id="skys_1_" gradientUnits="userSpaceOnUse" x1="2108.25" y1="2434.5" x2="2108.25" y2="4332" gradientTransform="matrix(1 0 0 -1 0 4334)">
				<stop  offset="0" style="stop-color:#1645B0"/>
				<stop  offset="0.1337" style="stop-color:#12398E"/>
				<stop  offset="0.3404" style="stop-color:#0C2960"/>
				<stop  offset="0.5239" style="stop-color:#081E3E"/>
				<stop  offset="0.6755" style="stop-color:#051729"/>
				<stop  offset="0.7764" style="stop-color:#041422"/>
				<stop  offset="1" style="stop-color:#01121B"/>
			</linearGradient>
			<polygon id="skys" class="st0" points="2812.3,4.1 1409.2,4.1 0,2 0,1899.5 1409.2,1899.5 1445.3,1899.5 2784.3,1899.5 
				2812.3,1899.5 4216.5,1899.5 4216.5,951.8 4215.5,2 			"/>
			<g id="road">
				
					<linearGradient id="SVGID_1_" gradientUnits="userSpaceOnUse" x1="2108.25" y1="2431" x2="2108.25" y2="2762.3" gradientTransform="matrix(1 0 0 -1 0 4334)">
					<stop  offset="0" style="stop-color:#161D49"/>
					<stop  offset="1.000000e-02" style="stop-color:#211E4A"/>
					<stop  offset="5.000000e-02" style="stop-color:#3C214E"/>
					<stop  offset="0.1" style="stop-color:#522350"/>
					<stop  offset="0.15" style="stop-color:#632552"/>
					<stop  offset="0.21" style="stop-color:#6E2654"/>
					<stop  offset="0.3" style="stop-color:#752755"/>
					<stop  offset="0.55" style="stop-color:#772755"/>
					<stop  offset="0.65" style="stop-color:#742755"/>
					<stop  offset="0.74" style="stop-color:#692653"/>
					<stop  offset="0.82" style="stop-color:#572451"/>
					<stop  offset="0.91" style="stop-color:#3E214E"/>
					<stop  offset="0.98" style="stop-color:#1D1E4A"/>
					<stop  offset="1" style="stop-color:#161D49"/>
				</linearGradient>
				<rect y="1571.7" class="st1" width="4216.5" height="331.3"/>
			</g>
			<g id="pillars">
				
					<linearGradient id="SVGID_2_" gradientUnits="userSpaceOnUse" x1="2513.8035" y1="2896.95" x2="2560.5991" y2="2896.95" gradientTransform="matrix(1 0 0 -1 0 4334)">
					<stop  offset="0" style="stop-color:#4A4034"/>
					<stop  offset="0.15" style="stop-color:#91583D"/>
					<stop  offset="0.31" style="stop-color:#DC7247"/>
					<stop  offset="0.39" style="stop-color:#FA7C4A"/>
					<stop  offset="0.4" style="stop-color:#F77C4B"/>
					<stop  offset="0.6" style="stop-color:#C77954"/>
					<stop  offset="0.77" style="stop-color:#A4775B"/>
					<stop  offset="0.91" style="stop-color:#8F755F"/>
					<stop  offset="1" style="stop-color:#877560"/>
				</linearGradient>
				<path class="st2" d="M2550.8,1210.2c-0.1-3.8-2.8-6.9-6.1-6.9h-15c-3.3,0-6.1,3.1-6.1,6.9l-9.7,453.3c-0.1,4,2.7,7.3,6.1,7.3
					h34.5c3.5,0,6.2-3.2,6.1-7.3L2550.8,1210.2z"/>
				
					<linearGradient id="SVGID_3_" gradientUnits="userSpaceOnUse" x1="2064.2922" y1="2896.95" x2="2111.0876" y2="2896.95" gradientTransform="matrix(1 0 0 -1 0 4334)">
					<stop  offset="0" style="stop-color:#4A4034"/>
					<stop  offset="0.15" style="stop-color:#91583D"/>
					<stop  offset="0.31" style="stop-color:#DC7247"/>
					<stop  offset="0.39" style="stop-color:#FA7C4A"/>
					<stop  offset="0.4" style="stop-color:#F77C4B"/>
					<stop  offset="0.6" style="stop-color:#C77954"/>
					<stop  offset="0.77" style="stop-color:#A4775B"/>
					<stop  offset="0.91" style="stop-color:#8F755F"/>
					<stop  offset="1" style="stop-color:#877560"/>
				</linearGradient>
				<path class="st3" d="M2101.3,1210.2c-0.1-3.8-2.8-6.9-6.1-6.9h-15c-3.3,0-6.1,3.1-6.1,6.9l-9.7,453.3c-0.1,4,2.7,7.3,6.1,7.3
					h34.5c3.5,0,6.2-3.2,6.1-7.3L2101.3,1210.2z"/>
				
					<linearGradient id="SVGID_4_" gradientUnits="userSpaceOnUse" x1="1614.781" y1="2896.95" x2="1661.5763" y2="2896.95" gradientTransform="matrix(1 0 0 -1 0 4334)">
					<stop  offset="0" style="stop-color:#4A4034"/>
					<stop  offset="0.15" style="stop-color:#91583D"/>
					<stop  offset="0.31" style="stop-color:#DC7247"/>
					<stop  offset="0.39" style="stop-color:#FA7C4A"/>
					<stop  offset="0.4" style="stop-color:#F77C4B"/>
					<stop  offset="0.6" style="stop-color:#C77954"/>
					<stop  offset="0.77" style="stop-color:#A4775B"/>
					<stop  offset="0.91" style="stop-color:#8F755F"/>
					<stop  offset="1" style="stop-color:#877560"/>
				</linearGradient>
				<path class="st4" d="M1651.8,1210.2c-0.1-3.8-2.8-6.9-6.1-6.9h-15c-3.3,0-6.1,3.1-6.1,6.9l-9.7,453.3c-0.1,4,2.7,7.3,6.1,7.3
					h34.5c3.5,0,6.2-3.2,6.1-7.3L1651.8,1210.2z"/>
			</g>
			<g id="pillars-2">
				
					<linearGradient id="SVGID_5_" gradientUnits="userSpaceOnUse" x1="1166.823" y1="2896.95" x2="1213.6183" y2="2896.95" gradientTransform="matrix(1 0 0 -1 0 4334)">
					<stop  offset="0" style="stop-color:#4A4034"/>
					<stop  offset="0.15" style="stop-color:#91583D"/>
					<stop  offset="0.31" style="stop-color:#DC7247"/>
					<stop  offset="0.39" style="stop-color:#FA7C4A"/>
					<stop  offset="0.4" style="stop-color:#F77C4B"/>
					<stop  offset="0.6" style="stop-color:#C77954"/>
					<stop  offset="0.77" style="stop-color:#A4775B"/>
					<stop  offset="0.91" style="stop-color:#8F755F"/>
					<stop  offset="1" style="stop-color:#877560"/>
				</linearGradient>
				<path class="st5" d="M1203.8,1210.2c-0.1-3.8-2.8-6.9-6.1-6.9h-15c-3.3,0-6.1,3.1-6.1,6.9l-9.7,453.3c-0.1,4,2.7,7.3,6.1,7.3
					h34.5c3.5,0,6.2-3.2,6.1-7.3L1203.8,1210.2z"/>
				
					<linearGradient id="SVGID_6_" gradientUnits="userSpaceOnUse" x1="717.3115" y1="2896.95" x2="764.1068" y2="2896.95" gradientTransform="matrix(1 0 0 -1 0 4334)">
					<stop  offset="0" style="stop-color:#4A4034"/>
					<stop  offset="0.15" style="stop-color:#91583D"/>
					<stop  offset="0.31" style="stop-color:#DC7247"/>
					<stop  offset="0.39" style="stop-color:#FA7C4A"/>
					<stop  offset="0.4" style="stop-color:#F77C4B"/>
					<stop  offset="0.6" style="stop-color:#C77954"/>
					<stop  offset="0.77" style="stop-color:#A4775B"/>
					<stop  offset="0.91" style="stop-color:#8F755F"/>
					<stop  offset="1" style="stop-color:#877560"/>
				</linearGradient>
				<path class="st6" d="M754.3,1210.2c-0.1-3.8-2.8-6.9-6.1-6.9h-15c-3.3,0-6.1,3.1-6.1,6.9l-9.7,453.3c-0.1,4,2.7,7.3,6.1,7.3H758
					c3.5,0,6.2-3.2,6.1-7.3L754.3,1210.2z"/>
				
					<linearGradient id="SVGID_7_" gradientUnits="userSpaceOnUse" x1="267.8" y1="2896.95" x2="314.5953" y2="2896.95" gradientTransform="matrix(1 0 0 -1 0 4334)">
					<stop  offset="0" style="stop-color:#4A4034"/>
					<stop  offset="0.15" style="stop-color:#91583D"/>
					<stop  offset="0.31" style="stop-color:#DC7247"/>
					<stop  offset="0.39" style="stop-color:#FA7C4A"/>
					<stop  offset="0.4" style="stop-color:#F77C4B"/>
					<stop  offset="0.6" style="stop-color:#C77954"/>
					<stop  offset="0.77" style="stop-color:#A4775B"/>
					<stop  offset="0.91" style="stop-color:#8F755F"/>
					<stop  offset="1" style="stop-color:#877560"/>
				</linearGradient>
				<path class="st7" d="M304.8,1210.2c-0.1-3.8-2.8-6.9-6.1-6.9h-15c-3.3,0-6.1,3.1-6.1,6.9l-9.7,453.3c-0.1,4,2.7,7.3,6.1,7.3
					h34.5c3.5,0,6.2-3.2,6.1-7.3L304.8,1210.2z"/>
			</g>
			<g id="stars">
				<g id="stars-2">
					<g id="stars-3">
						<path class="st8" d="M1890.6,504.1c1.1,0,2-0.9,2-2s-0.9-2-2-2C1888,500.2,1888,504.1,1890.6,504.1z"/>
						<path class="st8" d="M1777,170.8c1.1,0,2-0.9,2-2s-0.9-2-2-2s-2,0.9-2,2S1775.9,170.8,1777,170.8z"/>
						<path class="st8" d="M1962.1,112.8c1.1,0,2-0.9,2-2s-0.9-2-2-2s-2,0.9-2,2S1961,112.8,1962.1,112.8z"/>
						<path class="st8" d="M2050.3,308.8c1.1,0,2-0.9,2-2s-0.9-2-2-2s-2,0.9-2,2S2049.2,308.8,2050.3,308.8z"/>
						<path class="st8" d="M1883.9,200.8c1.1,0,2-0.9,2-2s-0.9-2-2-2s-2,0.9-2,2S1882.8,200.8,1883.9,200.8z"/>
						<path class="st8" d="M1946.7,303.5c1.1,0,2-0.9,2-2s-0.9-2-2-2C1944.2,299.5,1944.2,303.5,1946.7,303.5z"/>
						<path class="st8" d="M1773.7,382.8c1.1,0,2-0.9,2-2s-0.9-2-2-2s-2,0.9-2,2S1772.6,382.8,1773.7,382.8z"/>
						<path class="st8" d="M1871.9,277.5c1.1,0,2-0.9,2-2s-0.9-2-2-2s-2,0.9-2,2S1870.8,277.5,1871.9,277.5z"/>
						<path class="st8" d="M1619.9,218.8c1.1,0,2-0.9,2-2s-0.9-2-2-2C1617.4,214.8,1617.4,218.8,1619.9,218.8z"/>
						<path class="st8" d="M1667.5,31.5c1.1,0,2-0.9,2-2s-0.9-2-2-2s-2,0.9-2,2S1666.3,31.5,1667.5,31.5z"/>
						<path class="st8" d="M1722.2,228.1c1.1,0,2-0.9,2-2s-0.9-2-2-2C1719.7,224.2,1719.7,228.1,1722.2,228.1z"/>
						<path class="st8" d="M1638.7,410.1c1.1,0,2-0.9,2-2s-0.9-2-2-2C1636.1,406.2,1636.1,410.1,1638.7,410.1z"/>
						<path class="st8" d="M2064.3,550.8c1.1,0,2-0.9,2-2s-0.9-2-2-2s-2,0.9-2,2S2063.2,550.8,2064.3,550.8z"/>
						<path class="st8" d="M2346.3,338.1c1.1,0,2-0.9,2-2s-0.9-2-2-2C2343.7,334.2,2343.7,338.1,2346.3,338.1z"/>
						<path class="st8" d="M2282.1,197.5c1.1,0,2-0.9,2-2s-0.9-2-2-2s-2,0.9-2,2S2281,197.5,2282.1,197.5z"/>
						<path class="st8" d="M2113.8,161.5c1.1,0,2-0.9,2-2s-0.9-2-2-2s-2,0.9-2,2S2112.7,161.5,2113.8,161.5z"/>
						<path class="st8" d="M2143.1,292.8c1.1,0,2-0.9,2-2s-0.9-2-2-2C2140.6,288.8,2140.6,292.8,2143.1,292.8z"/>
						<path class="st8" d="M2520,440.8c1.1,0,2-0.9,2-2s-0.9-2-2-2C2517.4,436.9,2517.4,440.8,2520,440.8z"/>
						<path class="st8" d="M2218.7,257.6c1.1,0,2-0.9,2-2s-0.9-2-2-2s-2,0.9-2,2S2217.6,257.6,2218.7,257.6z"/>
						<path class="st8" d="M2323.5,94.7c1.1,0,2-0.9,2-2s-0.9-2-2-2s-2,0.9-2,2S2322.4,94.7,2323.5,94.7z"/>
						<path class="st8" d="M2517.1,188.8c1.1,0,2-0.9,2-2s-0.9-2-2-2C2514.6,184.8,2514.6,188.8,2517.1,188.8z"/>
						<path class="st8" d="M2320,212.2c1.1,0,2-0.9,2-2s-0.9-2-2-2C2317.4,208.3,2317.4,212.2,2320,212.2z"/>
						<path class="st8" d="M2434.2,250.9c1.1,0,2-0.9,2-2s-0.9-2-2-2s-2,0.9-2,2S2433.1,250.9,2434.2,250.9z"/>
						<path class="st8" d="M2352.3,422.5c1.1,0,2-0.9,2-2s-0.9-2-2-2s-2,0.9-2,2S2351.2,422.5,2352.3,422.5z"/>
						<path class="st8" d="M2360,278.8c1.1,0,2-0.9,2-2s-0.9-2-2-2s-2,0.9-2,2S2358.9,278.8,2360,278.8z"/>
						<path class="st8" d="M2129,394.8c1.1,0,2-0.9,2-2s-0.9-2-2-2C2126.4,390.9,2126.4,394.8,2129,394.8z"/>
						<path class="st8" d="M2045,220.7c1.1,0,2-0.9,2-2s-0.9-2-2-2C2042.5,216.7,2042.5,220.7,2045,220.7z"/>
						<path class="st8" d="M2213.4,336.6c1.1,0,2-0.9,2-2s-0.9-2-2-2C2210.9,332.7,2210.9,336.6,2213.4,336.6z"/>
						<path class="st8" d="M2266.2,529.7c1.1,0,2-0.9,2-2s-0.9-2-2-2C2263.7,525.8,2263.7,529.7,2266.2,529.7z"/>
						<path class="st8" d="M2683.3,365.6c1.1,0,2-0.9,2-2s-0.9-2-2-2s-2,0.9-2,2S2682.2,365.6,2683.3,365.6z"/>
						<path class="st8" d="M2763.1,22c1.1,0,2-0.9,2-2s-0.9-2-2-2C2760.6,18.1,2760.6,22,2763.1,22z"/>
						<path class="st8" d="M2471.2,35.1c1.1,0,2-0.9,2-2c0-1.1-0.9-2-2-2C2468.7,31.1,2468.7,35.1,2471.2,35.1z"/>
						<path class="st8" d="M2578.1,117.1c1.1,0,2-0.9,2-2s-0.9-2-2-2C2575.6,113.1,2575.5,117.1,2578.1,117.1z"/>
						<path class="st8" d="M2561.1,491.8c1.1,0,2-0.9,2-2s-0.9-2-2-2C2558.5,487.9,2558.5,491.8,2561.1,491.8z"/>
						<path class="st8" d="M2448.9,333.9c1.1,0,2-0.9,2-2s-0.9-2-2-2s-2,0.9-2,2S2447.8,333.9,2448.9,333.9z"/>
						<path class="st8" d="M2608.8,190c1.1,0,2-0.9,2-2s-0.9-2-2-2C2606.3,186,2606.3,190,2608.8,190z"/>
						<path class="st8" d="M2556.9,381.1c1.1,0,2-0.9,2-2s-0.9-2-2-2s-2,0.9-2,2S2555.8,381.1,2556.9,381.1z"/>
						<path class="st8" d="M2635.5,289.9c1.1,0,2-0.9,2-2s-0.9-2-2-2C2632.9,286,2632.9,289.9,2635.5,289.9z"/>
						<path class="st8" d="M2764.3,429.9c1.1,0,2-0.9,2-2s-0.9-2-2-2C2761.7,426,2761.7,429.9,2764.3,429.9z"/>
						<path class="st8" d="M2633.6,369c1.1,0,2-0.9,2-2s-0.9-2-2-2C2631.1,365,2631.1,369,2633.6,369z"/>
						<path class="st8" d="M2655,626.2c1.1,0,2-0.9,2-2s-0.9-2-2-2C2652.5,622.2,2652.5,626.2,2655,626.2z"/>
						<path class="st8" d="M2461.7,638.6c1.1,0,2-0.9,2-2s-0.9-2-2-2C2459.2,634.7,2459.2,638.6,2461.7,638.6z"/>
						<path class="st8" d="M2632.5,526.3c1.1,0,2-0.9,2-2s-0.9-2-2-2C2630,522.3,2629.9,526.3,2632.5,526.3z"/>
						<path class="st8" d="M2431.5,4c1.1,0,2-0.9,2-2s-0.9-2-2-2s-2,0.9-2,2S2430.4,4,2431.5,4z"/>
						<path class="st8" d="M2448.8,174.9c1.1,0,2-0.9,2-2s-0.9-2-2-2s-2,0.9-2,2S2447.7,174.9,2448.8,174.9z"/>
						<path class="st8" d="M2565,106.7c1.1,0,2-0.9,2-2s-0.9-2-2-2C2562.5,102.7,2562.5,106.7,2565,106.7z"/>
						<path class="st8" d="M1565.7,420.8c1.1,0,2-0.9,2-2s-0.9-2-2-2s-2,0.9-2,2S1564.6,420.8,1565.7,420.8z"/>
						<path class="st8" d="M1658.2,93.5c1.1,0,2-0.9,2-2s-0.9-2-2-2s-2,0.9-2,2S1657.1,93.5,1658.2,93.5z"/>
						<path class="st8" d="M1782.3,91.8c1.1,0,2-0.9,2-2s-0.9-2-2-2C1779.8,87.8,1779.8,91.8,1782.3,91.8z"/>
						<path class="st8" d="M1739.2,290c1.1,0,2-0.9,2-2s-0.9-2-2-2C1736.7,286,1736.6,290,1739.2,290z"/>
						<path class="st8" d="M1700.8,149c1.1,0,2-0.9,2-2s-0.9-2-2-2C1698.3,145.1,1698.3,149,1700.8,149z"/>
						<path class="st8" d="M1687,257.3c1.1,0,2-0.9,2-2s-0.9-2-2-2C1684.5,253.4,1684.5,257.3,1687,257.3z"/>
						<path class="st8" d="M1559.5,281.2c1.1,0,2-0.9,2-2s-0.9-2-2-2C1556.9,277.3,1556.9,281.2,1559.5,281.2z"/>
						<path class="st8" d="M1659.4,214c1.1,0,2-0.9,2-2s-0.9-2-2-2C1656.9,210,1656.9,214,1659.4,214z"/>
						<path class="st8" d="M1553.4,93.8c1.1,0,2-0.9,2-2s-0.9-2-2-2C1550.9,89.9,1550.9,93.8,1553.4,93.8z"/>
						<path class="st8" d="M1603.1,129.7c1.1,0,2-0.9,2-2s-0.9-2-2-2C1600.5,125.8,1600.5,129.7,1603.1,129.7z"/>
						<path class="st8" d="M1475.8,269.1c1.1,0,2-0.9,2-2s-0.9-2-2-2C1473.2,265.2,1473.2,269.1,1475.8,269.1z"/>
						<path class="st8" d="M1636,509.1c1.1,0,2-0.9,2-2s-0.9-2-2-2C1633.4,505.2,1633.4,509.1,1636,509.1z"/>
						<path class="st8" d="M1881.9,396c1.1,0,2-0.9,2-2s-0.9-2-2-2s-2,0.9-2,2S1880.8,396,1881.9,396z"/>
						<path class="st8" d="M1912.4,253.5c1.1,0,2-0.9,2-2s-0.9-2-2-2C1909.9,249.5,1909.9,253.5,1912.4,253.5z"/>
						<path class="st8" d="M1840,176c1.1,0,2-0.9,2-2s-0.9-2-2-2C1837.5,172.1,1837.5,176,1840,176z"/>
						<path class="st8" d="M1795.5,300.8c1.1,0,2-0.9,2-2s-0.9-2-2-2C1792.9,296.9,1792.9,300.8,1795.5,300.8z"/>
						<g class="st9">
							<path class="st8" d="M2028.4,200.2c1.1,0,2-0.9,2-2s-0.9-2-2-2C2025.9,196.3,2025.9,200.2,2028.4,200.2z"/>
							<path class="st8" d="M2411.7,91c1.1,0,2-0.9,2-2s-0.9-2-2-2C2409.2,87,2409.2,91,2411.7,91z"/>
							<path class="st8" d="M2274.6,256.7c1.1,0,2-0.9,2-2s-0.9-2-2-2C2272.1,252.7,2272.1,256.7,2274.6,256.7z"/>
							<path class="st8" d="M2298.1,60c1.1,0,2-0.9,2-2s-0.9-2-2-2C2295.6,56,2295.6,60,2298.1,60z"/>
							<path class="st8" d="M2233.6,161.6c1.1,0,2-0.9,2-2s-0.9-2-2-2C2231,157.7,2231,161.6,2233.6,161.6z"/>
							<path class="st8" d="M2085.7,41.9c1.1,0,2-0.9,2-2s-0.9-2-2-2C2083.2,37.9,2083.2,41.9,2085.7,41.9z"/>
							<path class="st8" d="M2223.9,83.2c1.1,0,2-0.9,2-2s-0.9-2-2-2s-2,0.9-2,2S2222.8,83.2,2223.9,83.2z"/>
							<path class="st8" d="M2063.3,376.3c1.1,0,2-0.9,2-2s-0.9-2-2-2C2060.8,372.3,2060.7,376.3,2063.3,376.3z"/>
							<path class="st8" d="M2379.3,534.5c1.1,0,2-0.9,2-2s-0.9-2-2-2C2376.7,530.5,2376.7,534.5,2379.3,534.5z"/>
							<path class="st8" d="M2477.3,414.8c1.1,0,2-0.9,2-2s-0.9-2-2-2C2474.8,410.9,2474.8,414.8,2477.3,414.8z"/>
							<path class="st8" d="M2435.2,248.3c1.1,0,2-0.9,2-2s-0.9-2-2-2s-2,0.9-2,2S2434.1,248.3,2435.2,248.3z"/>
							<path class="st8" d="M2330.1,332.7c1.1,0,2-0.9,2-2s-0.9-2-2-2s-2,0.9-2,2S2329,332.7,2330.1,332.7z"/>
						</g>
					</g>
				</g>
				<g id="stars-5">
					<g id="stars-6">
						<path class="st8" d="M1307.1,527.5c-0.8,0.7-0.9,2-0.2,2.8c0.6,0.7,1.6,0.9,2.4,0.5C1311.4,529.4,1309.2,526.2,1307.1,527.5z"
							/>
						<path class="st8" d="M1585.7,743.6c-0.8,0.7-0.9,2-0.2,2.8c0.6,0.7,1.6,0.9,2.4,0.5C1590.1,745.5,1587.9,742.2,1585.7,743.6z"
							/>
						<path class="st8" d="M1463,893.6c-0.8,0.7-0.9,2-0.2,2.8c0.6,0.7,1.6,0.9,2.4,0.5C1467.4,895.5,1465.2,892.2,1463,893.6z"/>
						<path class="st8" d="M1281.4,778.3c-0.8,0.7-0.9,2-0.2,2.8c0.6,0.7,1.6,0.9,2.4,0.5C1285.7,780.2,1283.5,776.9,1281.4,778.3z"
							/>
						<path class="st8" d="M1479.8,777.2c-0.8,0.7-0.9,2-0.2,2.8c0.6,0.7,1.6,0.9,2.4,0.5C1484.2,779.1,1482,775.8,1479.8,777.2z"/>
						<path class="st8" d="M1370.8,725.9c-0.8,0.7-0.9,2-0.2,2.8c0.6,0.7,1.6,0.9,2.4,0.5C1375.1,727.8,1372.9,724.5,1370.8,725.9z"
							/>
						<path class="st8" d="M1471.6,564.7c-0.8,0.7-0.9,2-0.2,2.8c0.6,0.7,1.6,0.9,2.4,0.5C1476,566.6,1473.8,563.3,1471.6,564.7z"/>
						<path class="st8" d="M1447.6,706.6c-0.8,0.7-0.9,2-0.2,2.8c0.6,0.7,1.6,0.9,2.4,0.5c0.8-0.7,0.9-2,0.2-2.8
							C1449.4,706.4,1448.4,706.2,1447.6,706.6z"/>
						<path class="st8" d="M1690.4,617.4c-0.8,0.7-0.9,2-0.2,2.8c0.6,0.7,1.6,0.9,2.4,0.5C1694.7,619.3,1692.5,616,1690.4,617.4z"/>
						<path class="st8" d="M1753.9,799.9c-0.8,0.7-0.9,2-0.2,2.8c0.6,0.7,1.6,0.9,2.4,0.5C1758.4,801.8,1756.2,798.5,1753.9,799.9z"
							/>
						<path class="st8" d="M1599.9,665.7c-0.8,0.7-0.9,2-0.2,2.8c0.6,0.7,1.6,0.9,2.4,0.5C1604.1,667.6,1602,664.3,1599.9,665.7z"/>
						<path class="st8" d="M1569.3,467.9c-0.8,0.7-0.9,2-0.2,2.8c0.6,0.7,1.6,0.9,2.4,0.5C1573.6,469.7,1571.5,466.4,1569.3,467.9z"
							/>
						<path class="st8" d="M1136.3,583.9c-0.8,0.7-0.9,2-0.2,2.8c0.6,0.7,1.6,0.9,2.4,0.5c0.8-0.7,0.9-2,0.2-2.8
							C1138.1,583.7,1137.1,583.5,1136.3,583.9z"/>
						<path class="st8" d="M1018,916.2c-0.8,0.7-0.9,2-0.2,2.8c0.6,0.7,1.6,0.9,2.4,0.5c0.8-0.7,0.9-2,0.2-2.8
							C1019.8,916,1018.8,915.8,1018,916.2z"/>
						<path class="st8" d="M1149.1,998.4c-0.8,0.7-0.9,2-0.2,2.8c0.6,0.7,1.6,0.9,2.4,0.5C1153.4,1000.4,1151.2,997,1149.1,998.4z"
							/>
						<path class="st8" d="M1309.5,936.1c-0.8,0.7-0.9,2-0.2,2.8c0.6,0.7,1.6,0.9,2.4,0.5c0.8-0.7,0.9-2,0.2-2.8
							C1311.4,935.9,1310.3,935.7,1309.5,936.1z"/>
						<path class="st8" d="M1212.6,842.6c-0.8,0.7-0.9,2-0.2,2.8c0.6,0.7,1.6,0.9,2.4,0.5C1216.9,844.5,1214.7,841.2,1212.6,842.6z"
							/>
						<path class="st8" d="M816.3,925.7c-0.8,0.7-0.9,2-0.2,2.8c0.6,0.7,1.6,0.9,2.4,0.5C820.6,927.5,818.4,924.3,816.3,925.7z"/>
						<path class="st8" d="M1168.9,913.4c-0.8,0.7-0.9,2-0.2,2.8c0.6,0.7,1.6,0.9,2.4,0.5C1173.3,915.4,1171.1,912,1168.9,913.4z"/>
						<path class="st8" d="M1171.1,1107c-0.8,0.7-0.9,2-0.2,2.8c0.6,0.7,1.6,0.9,2.4,0.5C1175.5,1108.9,1173.3,1105.6,1171.1,1107z"
							/>
						<path class="st8" d="M957.7,1134.6c-0.8,0.7-0.9,2-0.2,2.8c0.6,0.7,1.6,0.9,2.4,0.5C961.9,1136.6,959.7,1133.2,957.7,1134.6z"
							/>
						<path class="st8" d="M1109.3,1007c-0.8,0.7-0.9,2-0.2,2.8c0.6,0.7,1.6,0.9,2.4,0.5C1113.6,1008.8,1111.5,1005.5,1109.3,1007z"
							/>
						<path class="st8" d="M992.6,1037.3c-0.8,0.7-0.9,2-0.2,2.8c0.6,0.7,1.6,0.9,2.4,0.5c0.8-0.7,0.9-2,0.2-2.8
							C994.4,1037.1,993.4,1036.9,992.6,1037.3z"/>
						<path class="st8" d="M966.5,849c-0.8,0.7-0.9,2-0.2,2.8c0.6,0.7,1.6,0.9,2.4,0.5c0.8-0.7,0.9-2,0.2-2.8
							C968.3,848.8,967.3,848.6,966.5,849z"/>
						<path class="st8" d="M1039.2,973.3c-0.8,0.7-0.9,2-0.2,2.8c0.6,0.7,1.6,0.9,2.4,0.5C1043.5,975.2,1041.3,971.8,1039.2,973.3z"
							/>
						<path class="st8" d="M1168.2,749.6c-0.8,0.7-0.9,2-0.2,2.8c0.6,0.7,1.6,0.9,2.4,0.5c0.8-0.7,0.9-2,0.2-2.8
							C1170,749.4,1169,749.2,1168.2,749.6z"/>
						<path class="st8" d="M1334.3,849c-0.8,0.7-0.9,2-0.2,2.8c0.6,0.7,1.6,0.9,2.4,0.5C1338.6,850.9,1336.4,847.6,1334.3,849z"/>
						<path class="st8" d="M1129.8,844.5c-0.8,0.7-0.9,2-0.2,2.8c0.6,0.7,1.6,0.9,2.4,0.5C1134.1,846.4,1131.9,843.2,1129.8,844.5z"
							/>
						<path class="st8" d="M979.3,712.2c-0.8,0.7-0.9,2-0.2,2.8c0.6,0.7,1.6,0.9,2.4,0.5C983.5,714.1,981.4,710.9,979.3,712.2z"/>
						<path class="st8" d="M721.3,1078.1c-0.8,0.7-0.9,2-0.2,2.8c0.6,0.7,1.6,0.9,2.4,0.5C725.6,1080,723.4,1076.7,721.3,1078.1z"/>
						<path class="st8" d="M844,1408.9c-0.8,0.7-0.9,2-0.2,2.8c0.6,0.7,1.6,0.9,2.4,0.5C848.2,1410.8,846.1,1407.5,844,1408.9z"/>
						<path class="st8" d="M1080.6,1237.8c-0.8,0.7-0.9,2-0.2,2.8c0.6,0.7,1.6,0.9,2.4,0.5
							C1084.9,1239.8,1082.7,1236.4,1080.6,1237.8z"/>
						<path class="st8" d="M946.1,1228c-0.8,0.7-0.9,2-0.2,2.8c0.6,0.7,1.6,0.9,2.4,0.5C950.4,1229.9,948.3,1226.5,946.1,1228z"/>
						<path class="st8" d="M753.9,905.6c-0.8,0.7-0.9,2-0.2,2.8c0.6,0.7,1.6,0.9,2.4,0.5c0.8-0.7,0.9-2,0.2-2.8
							C755.7,905.4,754.7,905.2,753.9,905.6z"/>
						<path class="st8" d="M934.6,976c-0.8,0.7-0.9,2-0.2,2.8c0.6,0.7,1.6,0.9,2.4,0.5C938.9,977.9,936.7,974.6,934.6,976z"/>
						<path class="st8" d="M880.4,1183.9c-0.8,0.7-0.9,2-0.2,2.8c0.6,0.7,1.6,0.9,2.4,0.5C884.7,1185.9,882.5,1182.5,880.4,1183.9z"
							/>
						<path class="st8" d="M818.4,995.8c-0.8,0.7-0.9,2-0.2,2.8c0.6,0.7,1.6,0.9,2.4,0.5C822.8,997.7,820.5,994.4,818.4,995.8z"/>
						<path class="st8" d="M802.9,1115.1c-0.8,0.7-0.9,2-0.2,2.8c0.6,0.7,1.6,0.9,2.4,0.5C807.3,1117,805.1,1113.7,802.9,1115.1z"/>
						<path class="st8" d="M618.2,1068.9c-0.8,0.7-0.9,2-0.2,2.8c0.6,0.7,1.6,0.9,2.4,0.5C622.5,1070.7,620.4,1067.4,618.2,1068.9z"
							/>
						<path class="st8" d="M760.9,1048c-0.8,0.7-0.9,2-0.2,2.8c0.6,0.7,1.6,0.9,2.4,0.5C765.2,1050,763,1046.6,760.9,1048z"/>
						<path class="st8" d="M601.4,844.9c-0.8,0.7-0.9,2-0.2,2.8c0.6,0.7,1.6,0.9,2.4,0.5C605.7,846.9,603.5,843.5,601.4,844.9z"/>
						<path class="st8" d="M755.9,728.5c-0.8,0.7-0.9,2-0.2,2.8c0.6,0.7,1.6,0.9,2.4,0.5C760.2,730.4,758,727.2,755.9,728.5z"/>
						<path class="st8" d="M675.2,916c-0.8,0.7-0.9,2-0.2,2.8c0.6,0.7,1.6,0.9,2.4,0.5C679.4,918,677.3,914.6,675.2,916z"/>
						<path class="st8" d="M1130.9,1242c-0.8,0.7-0.9,2-0.2,2.8c0.6,0.7,1.6,0.9,2.4,0.5C1135.4,1243.9,1133.1,1240.6,1130.9,1242z"
							/>
						<path class="st8" d="M1022.3,1108.8c-0.8,0.7-0.9,2-0.2,2.8c0.6,0.7,1.6,0.9,2.4,0.5
							C1026.6,1110.7,1024.4,1107.3,1022.3,1108.8z"/>
						<path class="st8" d="M962.9,1229.5c-0.8,0.7-0.9,2-0.2,2.8c0.6,0.7,1.6,0.9,2.4,0.5C967.2,1231.4,965,1228.1,962.9,1229.5z"/>
						<path class="st8" d="M1624.4,418.9c-0.8,0.7-0.9,2-0.2,2.8c0.6,0.7,1.6,0.9,2.4,0.5C1628.8,420.8,1626.6,417.5,1624.4,418.9z"
							/>
						<path class="st8" d="M1727.5,743c-0.8,0.7-0.9,2-0.2,2.8c0.6,0.7,1.6,0.9,2.4,0.5C1731.9,744.9,1729.7,741.6,1727.5,743z"/>
						<path class="st8" d="M1624.8,812.5c-0.8,0.7-0.9,2-0.2,2.8c0.6,0.7,1.6,0.9,2.4,0.5C1629.1,814.5,1626.9,811.2,1624.8,812.5z"
							/>
						<path class="st8" d="M1551.6,623.3c-0.8,0.7-0.9,2-0.2,2.8c0.6,0.7,1.6,0.9,2.4,0.5C1555.9,625.3,1553.7,621.9,1551.6,623.3z"
							/>
						<path class="st8" d="M1661.3,720c-0.8,0.7-0.9,2-0.2,2.8c0.6,0.7,1.6,0.9,2.4,0.5C1665.5,721.9,1663.4,718.7,1661.3,720z"/>
						<path class="st8" d="M1613.2,622c-0.8,0.7-0.9,2-0.2,2.8c0.6,0.7,1.6,0.9,2.4,0.5C1617.4,623.9,1615.2,620.6,1613.2,622z"/>
						<path class="st8" d="M1706.5,532.1c-0.8,0.7-0.9,2-0.2,2.8c0.6,0.7,1.6,0.9,2.4,0.5C1710.8,533.9,1708.6,530.7,1706.5,532.1z"
							/>
						<path class="st8" d="M1660,643c-0.8,0.7-0.9,2-0.2,2.8c0.6,0.7,1.6,0.9,2.4,0.5C1664.3,645,1662.1,641.7,1660,643z"/>
						<path class="st8" d="M1814.9,685.3c-0.8,0.7-0.9,2-0.2,2.8c0.6,0.7,1.6,0.9,2.4,0.5C1819.1,687.2,1817,683.9,1814.9,685.3z"/>
						<path class="st8" d="M1753.5,682.6c-0.8,0.7-0.9,2-0.2,2.8c0.6,0.7,1.6,0.9,2.4,0.5C1757.9,684.4,1755.8,681.1,1753.5,682.6z"
							/>
						<path class="st8" d="M1783.1,496.3c-0.8,0.7-0.9,2-0.2,2.8c0.6,0.7,1.6,0.9,2.4,0.5C1787.4,498.1,1785.2,494.9,1783.1,496.3z"
							/>
						<path class="st8" d="M1517,383.7c-0.8,0.7-0.9,2-0.2,2.8c0.6,0.7,1.6,0.9,2.4,0.5c0.8-0.7,0.9-2,0.2-2.8
							C1518.8,383.5,1517.8,383.3,1517,383.7z"/>
						<path class="st8" d="M1373.9,613.1c-0.8,0.7-0.9,2-0.2,2.8c0.6,0.7,1.6,0.9,2.4,0.5c0.8-0.7,0.9-2,0.2-2.8
							C1375.7,612.9,1374.7,612.7,1373.9,613.1z"/>
						<path class="st8" d="M1427,748.8c-0.8,0.7-0.9,2-0.2,2.8c0.6,0.7,1.6,0.9,2.4,0.5C1431.3,750.8,1429.1,747.5,1427,748.8z"/>
						<path class="st8" d="M1530.1,773.9c-0.8,0.7-0.9,2-0.2,2.8c0.6,0.7,1.6,0.9,2.4,0.5C1534.4,775.8,1532.2,772.5,1530.1,773.9z"
							/>
						<path class="st8" d="M1498.6,645.2c-0.8,0.7-0.9,2-0.2,2.8c0.6,0.7,1.6,0.9,2.4,0.5c0.8-0.7,0.9-2,0.2-2.8
							C1500.4,645,1499.4,644.8,1498.6,645.2z"/>
						<g class="st9">
							<path class="st8" d="M1359.6,857c-0.8,0.7-0.9,2-0.2,2.8c0.6,0.7,1.6,0.9,2.4,0.5C1363.8,858.9,1361.7,855.6,1359.6,857z"/>
							<path class="st8" d="M1099.5,1158.5c-0.8,0.7-0.9,2-0.2,2.8c0.6,0.7,1.6,0.9,2.4,0.5
								C1103.8,1160.5,1101.6,1157.1,1099.5,1158.5z"/>
							<path class="st8" d="M1122.7,944.9c-0.8,0.7-0.9,2-0.2,2.8c0.6,0.7,1.6,0.9,2.4,0.5C1127,946.8,1124.8,943.5,1122.7,944.9z"
								/>
							<path class="st8" d="M1211.5,1122c-0.8,0.7-0.9,2-0.2,2.8c0.6,0.7,1.6,0.9,2.4,0.5C1215.8,1124,1213.6,1120.7,1211.5,1122z"
								/>
							<path class="st8" d="M1209.3,1001.8c-0.8,0.7-0.9,2-0.2,2.8c0.6,0.7,1.6,0.9,2.4,0.5c0.8-0.7,0.9-2,0.2-2.8
								C1211.1,1001.6,1210.1,1001.4,1209.3,1001.8z"/>
							<path class="st8" d="M1398.8,1020.6c-0.8,0.7-0.9,2-0.2,2.8c0.6,0.7,1.6,0.9,2.4,0.5
								C1403.2,1022.6,1401,1019.3,1398.8,1020.6z"/>
							<path class="st8" d="M1260.6,1062c-0.8,0.7-0.9,2-0.2,2.8c0.6,0.7,1.6,0.9,2.4,0.5c0.8-0.7,0.9-2,0.2-2.8
								C1262.4,1061.8,1261.4,1061.6,1260.6,1062z"/>
							<path class="st8" d="M1233.3,729.1c-0.8,0.7-0.9,2-0.2,2.8c0.6,0.7,1.6,0.9,2.4,0.5C1237.6,731,1235.5,727.6,1233.3,729.1z"
								/>
							<path class="st8" d="M882.2,770.2c-0.8,0.7-0.9,2-0.2,2.8c0.6,0.7,1.6,0.9,2.4,0.5C886.5,772.2,884.3,768.9,882.2,770.2z"/>
							<path class="st8" d="M866.3,924c-0.8,0.7-0.9,2-0.2,2.8c0.6,0.7,1.6,0.9,2.4,0.5C870.6,925.9,868.4,922.6,866.3,924z"/>
							<path class="st8" d="M993.2,1040c-0.8,0.7-0.9,2-0.2,2.8c0.6,0.7,1.6,0.9,2.4,0.5c0.8-0.7,0.9-2,0.2-2.8
								C995,1039.8,994,1039.6,993.2,1040z"/>
							<path class="st8" d="M1034.4,911.9c-0.8,0.7-0.9,2-0.2,2.8c0.6,0.7,1.6,0.9,2.4,0.5c0.8-0.7,0.9-2,0.2-2.8
								C1036.2,911.7,1035.2,911.5,1034.4,911.9z"/>
						</g>
					</g>
				</g>
				<g id="stars-8">
					<g id="stars-9">
						<path class="st8" d="M2608.4,617.7c-1.1-0.1-2.1,0.7-2.2,1.8s0.7,2.1,1.8,2.2C2610.5,621.8,2610.9,617.9,2608.4,617.7z"/>
						<path class="st8" d="M2690.9,960c-1.1-0.1-2.1,0.7-2.2,1.8s0.7,2.1,1.8,2.2C2693.2,964.2,2693.5,960.2,2690.9,960z"/>
						<path class="st8" d="M2501.2,1000.8c-1.1-0.1-2.1,0.7-2.2,1.8s0.7,2.1,1.8,2.2C2503.4,1005.1,2503.8,1001.1,2501.2,1000.8z"/>
						<path class="st8" d="M2431.4,797.6c-1.1-0.1-2.1,0.7-2.2,1.8s0.7,2.1,1.8,2.2s2.1-0.7,2.2-1.8S2432.5,797.7,2431.4,797.6z"/>
						<path class="st8" d="M2587.1,920.4c-1.1-0.1-2.1,0.7-2.2,1.8s0.7,2.1,1.8,2.2C2589.3,924.6,2589.7,920.6,2587.1,920.4z"/>
						<path class="st8" d="M2534.1,812.4c-1.1-0.1-2.1,0.7-2.2,1.8s0.7,2.1,1.8,2.2C2536.2,816.6,2536.6,812.6,2534.1,812.4z"/>
						<path class="st8" d="M2713.6,749.2c-1.1-0.1-2.1,0.7-2.2,1.8s0.7,2.1,1.8,2.2C2715.8,753.5,2716.2,749.4,2713.6,749.2z"/>
						<path class="st8" d="M2606.2,845.1c-1.1-0.1-2.1,0.7-2.2,1.8s0.7,2.1,1.8,2.2l0,0C2608.4,849.3,2608.8,845.3,2606.2,845.1z"/>
						<path class="st8" d="M2851.7,926.5c-1.1-0.1-2.1,0.7-2.2,1.8c-0.1,1.1,0.7,2.1,1.8,2.2
							C2853.8,930.7,2854.2,926.7,2851.7,926.5z"/>
						<path class="st8" d="M2787.2,1108.7c-1.1-0.1-2.1,0.7-2.2,1.8s0.7,2.1,1.8,2.2C2789.4,1113,2789.8,1108.9,2787.2,1108.7z"/>
						<path class="st8" d="M2750.7,907.9c-1.1-0.1-2.1,0.7-2.2,1.8s0.7,2.1,1.8,2.2s2.1-0.7,2.2-1.8S2751.8,908,2750.7,907.9z"/>
						<path class="st8" d="M2850.5,734.3c-1.1-0.1-2.1,0.7-2.2,1.8s0.7,2.1,1.8,2.2C2852.8,738.4,2853.1,734.5,2850.5,734.3z"/>
						<path class="st8" d="M2439.6,555.4c-1.1-0.1-2.1,0.7-2.2,1.8s0.7,2.1,1.8,2.2C2441.8,559.6,2442.2,555.6,2439.6,555.4z"/>
						<path class="st8" d="M2139.3,741.4c-1.1-0.1-2.1,0.7-2.2,1.8s0.7,2.1,1.8,2.2s2.1-0.7,2.2-1.8S2140.4,741.5,2139.3,741.4z"/>
						<path class="st8" d="M2190.3,887.3c-1.1-0.1-2.1,0.7-2.2,1.8s0.7,2.1,1.8,2.2C2192.5,891.5,2192.9,887.5,2190.3,887.3z"/>
						<path class="st8" d="M2354.7,938.5c-1.1-0.1-2.1,0.7-2.2,1.8s0.7,2.1,1.8,2.2l0,0c1.1,0.1,2.1-0.7,2.2-1.8
							S2355.8,938.6,2354.7,938.5z"/>
						<path class="st8" d="M2337.5,805.1c-1.1-0.1-2.1,0.7-2.2,1.8s0.7,2.1,1.8,2.2C2339.6,809.3,2340,805.3,2337.5,805.1z"/>
						<path class="st8" d="M1975.7,623.3c-1.1-0.1-2.1,0.7-2.2,1.8s0.7,2.1,1.8,2.2c1.1,0.1,2.1-0.7,2.2-1.8
							S1976.8,623.4,1975.7,623.3z"/>
						<path class="st8" d="M2259,833.2c-1.1-0.1-2.1,0.7-2.2,1.8c-0.1,1.1,0.7,2.1,1.8,2.2l0,0
							C2261.2,837.5,2261.6,833.5,2259,833.2z"/>
						<path class="st8" d="M2139.7,985.9c-1.1-0.1-2.1,0.7-2.2,1.8s0.7,2.1,1.8,2.2C2141.9,990.1,2142.2,986.1,2139.7,985.9z"/>
						<path class="st8" d="M1955.6,874.5c-1.1-0.1-2.1,0.7-2.2,1.8s0.7,2.1,1.8,2.2l0,0C1957.7,878.7,1958.1,874.8,1955.6,874.5z"/>
						<path class="st8" d="M2153.9,869.2c-1.1-0.1-2.1,0.7-2.2,1.8c-0.1,1.1,0.7,2.1,1.8,2.2
							C2156.2,873.3,2156.6,869.4,2153.9,869.2z"/>
						<path class="st8" d="M2043.8,820.2c-1.1-0.1-2.1,0.7-2.2,1.8s0.7,2.1,1.8,2.2l0,0C2046,824.5,2046.4,820.5,2043.8,820.2z"/>
						<path class="st8" d="M2141.1,656.8c-1.1-0.1-2.1,0.7-2.2,1.8s0.7,2.1,1.8,2.2C2143.3,661.1,2143.6,657.1,2141.1,656.8z"/>
						<path class="st8" d="M2120.2,799.2c-1.1-0.1-2.1,0.7-2.2,1.8s0.7,2.1,1.8,2.2C2122.5,803.5,2122.8,799.5,2120.2,799.2z"/>
						<path class="st8" d="M2360.9,704.8c-1.1-0.1-2.1,0.7-2.2,1.8s0.7,2.1,1.8,2.2C2363.1,708.9,2363.5,705,2360.9,704.8z"/>
						<path class="st8" d="M2428.6,885.8c-1.1-0.1-2.1,0.7-2.2,1.8c-0.1,1.1,0.7,2.1,1.8,2.2C2430.7,890,2431.1,886.1,2428.6,885.8z
							"/>
						<path class="st8" d="M2271.5,755.1c-1.1-0.1-2.1,0.7-2.2,1.8s0.7,2.1,1.8,2.2C2273.7,759.2,2274,755.3,2271.5,755.1z"/>
						<path class="st8" d="M2236.6,557.9c-1.1-0.1-2.1,0.7-2.2,1.8c-0.1,1.1,0.7,2.1,1.8,2.2
							C2238.7,562.1,2239.1,558.2,2236.6,557.9z"/>
						<path class="st8" d="M1806.2,683.3c-1.1-0.1-2.1,0.7-2.2,1.8s0.7,2.1,1.8,2.2C1808.5,687.5,1808.8,683.5,1806.2,683.3z"/>
						<path class="st8" d="M1695.2,1018.2c-1.1-0.1-2.1,0.7-2.2,1.8s0.7,2.1,1.8,2.2C1697.4,1022.3,1697.7,1018.4,1695.2,1018.2z"/>
						<path class="st8" d="M1987.2,1031.8c-1.1-0.1-2.1,0.7-2.2,1.8c-0.1,1.1,0.7,2.1,1.8,2.2
							C1989.3,1036,1989.7,1032,1987.2,1031.8z"/>
						<path class="st8" d="M1888.2,940.4c-1.1-0.1-2.1,0.7-2.2,1.8s0.7,2.1,1.8,2.2l0,0C1890.4,944.6,1890.9,940.6,1888.2,940.4z"/>
						<path class="st8" d="M1939.6,568.8c-1.1-0.1-2.1,0.7-2.2,1.8s0.7,2.1,1.8,2.2l0,0C1941.8,572.9,1942.2,569,1939.6,568.8z"/>
						<path class="st8" d="M2036.8,736.3c-1.1-0.1-2.1,0.7-2.2,1.8s0.7,2.1,1.8,2.2C2039,740.5,2039.4,736.5,2036.8,736.3z"/>
						<path class="st8" d="M1864.4,865c-1.1-0.1-2.1,0.7-2.2,1.8s0.7,2.1,1.8,2.2l0,0C1866.5,869.2,1866.9,865.2,1864.4,865z"/>
						<path class="st8" d="M1933.6,679.4c-1.1-0.1-2.1,0.7-2.2,1.8s0.7,2.1,1.8,2.2C1935.9,683.6,1936.2,679.6,1933.6,679.4z"/>
						<path class="st8" d="M1846.9,763c-1.1-0.1-2.1,0.7-2.2,1.8s0.7,2.1,1.8,2.2c1.1,0.1,2.1-0.7,2.2-1.8
							C1848.8,764.1,1848,763.1,1846.9,763z"/>
						<path class="st8" d="M1731.5,611.9c-1.1-0.1-2.1,0.7-2.2,1.8s0.7,2.1,1.8,2.2C1733.7,616,1734,612.1,1731.5,611.9z"/>
						<path class="st8" d="M1856,684.4c-1.1-0.1-2.1,0.7-2.2,1.8s0.7,2.1,1.8,2.2C1858.2,688.7,1858.5,684.7,1856,684.4z"/>
						<path class="st8" d="M1858.4,426.4c-1.1-0.1-2.1,0.7-2.2,1.8c-0.1,1.1,0.7,2.1,1.8,2.2
							C1860.5,430.6,1860.8,426.6,1858.4,426.4z"/>
						<path class="st8" d="M2051.9,431.7c-1.1-0.1-2.1,0.7-2.2,1.8c-0.1,1.1,0.7,2.1,1.8,2.2l0,0
							C2054,435.8,2054.4,431.9,2051.9,431.7z"/>
						<path class="st8" d="M1871.5,527.9c-1.1-0.1-2.1,0.7-2.2,1.8s0.7,2.1,1.8,2.2l0,0C1873.7,532.1,1874.1,528.1,1871.5,527.9z"/>
						<path class="st8" d="M2023.9,1066.4c-1.1-0.1-2.1,0.7-2.2,1.8c-0.1,1.1,0.7,2.1,1.8,2.2
							C2026.1,1070.7,2026.5,1066.6,2023.9,1066.4z"/>
						<path class="st8" d="M2022.3,894.6c-1.1-0.1-2.1,0.7-2.2,1.8s0.7,2.1,1.8,2.2C2024.5,898.9,2024.9,894.8,2022.3,894.6z"/>
						<path class="st8" d="M1900.4,951.9c-1.1-0.1-2.1,0.7-2.2,1.8s0.7,2.1,1.8,2.2C1902.5,956.1,1902.9,952.1,1900.4,951.9z"/>
						<path class="st8" d="M2924.2,730.3c-1.1-0.1-2.1,0.7-2.2,1.8s0.7,2.1,1.8,2.2C2926.4,734.6,2926.8,730.6,2924.2,730.3z"/>
						<path class="st8" d="M2802.1,1047.8c-1.1-0.1-2.1,0.7-2.2,1.8s0.7,2.1,1.8,2.2l0,0C2804.3,1052.1,2804.7,1048,2802.1,1047.8z"
							/>
						<path class="st8" d="M2678.3,1038.2c-1.1-0.1-2.1,0.7-2.2,1.8c-0.1,1.1,0.7,2.1,1.8,2.2l0,0
							C2680.5,1042.4,2680.8,1038.4,2678.3,1038.2z"/>
						<path class="st8" d="M2739.5,844.7c-1.1-0.1-2.1,0.7-2.2,1.8s0.7,2.1,1.8,2.2l0,0C2741.6,848.9,2742.1,845,2739.5,844.7z"/>
						<path class="st8" d="M2764.7,988.6c-1.1-0.1-2.1,0.7-2.2,1.8s0.7,2.1,1.8,2.2C2766.9,992.8,2767.2,988.9,2764.7,988.6z"/>
						<path class="st8" d="M2788.5,882.1c-1.1-0.1-2.1,0.7-2.2,1.8s0.7,2.1,1.8,2.2C2790.6,886.2,2791,882.3,2788.5,882.1z"/>
						<path class="st8" d="M2917.6,869.9c-1.1-0.1-2.1,0.7-2.2,1.8s0.7,2.1,1.8,2.2C2919.9,874,2920.2,870.1,2917.6,869.9z"/>
						<path class="st8" d="M2811.9,927.7c-1.1-0.1-2.1,0.7-2.2,1.8s0.7,2.1,1.8,2.2C2814,931.9,2814.4,927.9,2811.9,927.7z"/>
						<path class="st8" d="M2906.5,1057.1c-1.1-0.1-2.1,0.7-2.2,1.8s0.7,2.1,1.8,2.2l0,0C2908.6,1061.2,2908.9,1057.3,2906.5,1057.1
							z"/>
						<path class="st8" d="M2860.2,1016.8c-1.1-0.1-2.1,0.7-2.2,1.8s0.7,2.1,1.8,2.2C2862.5,1020.9,2862.8,1017,2860.2,1016.8z"/>
						<path class="st8" d="M2999.9,889.6c-1.1-0.1-2.1,0.7-2.2,1.8s0.7,2.1,1.8,2.2C3002.1,893.7,3002.5,889.8,2999.9,889.6z"/>
						<path class="st8" d="M2862.3,636c-1.1-0.1-2.1,0.7-2.2,1.8s0.7,2.1,1.8,2.2C2864.5,640.1,2864.9,636.2,2862.3,636z"/>
						<path class="st8" d="M2607.1,726.2c-1.1-0.1-2.1,0.7-2.2,1.8s0.7,2.1,1.8,2.2C2609.3,730.4,2609.7,726.4,2607.1,726.2z"/>
						<path class="st8" d="M2563.7,865.3c-1.1-0.1-2.1,0.7-2.2,1.8s0.7,2.1,1.8,2.2C2565.8,869.5,2566.2,865.5,2563.7,865.3z"/>
						<path class="st8" d="M2628.6,949.1c-1.1-0.1-2.1,0.7-2.2,1.8s0.7,2.1,1.8,2.2l0,0C2630.7,953.2,2631.1,949.3,2628.6,949.1z"/>
						<path class="st8" d="M2684.3,828.8c-1.1-0.1-2.1,0.7-2.2,1.8s0.7,2.1,1.8,2.2c1.1,0.1,2.1-0.7,2.2-1.8
							S2685.4,828.9,2684.3,828.8z"/>
						<g class="st9">
							<path class="st8" d="M2443.3,907.8c-1.1-0.1-2.1,0.7-2.2,1.8s0.7,2.1,1.8,2.2C2445.4,911.9,2445.8,908,2443.3,907.8z"/>
							<path class="st8" d="M2051.5,981.5c-1.1-0.1-2.1,0.7-2.2,1.8s0.7,2.1,1.8,2.2l0,0C2053.6,985.7,2054,981.8,2051.5,981.5z"/>
							<path class="st8" d="M2203.3,829c-1.1-0.1-2.1,0.7-2.2,1.8s0.7,2.1,1.8,2.2C2205.4,833.2,2205.8,829.3,2203.3,829z"/>
							<path class="st8" d="M2161.9,1022.8c-1.1-0.1-2.1,0.7-2.2,1.8c-0.1,1.1,0.7,2.1,1.8,2.2C2164,1027,2164.4,1023,2161.9,1022.8
								L2161.9,1022.8z"/>
							<path class="st8" d="M2235.3,927.5c-1.1-0.1-2.1,0.7-2.2,1.8c-0.1,1.1,0.7,2.1,1.8,2.2
								C2237.5,931.6,2237.9,927.7,2235.3,927.5z"/>
							<path class="st8" d="M2371.6,1060.2c-1.1-0.1-2.1,0.7-2.2,1.8s0.7,2.1,1.8,2.2C2373.8,1064.4,2374.1,1060.4,2371.6,1060.2z"
								/>
							<path class="st8" d="M2237.8,1006.4c-1.1-0.1-2.1,0.7-2.2,1.8s0.7,2.1,1.8,2.2C2240,1010.7,2240.4,1006.7,2237.8,1006.4z"/>
							<path class="st8" d="M2424.6,729.2c-1.1-0.1-2.1,0.7-2.2,1.8c-0.1,1.1,0.7,2.1,1.8,2.2s2.1-0.7,2.2-1.8
								C2426.5,730.3,2425.7,729.3,2424.6,729.2z"/>
							<path class="st8" d="M2124.5,542.8c-1.1-0.1-2.1,0.7-2.2,1.8s0.7,2.1,1.8,2.2C2126.6,547.1,2127,543.1,2124.5,542.8z"/>
							<path class="st8" d="M2015.9,653.1c-1.1-0.1-2.1,0.7-2.2,1.8s0.7,2.1,1.8,2.2C2018,657.2,2018.4,653.3,2015.9,653.1z"/>
							<path class="st8" d="M2042.6,822.7c-1.1-0.1-2.1,0.7-2.2,1.8s0.7,2.1,1.8,2.2C2044.8,827,2045.2,823,2042.6,822.7z"/>
							<path class="st8" d="M2154.9,748.3c-1.1-0.1-2.1,0.7-2.2,1.8s0.7,2.1,1.8,2.2C2157.2,752.5,2157.5,748.5,2154.9,748.3z"/>
						</g>
					</g>
				</g>
			</g>
			<path class="st10" d="M1638.7,1211c0,0,91.9,62.5,227.8,62.5s221.2-62.5,221.2-62.5"/>
			<path class="st10" d="M1189.7,1211c0,0,91.9,62.5,227.8,62.5s221.2-62.5,221.2-62.5"/>
			<path class="st10" d="M2087.7,1211c0,0,91.9,62.5,227.8,62.5c135.9,0,221.2-62.5,221.2-62.5"/>
			<path class="st10" d="M2536.7,1211c0,0,91.9,62.5,227.8,62.5c135.9,0,221.2-62.5,221.2-62.5"/>
		</g>
	</g>
</g>
<path class="st10" d="M743.1,1212.3c0,0,91.9,62.5,227.8,62.5s221.2-62.5,221.2-62.5"/>
<g id="left_screen">
	<g id="Layer_16">
	</g>
	<g id="Layer_13">
	</g>
	<rect x="269.8" y="1348.6" class="st11" width="537" height="376.9"/>
	<rect x="188.8" y="1290" class="st12" width="700" height="46.7"/>
	<g id="roof">
		<g>
			<path class="st13" d="M275.3,1097.4c1.2,7.8,1.8,15.7,1.8,23.8c0,73.9-50.1,136-118.1,154.4h386v-178.2L275.3,1097.4
				L275.3,1097.4z"/>
			<rect x="256.1" y="1083" class="st14" width="288.9" height="14.4"/>
			<rect x="118.8" y="1275.6" class="st14" width="426.2" height="14.4"/>
		</g>
		<g>
			<path class="st13" d="M814.6,1097.4c-1.2,7.8-1.8,15.7-1.8,23.8c0,73.9,50.1,136,118.1,154.4h-386v-178.2L814.6,1097.4
				L814.6,1097.4z"/>
			<rect x="545" y="1083" class="st14" width="288.9" height="14.4"/>
			<rect x="544.9" y="1275.6" class="st14" width="426.2" height="14.4"/>
		</g>
	</g>
	<g id="Layer_14">
	</g>
	<g id="daughter">
		<g>
			<path class="st15" d="M590.9,1526.7v-6.8c0-19.3,15.8-35.2,35.2-35.2h12.8c19.3,0,35.2,15.8,35.2,35.2v6.8c2,1,3.5,3.5,3.5,6.5
				c0,3.8-2.3,6.9-5.2,6.9l0,0c-4.6,14-17.9,24.2-33.4,24.2h-12.8c-15.5,0-28.8-10.2-33.4-24.2l0,0c-2.9,0-5.2-3.1-5.2-6.9
				C587.5,1530.2,588.9,1527.6,590.9,1526.7z"/>
			<path class="st16" d="M590.9,1532c-0.8,0.2-1.1,1.4-0.8,2.7s1.2,2.2,2,2S591.7,1531.8,590.9,1532z"/>
			<path class="st16" d="M674.4,1532c0.8,0.2,1.1,1.4,0.8,2.7c-0.3,1.3-1.2,2.2-2,2S673.6,1531.8,674.4,1532z"/>
			<g>
				<path class="st17" d="M624.8,1550.9c0-0.5,0.4-0.8,0.8-0.9l0,0c0.5,0,0.8,0.4,0.9,0.8c0,0.1,0.2,2.6,6.1,2.6
					c5.8,0,6-2.5,6.1-2.6c0-0.5,0.4-0.8,0.9-0.8s0.9,0.4,0.9,0.9c0,0.2-0.1,4.3-7.8,4.3S624.8,1551,624.8,1550.9z M638.6,1550.9
					L638.6,1550.9L638.6,1550.9z"/>
			</g>
			<path class="st18" d="M602.8,1529.8c0,6.2,5,11.3,11.3,11.3c6.2,0,11.3-5,11.3-11.3c0-0.7-0.1-1.3-0.2-2c1.7-1.6,4-2.6,6.5-2.6
				c2.3,0,4.4,0.8,6,2.2c-0.2,0.8-0.3,1.6-0.3,2.4c0,6.2,5,11.3,11.3,11.3s11.3-5,11.3-11.3c0-6.2-5-11.3-11.3-11.3
				c-4.7,0-8.8,3-10.5,7.1c-1.9-1.3-4.1-2.1-6.6-2.1c-2.6,0-5.1,0.9-7,2.5c-1.6-4.3-5.7-7.4-10.6-7.4
				C607.8,1518.6,602.8,1523.6,602.8,1529.8z M639.1,1529.8c0-5.3,4.3-9.5,9.5-9.5s9.5,4.3,9.5,9.5s-4.3,9.5-9.5,9.5
				S639.1,1535.1,639.1,1529.8z M604.5,1529.8c0-5.3,4.3-9.5,9.5-9.5c5.3,0,9.5,4.3,9.5,9.5s-4.3,9.5-9.5,9.5
				S604.5,1535.1,604.5,1529.8z"/>
			<path class="st17" d="M657.1,1514.7c0,0-7.3-2.4-11.4-0.9c-4.1,1.4-4.9,2.4-4.9,2.4"/>
			<path class="st17" d="M605.9,1514.7c0,0,7.3-2.4,11.4-0.9s4.9,2.4,4.9,2.4"/>
		</g>
		<path class="st17" d="M673.9,1526.7l0.1-6.8c0-19.3-15.8-35.2-35.2-35.2H626c-19.3,0-35.2,15.8-35.2,35.2v6.8l41.8-22.7
			L673.9,1526.7z"/>
		<path class="st17" d="M669,1515.4c0,0,16.9,1.8,21.3,10.7c2.7,5.5-4.8,10.6-4.3,17.8c0.3,3.6,6,7.9,9.2,12.8
			c4.9,7.4-2.8,10.7-17,19.2c-1.8,1.1,14.9-14.9,9.2-19.9c-11.1-9.7-6.5-20.3-2.8-27C689.4,1520,669,1515.4,669,1515.4z"/>
		<path class="st17" d="M595.2,1511.1c0,0-16.9,1.8-21.3,10.7c-2.7,5.5,4.8,10.6,4.3,17.8c-0.3,3.6-6,7.9-9.2,12.8
			c-4.9,7.4,2.8,10.7,17,19.2c1.8,1.1-14.9-14.9-9.2-19.9c11.1-9.7,6.5-20.3,2.8-27C574.7,1515.8,595.2,1511.1,595.2,1511.1z"/>
		<circle cx="613.6" cy="1530.3" r="4.3"/>
		<circle cx="649.1" cy="1530.3" r="4.3"/>
		<circle class="st19" cx="604.3" cy="1545.9" r="4.3"/>
		<polygon class="st17" points="661.7,1639.7 603.3,1640.8 601.1,1571.3 665,1571.3 		"/>
		<circle class="st19" cx="656.9" cy="1545.9" r="4.3"/>
		<path class="st15" d="M651.5,1571.3h-10.1v-12.4h-15.6v12.3h-9c0,0.2,0,0.4,0,0.6c0,8.4,7.8,15.1,17.4,15.1s17.4-6.8,17.4-15.1
			C651.6,1571.6,651.5,1571.5,651.5,1571.3z"/>
		<polygon class="st15" points="680.8,1611 671.2,1612.7 663.2,1580.7 673.9,1578 		"/>
		<polygon class="st15" points="584.8,1611.2 576.3,1604.8 588.2,1574 598.5,1578 		"/>
		<path class="st17" d="M676.5,1599.4l-5.6,1.4c-3.5,0.9-7.2-1.3-8-4.8l-4.4-17.6c-0.9-3.5,1.3-7.2,4.8-8l5.6-1.4
			c3.5-0.9,7.2,1.3,8,4.8l4.4,17.6C682.2,1594.9,680,1598.6,676.5,1599.4z"/>
		<path class="st17" d="M582.4,1595.6l5.2,2.6c3.3,1.6,7.3,0.3,8.9-3l8.1-16.2c1.6-3.3,0.3-7.3-3-8.9l-5.2-2.6
			c-3.3-1.6-7.3-0.3-8.9,3l-8.1,16.2C577.8,1590,579.1,1594,582.4,1595.6z"/>
		<polygon class="st20" points="605.6,1571.3 615.7,1571.3 621.9,1618.7 611.9,1619.9 		"/>
		<polygon class="st20" points="663.4,1571.3 653.3,1571.3 647.1,1618.7 657.1,1619.9 		"/>
		<path class="st20" d="M601.8,1620c2-20,17.1-25.2,32.9-25.2s24.6,9.4,27.1,24.7c6,36.5-12.8,28-28.7,28S599.4,1644.3,601.8,1620z"
			/>
		<path class="st15" d="M670.1,1606.2l-23.8,12.2l0.5,3.6c0,0,30.8-3.9,33.3-8.7c2.5-4.8-0.1-5.7-2.1-8.7
			C675.3,1600.8,670.2,1604.9,670.1,1606.2z"/>
		<path class="st15" d="M586.1,1600.5l23.7,9.5l-2,5c0,0-25.9-1.4-29.5-5.3s-1.3-5.5-0.1-8.8
			C579.7,1596.5,585.6,1599.3,586.1,1600.5z"/>
	</g>
	<g>
		<g>
			
				<linearGradient id="SVGID_8_" gradientUnits="userSpaceOnUse" x1="616.1473" y1="1903.95" x2="655.7473" y2="1903.95" gradientTransform="matrix(1 0 0 -1 0 3514)">
				<stop  offset="0" style="stop-color:#787878"/>
				<stop  offset="1" style="stop-color:#FFFFFF"/>
			</linearGradient>
			<path class="st21" d="M636.3,1606c-9.2-0.1-14.7-0.2-20.2-5.9c0,0,0,0,0,0.1c0,10.9,8.9,19.8,19.8,19.8
				c10.9,0,19.8-8.9,19.8-19.8c0,0,0,0,0-0.1C651.5,1605.6,645.3,1606.1,636.3,1606z"/>
		</g>
		<ellipse class="st22" cx="636" cy="1601.7" rx="19.8" ry="8.7"/>
		<ellipse class="st23" cx="635.9" cy="1605.8" rx="17.6" ry="4.7"/>
		
			<radialGradient id="SVGID_9_" cx="629.1315" cy="1912.0911" r="4.9249" gradientTransform="matrix(1 0 0 -1 0 3514)" gradientUnits="userSpaceOnUse">
			<stop  offset="0" style="stop-color:#F7931E"/>
			<stop  offset="1" style="stop-color:#FFFFFF"/>
		</radialGradient>
		<path class="st24" d="M629.1,1606.4c2.3,0,4.3-1,5.2-2.3c0.1-0.4,0.2-0.8,0.2-1.2c0-3-2.4-5.3-5.3-5.3s-5.3,2.4-5.3,5.3
			c0,0.4,0.1,0.8,0.2,1.2C624.9,1605.4,626.9,1606.4,629.1,1606.4z"/>
		
			<radialGradient id="SVGID_10_" cx="642.8351" cy="1911.8113" r="4.9248" gradientTransform="matrix(1 0 0 -1 0 3514)" gradientUnits="userSpaceOnUse">
			<stop  offset="0" style="stop-color:#39B54A"/>
			<stop  offset="1" style="stop-color:#FFFFFF"/>
		</radialGradient>
		<path class="st25" d="M642.9,1606.7c2.3,0,4.3-1,5.2-2.3c0.1-0.4,0.2-0.8,0.2-1.2c0-3-2.4-5.3-5.3-5.3s-5.3,2.4-5.3,5.3
			c0,0.4,0.1,0.8,0.2,1.2C638.6,1605.7,640.6,1606.7,642.9,1606.7z"/>
		
			<radialGradient id="SVGID_11_" cx="637.1274" cy="1909.6758" r="4.9203" gradientTransform="matrix(1 0 0 -1 0 3514)" gradientUnits="userSpaceOnUse">
			<stop  offset="0" style="stop-color:#FDF65C"/>
			<stop  offset="1" style="stop-color:#FFFFFF"/>
		</radialGradient>
		<path class="st26" d="M637.1,1608.8c2.3,0,4.3-1,5.2-2.3c0.1-0.4,0.2-0.8,0.2-1.2c0-3-2.4-5.3-5.3-5.3s-5.3,2.4-5.3,5.3
			c0,0.4,0.1,0.8,0.2,1.2C632.9,1607.9,634.9,1608.8,637.1,1608.8z"/>
	</g>
	<g id="dad">
		<g>
			<path class="st27" d="M485.3,1575.5c-5.8-19.8-8-29-8-29l-30.6,7.5l-35.4-3.5c0,0,0.9,3.8-4.8,23.6c-5.8,19.8-8.6,48.6-4.9,57.4
				c5,12.1,37,9.1,45.1,8.2c8.1,1,40.1,3.9,45.1-8.2C495.4,1622.7,491.1,1595.3,485.3,1575.5z"/>
			<path class="st27" d="M410.3,1560.5l1-10l-31,24c0,0-3,7.7-3,11c0,4.5,26.4,29,26.4,29l12.9-18.8l-21.2-8.2c-4.6-1.9-4-8.1,0-11
				L410.3,1560.5z"/>
			<path class="st28" d="M491.3,1599.8c4.2,5.8-1.4,15-11.9,19c-9.8,3.8-19.9,2.4-22.3-2.6s7.2-2.3,16.7-6.9
				C483.2,1604.8,488.1,1595.3,491.3,1599.8z"/>
			<g>
				<path class="st28" d="M500,1503.8v-9.5c0-27-22.1-49-49-49h-17.8c-27,0-49,22.1-49,49v9.5c-2.8,1.3-4.8,4.9-4.8,9.1
					c0,5.3,3.2,9.7,7.2,9.7c0,0,0,0,0.1,0c6.4,19.6,24.9,33.8,46.5,33.8H451c21.6,0,40.1-14.2,46.5-33.8c0,0,0,0,0.1,0
					c4,0,7.2-4.3,7.2-9.7C504.8,1508.6,502.8,1505.1,500,1503.8z"/>
				<path class="st29" d="M499.9,1507.7c-0.7-1.1,2,2,2,4.9c0,3-4,6.8-3,5.9C499.6,1518,500.7,1509.1,499.9,1507.7z"/>
				<path class="st30" d="M451,1445.3h-17.8c-10,0-20.1,0-34.5,9.7c-15,5-14.5,22.4-14.5,39.4v13c0,1.1,9.6-5.1,9.7-4.1
					c1-15.7,9.7-29,14.5-33.8c9.7,4.8,14.2,0,24.1,0c0,0,0,4.8,19.3,9.7c19.3,4.8,46.4,5.9,48.1,31.4c0.1-1.1,0.2-2.1,0.2-3.2v-13
					C500,1467.3,477.9,1445.3,451,1445.3z"/>
				<path class="st29" d="M383.9,1508.7c0.7-1.1-2,2-2,4.9s5.1,6.8,4.1,5.9C385.3,1519,383.1,1510.1,383.9,1508.7z"/>
				<ellipse class="st31" cx="417.7" cy="1508.1" rx="5.5" ry="6"/>
				<ellipse cx="419.9" cy="1508.1" rx="3.3" ry="3.7"/>
				<ellipse class="st31" cx="468.2" cy="1507.5" rx="5.5" ry="6"/>
				<ellipse cx="470" cy="1507.5" rx="3.7" ry="3.7"/>
				<ellipse cx="419.5" cy="1508.1" rx="3.7" ry="3.7"/>
				<path class="st18" d="M467.8,1492.4c-6.8,0-12.5,4.3-14.7,10.4c-2.7-2.1-6.1-3.4-9.8-3.4c-3.4,0-6.6,1.1-9.2,3
					c-2.3-5.8-8-9.9-14.6-9.9c-8.6,0-15.7,7-15.7,15.7c0,8.6,7,15.7,15.7,15.7c8.6,0,15.7-7,15.7-15.7c0-1.1-0.1-2.2-0.4-3.3
					c2.3-1.9,5.2-3,8.4-3c3.5,0,6.7,1.4,9.1,3.6c-0.2,0.9-0.3,1.8-0.3,2.7c0,8.6,7,15.7,15.7,15.7c8.6,0,15.7-7,15.7-15.7
					C483.5,1499.5,476.4,1492.4,467.8,1492.4z M419.5,1521.4c-7.3,0-13.3-6-13.3-13.3s6-13.3,13.3-13.3s13.3,6,13.3,13.3
					S426.8,1521.4,419.5,1521.4z M467.8,1521.4c-7.3,0-13.3-6-13.3-13.3s6-13.3,13.3-13.3s13.3,6,13.3,13.3
					S475.1,1521.4,467.8,1521.4z"/>
				<path d="M407.8,1487c0,0,10.2-3.3,15.9-1.3c5.7,2,6.8,3.3,6.8,3.3"/>
				<path class="st29" d="M460,1535.5c0,0-12.2,3.5-18.2,3.4c-6-0.1-13.5-5.5-13.5-5.5"/>
				<path d="M479.1,1487c0,0-10.2-3.3-15.9-1.3c-5.7,2-6.8,3.3-6.8,3.3"/>
			</g>
		</g>
		<path class="st28" d="M409.8,1605c0,9.1,16-2,14,3c-3.1,7.7-23.8,7.1-24-2c-0.3-12.7,15.2-8.9,19-5c4.9,5-2.1,1-6,1
			C411.4,1602,409.8,1602.1,409.8,1605z"/>
		<path class="st15" d="M610.4,1613.1c1.3,5.9,10-3.6,9.5-0.1c-0.9,5.4-14.3,8.1-15.8,2.2c-2-8.1,5.7-10.2,11.7-4.2
			c3.2,2.8-1.5,0.3-3.9-0.2C611,1610.5,610,1611.3,610.4,1613.1z"/>
		<path class="st15" d="M426.3,1610.7c-4.6-1.5-16.3-8.1-17.8-7.7c-4.7,1.1,11.6,10.1,14.7,12.4s4.6,4.6,10.8,4.6
			c6.2,0,10.1-2.7,10.1-5c0-2.2-6.3-4-9.9-3.5C430.8,1612,426.3,1610.7,426.3,1610.7z"/>
		<path class="st15" d="M618.6,1611.9c-3.2,0.1-11.7-1.4-12.5-0.9c-2.6,1.7,9.3,3.6,11.7,4.4s3.8,1.8,7.6,0.5s5.6-3.8,5-5.3
			c-0.5-1.4-4.7-1-6.8,0C621.6,1611.7,618.6,1611.9,618.6,1611.9z"/>
		<path class="st27" d="M479.3,1556.5l-2-8c2.3-1.8,40,32,31,43c-6.5,7.9-18.1,19-18.1,19l-6.9-11c0,0,14-6,14-14
			S479.3,1556.5,479.3,1556.5z"/>
		<g>
			<g>
				
					<linearGradient id="SVGID_12_" gradientUnits="userSpaceOnUse" x1="446.1472" y1="1908.95" x2="485.7472" y2="1908.95" gradientTransform="matrix(1 0 0 -1 0 3514)">
					<stop  offset="0" style="stop-color:#787878"/>
					<stop  offset="1" style="stop-color:#FFFFFF"/>
				</linearGradient>
				<path class="st32" d="M466.3,1601c-9.2-0.1-14.7-0.2-20.2-5.9c0,0,0,0,0,0.1c0,10.9,8.9,19.8,19.8,19.8s19.8-8.9,19.8-19.8
					c0,0,0,0,0-0.1C481.5,1600.6,475.3,1601.1,466.3,1601z"/>
			</g>
			<ellipse class="st22" cx="466" cy="1596.7" rx="19.8" ry="8.7"/>
			<ellipse class="st23" cx="465.9" cy="1600.8" rx="17.6" ry="4.7"/>
			
				<radialGradient id="SVGID_13_" cx="459.1314" cy="1917.0911" r="4.925" gradientTransform="matrix(1 0 0 -1 0 3514)" gradientUnits="userSpaceOnUse">
				<stop  offset="0" style="stop-color:#F7931E"/>
				<stop  offset="1" style="stop-color:#FFFFFF"/>
			</radialGradient>
			<path class="st33" d="M459.1,1601.4c2.3,0,4.3-1,5.2-2.3c0.1-0.4,0.2-0.8,0.2-1.2c0-3-2.4-5.3-5.3-5.3s-5.3,2.4-5.3,5.3
				c0,0.4,0.1,0.8,0.2,1.2C454.9,1600.4,456.9,1601.4,459.1,1601.4z"/>
			
				<radialGradient id="SVGID_14_" cx="472.8349" cy="1916.8113" r="4.9248" gradientTransform="matrix(1 0 0 -1 0 3514)" gradientUnits="userSpaceOnUse">
				<stop  offset="0" style="stop-color:#39B54A"/>
				<stop  offset="1" style="stop-color:#FFFFFF"/>
			</radialGradient>
			<path class="st34" d="M472.9,1601.7c2.3,0,4.3-1,5.2-2.3c0.1-0.4,0.2-0.8,0.2-1.2c0-3-2.4-5.3-5.3-5.3s-5.3,2.4-5.3,5.3
				c0,0.4,0.1,0.8,0.2,1.2C468.6,1600.7,470.6,1601.7,472.9,1601.7z"/>
			
				<radialGradient id="SVGID_15_" cx="467.1273" cy="1914.6758" r="4.9203" gradientTransform="matrix(1 0 0 -1 0 3514)" gradientUnits="userSpaceOnUse">
				<stop  offset="0" style="stop-color:#FDF65C"/>
				<stop  offset="1" style="stop-color:#FFFFFF"/>
			</radialGradient>
			<path class="st35" d="M467.1,1603.8c2.3,0,4.3-1,5.2-2.3c0.1-0.4,0.2-0.8,0.2-1.2c0-3-2.4-5.3-5.3-5.3s-5.3,2.4-5.3,5.3
				c0,0.4,0.1,0.8,0.2,1.2C462.9,1602.9,464.9,1603.8,467.1,1603.8z"/>
		</g>
	</g>
	<g>
		<path class="st36" d="M692.6,1667.7h-17.3C649,1651.3,595,1640,532.7,1640s-116.2,11.3-142.6,27.7h-17.3v23.8h0.2
			c1.8,27.4,72.6,49.4,159.7,49.4s157.9-22,159.7-49.4h0.2L692.6,1667.7L692.6,1667.7z"/>
		<ellipse class="st37" cx="533.1" cy="1666.7" rx="159.7" ry="50.4"/>
	</g>
	<path class="st38" d="M204,1324.6V1750h668.8v-425.4H204z M796.8,1710.8h-512v-357.7h512V1710.8z"/>
	<path class="st15" d="M646.8,1619c0.9,4.1-1.8,6.1-8.4,5.8c-6.2-0.3-11.3-3.4-11.5-6.7c-0.1-3.3,4.7,2,10.9,1.8
		C644,1619.8,646.1,1615.8,646.8,1619z"/>
</g>
<image style="overflow:visible;" width="445" height="268" xlink:href="../references/mario.JPG"  transform="matrix(0.75 0 0 0.75 -7.875 1903)">
</image>
<image style="overflow:visible;" width="570" height="453" xlink:href="../references/il_570xN.987870868_3ekq.jpg"  transform="matrix(1 0 0 1 355.5 1903)">
</image>
<path class="st29" d="M439,1522.5c0,0,2,2,4.6,2c2.6,0,4.7-2,4.7-2l-4.2,1L439,1522.5z"/>
<polygon id="neck" class="st28" points="449,1562.3 431.5,1562.3 432.8,1547.7 447.8,1547.7 "/>
</svg>
