<?xml version="1.0" encoding="utf-8"?>
<!-- Generator: Adobe Illustrator 22.1.0, SVG Export Plug-In . SVG Version: 6.00 Build 0)  -->
<svg version="1.1" xmlns="http://www.w3.org/2000/svg" xmlns:xlink="http://www.w3.org/1999/xlink" x="0px" y="0px"
	 viewBox="0 0 151.3 169.9" style="enable-background:new 0 0 151.3 169.9;" xml:space="preserve">
<style type="text/css">
	.st0{fill:#132E54;stroke:#000000;stroke-miterlimit:10;}
	.st1{fill:#AB8959;}
	.st2{fill:#FFE8B5;}
	.st3{fill:#FFFFFF;stroke:#525252;stroke-miterlimit:10;}
	.st4{fill:#FFFFFF;}
	.st5{fill:#A1A1A1;}
	.st6{fill:#F9404A;}
	.st7{fill:#91252B;}
	.st8{fill:#A1114A;}
	.st9{fill:url(#SVGID_1_);}
</style>
<g id="Layer_2">
	<rect x="-184" y="-116" class="st0" width="590" height="458"/>
</g>
<g id="Layer_1">
	<circle class="st1" cx="113.8" cy="155.9" r="13.9"/>
	<circle class="st2" cx="113.8" cy="155.9" r="11"/>
	<circle class="st1" cx="62.6" cy="155.9" r="13.9"/>
	<circle class="st2" cx="62.6" cy="155.9" r="11"/>
	<path class="st3" d="M138.6,122c0-5.5-3.6-20.6-15-27.1c-3.6-2-6.7-3.8-11.6-6.1H67c-16.5,0-30,14.6-30,32.5s13.8,29.3,30.4,29.3
		h45C125.5,150.6,138.6,135.9,138.6,122z"/>
	<circle class="st4" cx="28.6" cy="114.8" r="13"/>
	<path class="st5" d="M28.4,124.2c-6.5-0.2-11.9-5.2-12.5-11.6c-0.1,0.6-0.2,1.2-0.2,1.8c-0.2,7.2,5.5,13.5,12.7,13.5
		c3.1,0,10,0.3,10.1-8.6c0-0.6,0.1-3.8,0-4.4C37.3,121.2,34.9,124.3,28.4,124.2z"/>
	<path class="st5" d="M118.2,103.2c-17.1,0-31-13.9-31-31c0-10.9,5.7-21,15.1-26.6c-15.4,7.6-21.7,26.1-14.1,41.5
		s26.1,21.7,41.5,14.1c0.8-0.4,1.6-0.8,2.3-1.3C127.6,102.1,122.9,103.2,118.2,103.2z"/>
	<path class="st3" d="M120.5,48.4c-0.2-3.8-1.4-7.5-3.5-10.8c-2.4-3.7-17.4-14.9-20.8-17.4c-3.4-2.5-12.5-7.6-17.5-8.1
		c-4.9-0.4-6.8,2.5-5.9,4.9c0.9,2.4,2.6,8.6,5,11.7c2.4,3.1,5.1,6.3,6.9,7.4c1.8,1.2,19.1,11.9,19.3,13c0.2,1.1,0.3,6.8,0.3,6.8
		L120.5,48.4z"/>
	<g>
		<path class="st6" d="M78.3,24.5c0,0,5.1-1.2,12.7,0.1c7.6,1.2,7.7,1.6,7.7,1.6s7,4.2,8.1,8.5C110.5,50.3,80.7,32.8,78.3,24.5z"/>
		<path class="st7" d="M106.8,34.6c-0.6-1.7-1-2.2-3.3-4.8c1.1,2.3,3.6,9.7-1.8,9.4c-1.7-0.1-7.2-1.7-11.7-3.4
			C101.3,42.7,109.5,42.7,106.8,34.6z"/>
	</g>
	<path class="st3" d="M116,42.9c-3.4,0-6.6,0.5-9.6,1.5c-1-2.5-2.4-4.9-4.3-6.9c-3-3.2-19.7-11.6-23.5-13.5
		c-3.8-1.9-13.7-5.4-18.5-4.9c-4.8,0.4-6.3,3.7-4.9,5.8c1.3,2.2,4,8.1,7,10.8c3,2.7,6.1,5.3,8.1,6.2c2,0.9,20.8,8.4,21.2,9.5
		c0.2,0.4,0.4,1.6,0.7,2.8C87.7,59.5,85,66.4,85,73.9c0,17.1,13.9,31,31,31s31-13.9,31-31C147,56.8,133.1,42.9,116,42.9z"/>
	<path class="st6" d="M65.9,29.2c0,0,5.1-1.2,12.7,0.1c7.6,1.2,7.7,1.6,7.7,1.6s7,4.2,8.1,8.5C98.2,55,68.4,37.5,65.9,29.2z"/>
	<path class="st5" d="M115.1,148.8l-43.8,0.3c-28.9,1.4-48.8-33-13.4-58.5c-17.8,5.8-26.1,32.1-18,43.9c6.1,10.4,18.1,16,26.7,16
		h48.1c12.1-2.8,15.8-9.2,19.3-14.7C129.6,141.3,123,147.5,115.1,148.8z"/>
	<path class="st6" d="M118.2,63.5c-1.7,0-3.4,0.5-4.9,1.5l4.9,7.2l-7.6-4.2c-2.3,4.2-0.8,9.4,3.4,11.8c4.2,2.3,9.4,0.8,11.8-3.4
		c2.3-4.2,0.8-9.4-3.4-11.8C121.1,63.9,119.6,63.5,118.2,63.5z"/>
	<circle class="st8" cx="121.4" cy="73.5" r="2.7"/>
	<path class="st7" d="M94.4,39.3c-0.6-1.7-1-2.2-3.3-4.8c1.1,2.3,3.6,9.7-1.8,9.4c-1.7-0.1-7.2-1.7-11.7-3.4
		C88.9,47.4,97.2,47.4,94.4,39.3z"/>
	
		<radialGradient id="SVGID_1_" cx="84.8005" cy="113.6144" r="27.1625" gradientTransform="matrix(1.3938 0 0 1.3938 -39.5479 -54.838)" gradientUnits="userSpaceOnUse">
		<stop  offset="1.562500e-02" style="stop-color:#45BBE6"/>
		<stop  offset="0.1219" style="stop-color:#4FBFE7;stop-opacity:0.8921"/>
		<stop  offset="0.3012" style="stop-color:#69C8EB;stop-opacity:0.7099"/>
		<stop  offset="0.5318" style="stop-color:#94D8F1;stop-opacity:0.4756"/>
		<stop  offset="0.8015" style="stop-color:#CFEDF9;stop-opacity:0.2016"/>
		<stop  offset="1" style="stop-color:#FFFFFF;stop-opacity:0"/>
	</radialGradient>
	<circle class="st9" cx="78.6" cy="103.5" r="37.9"/>
	<circle class="st1" cx="62.6" cy="155.9" r="3.8"/>
</g>
</svg>
