<?xml version="1.0" encoding="utf-8"?>
<!-- Generator: Adobe Illustrator 22.1.0, SVG Export Plug-In . SVG Version: 6.00 Build 0)  -->
<svg version="1.1" xmlns="http://www.w3.org/2000/svg" xmlns:xlink="http://www.w3.org/1999/xlink" x="0px" y="0px"
	 viewBox="0 0 201.7 381.2" style="enable-background:new 0 0 201.7 381.2;" xml:space="preserve">
<style type="text/css">
	.st0{fill:#1970FF;}
	.st1{fill:#3E3752;}
	.st2{fill:#008BD0;}
	.st3{fill:#FDD6AE;}
	.st4{fill:#231152;}
	.st5{fill:#F9BFBD;}
	.st6{fill:none;stroke:#000000;stroke-width:2;stroke-linejoin:round;}
	.st7{fill:#FFFFFD;}
	.st8{fill:#363636;}
	.st9{fill:#FFFFFF;}
	.st10{fill:#F97570;}
	.st11{fill:#D8D8D8;}
	.st12{fill:#D8D8D8;stroke:#5A58A6;stroke-miterlimit:10;}
	.st13{fill:#D8D8D8;stroke:#4A628C;stroke-miterlimit:10;}
	.st14{fill:#D8D8D8;stroke:#506B99;stroke-miterlimit:10;}
	.st15{fill:#D8D8D8;stroke:#000000;stroke-linecap:round;stroke-linejoin:round;}
	.st16{fill:#D8D8D8;stroke:#000000;stroke-miterlimit:10;}
	.st17{fill:#F8A586;}
	.st18{fill:#4A0E07;}
	.st19{fill:#E56F35;}
	.st20{fill:#8A88FF;}
	.st21{fill:#6968C2;}
	.st22{fill:url(#SVGID_1_);}
	.st23{fill:url(#SVGID_2_);}
	.st24{fill:#7B7E80;}
	.st25{fill:#FF7BAC;}
	.st26{fill:#B5582A;}
	.st27{fill:#E1C9A5;}
	.st28{fill:#BDA88A;}
	.st29{fill:#8C7C67;}
	.st30{fill:url(#SVGID_3_);}
	.st31{fill:url(#SVGID_4_);}
	.st32{fill:#BD2228;}
	.st33{fill:#932228;}
	.st34{fill:#B5577A;}
	.st35{fill:url(#SVGID_5_);}
	.st36{fill:#FFCFE1;}
	.st37{fill:#A550AC;}
	.st38{fill:url(#SVGID_6_);}
	.st39{fill:url(#SVGID_7_);}
	.st40{fill:url(#SVGID_8_);}
	.st41{fill:#CFEAFF;}
	.st42{fill:url(#SVGID_9_);}
	.st43{fill:url(#SVGID_10_);}
	.st44{fill:url(#SVGID_11_);}
	.st45{fill:#86BD9A;}
	.st46{fill:#74A386;}
	.st47{fill:#5E856C;}
	.st48{fill:url(#SVGID_12_);}
	.st49{fill:#2D191E;}
	.st50{fill:#0071BC;}
	.st51{fill:#FFF9F7;}
	.st52{fill:url(#SVGID_13_);}
	.st53{fill:url(#SVGID_14_);}
	.st54{fill:url(#SVGID_15_);}
	.st55{fill:url(#SVGID_16_);}
	.st56{display:none;fill:#E1C9A5;}
	.st57{fill:none;stroke:#5E856C;stroke-width:0.5;stroke-miterlimit:10;}
	.st58{fill:#D68D41;}
	.st59{fill:#A86732;}
	.st60{fill:#964548;}
	.st61{fill:#CFB33A;}
</style>
<g id="Layer_1">
	<title>Asset 3</title>
	<g id="left_foot">
		<path class="st0" d="M-154.5,204.9c0,0,21.5,29.5,29.7,58c6.4,22.3,6.6,38,9.5,49.2c10.4,1.7,11.3-0.9,11.3-0.9l1.2-50.1
			l-9.3-55.7L-154.5,204.9z"/>
	</g>
	<path id="body_1_" class="st1" d="M-142,125.1c0,0-30.3,91.1-8.5,91.6c48,7.2,50.8-2.3,49.7-28.5c-1.9-30.3-7.2-47.9-8.7-58.2
		C-111.1,119.7-142,125.1-142,125.1z"/>
	<path id="body" class="st2" d="M-145.9,125.1c0,0-30.3,91.1-8.5,91.6c48,7.2,50.8-2.3,49.7-28.5c-1.9-30.3-7.2-47.9-8.7-58.2
		c-0.4-2.5-0.9-3.4-3.9-4.4C-126.7,122.7-145.9,125.1-145.9,125.1z"/>
	<path id="hand_1_" class="st3" d="M-166.7,174.1v2.3l8.3,8.3v12.8c0,0-1,1.5-1.8,0.8c-0.9-0.7-2.4-3.2-2.4-3.2v-5.7l-1.2,12.5
		c0,0,0,2.3-0.7,3c-0.7,0.7-3.8,0-3.8,0l-2.2-2.5c0,0-5.8-0.8-6.5-1.5c-0.7-0.7-2-4.5-2-5s0-9.5,0-10.7c0-1.2,1.5-4.5,1.7-5.7
		c0.2-1.2-0.5-4.8-0.5-4.8L-166.7,174.1z"/>
	<polygon class="st3" points="-135.1,111.3 -121.3,111.3 -121.3,124.4 -135.1,128.3 	"/>
	<g id="hood">
		<path class="st1" d="M-138.7,118.9l21,0.3l0.5,6.2c0,0-28.1,1.6-32.7,12.3c-5.5,12.8-12.5,11.7-12.5,11.7s-10.5-2.6-6.5-13.4
			c1.5-4,13.6-18.3,13.6-18.3l4.2,2.6c0.4,0.3,0.9,0.5,1.4,0.6l9.4,2.5L-138.7,118.9z"/>
		<g>
			<path class="st4" d="M-154.3,135.7c-7.7,8.9-10.3,11.7-12,11.7c1.9,1.5,3.9,2,3.9,2s7,1.2,12.5-11.7
				c4.6-10.7,31.8-12.3,31.8-12.3l-8.2,0.1C-132.8,125.4-146.8,127-154.3,135.7z"/>
		</g>
	</g>
	<g id="hand">
		<path class="st1" d="M-172,181.8c-24.5,2,16.1-39.4,16.1-39.4c3.7-4.8,11.8-14.6,18.7-9.3l6,2.6c6.9,5.4-12.1,23.2-15.8,28
			l-10.5,23.3C-165,184.2-172,181.8-172,181.8z"/>
	</g>
	<polygon class="st3" points="121.1,136 141.1,136 141.1,155 121.8,155.6 	"/>
	<path class="st3" d="M-136,113.4c-18.5-2.2-23.2-5.2-32.6-16c-9.8-15.1-0.7-6-3.1-10c-2.8-4.7-3.7-3-4-10.2
		c-0.6-1-11.5-16.5-1.9-14.6c2,0.4,8.8,3.2,8.8,6.4l4.6-3.8c-2.8-25.4,3.2-27.8,30.5-27.9c20.7-0.1,10.9-12.1,18.7,2.5
		c1.7,3.2,10.7-13.2,15.6-7.2c1.9,2.3,6.5,2.8,7.7,13.8c0.4,4.9,0,22.3,4.3,24.9c3.5,2.2,4.3,8-1.6,9.7C-91,81.4-82.9,116-136,113.4
		z"/>
	
		<ellipse transform="matrix(0.9993 -3.716629e-02 3.716629e-02 0.9993 -2.9871 -4.3956)" class="st5" cx="-119.7" cy="78.1" rx="6.2" ry="4"/>
	<path class="st6" d="M-281.4,205c0,0,26.8,8.8,56.8-14.5c26.9-20.8,59,2.3,59,2.3"/>
	<ellipse class="st7" cx="-99.1" cy="65.4" rx="5.5" ry="6"/>
	<ellipse cx="-97.3" cy="65.4" rx="3.7" ry="3.7"/>
	<g>
		<path d="M-177,29.1c-13.8,28.6-8.3,51,13.2,76.3l0.1-1c0.8-5.8,3.6-11.1,7.8-15.1c4.1-3.9,8.6-8.2,8.5-8.2
			c-15.3-0.3-13.3-22,0-18.1c1.9,0.6,3.6,1.8,4.8,3.4l2,2.7c-0.3-0.7-0.6-2.6-0.4-4.6c0.1-1,1.5-5.1,2.3-6.6c1,0.7-1.7,4.4,1.8,6.8
			c6.4-18.5,32.2-11.7,34.8-23c7.3,1,1.1,13.9,1.1,13.9c1.6-0.7,6.1-5.6,6.2-14.6c0,0,3.9,2.3,5.3,11.8C-83.8-5-171.3,11.9-177,29.1
			z"/>
	</g>
	<path class="st8" d="M-166.4,305.1l-1.3,13.2c0,0,31.7,1.8,36.2,1.2l-0.8-3.3c0,0-8.8-7.2-10.7-8.5c-1.8-1.3-6.1-8.5-6.1-8.5
		l-1.4,7.8L-166.4,305.1z"/>
	<path class="st8" d="M-117.4,305.1l-1.3,13.2c0,0,31.7,1.8,36.2,1.2l-0.8-3.3c0,0-8.8-7.2-10.7-8.5c-1.8-1.3-6.1-8.5-6.1-8.5
		l-1.4,7.8L-117.4,305.1z"/>
	<polygon class="st9" points="-171.3,321.4 -135.2,321.4 -135.2,318.9 -169.8,317.9 -171.3,317.8 	"/>
	<polygon class="st9" points="-118.7,322.2 -82.5,322.2 -82.5,319.7 -117.2,318.6 -118.7,318.5 	"/>
	
		<image style="overflow:visible;" width="600" height="277" xlink:href="../references/millennial-character-various-poses-front-600w-768400141.jpg"  transform="matrix(0.2408 0 0 0.2408 -24.7692 562.6667)">
	</image>
	
		<image style="overflow:visible;" width="1299" height="1300" xlink:href="../references/69364555-standing-young-man-boy-character-in-front-back-side-view-in-casual-clothes-vector-set-guy-stand-side.jpg"  transform="matrix(-0.333 0 0 0.333 -154.7564 429.4129)">
	</image>
	<polygon class="st1" points="-108.9,219.9 -107.7,214.3 -160.1,213.1 -159.5,219 	"/>
	<path class="st10" d="M-101.3,89.5c0,0-0.6,6,9.3,6c0.9-2,1.4-4,1.8-5.8c-0.1,0-0.1,0-0.2,0C-98.8,90.9-101.3,89.5-101.3,89.5z"/>
	<g id="Layer_2_1_">
		<g id="grandma">
			
				<ellipse transform="matrix(0.9289 -0.3702 0.3702 0.9289 -45.1011 177.7079)" class="st11" cx="440.4" cy="206.3" rx="21" ry="16.7"/>
			<path class="st11" d="M444.8,217.5c9.8-3.9,15.6-12.9,14-21c0.4,0.7,0.8,1.4,1.1,2.1c3.4,8.6-2.5,19-13.3,23.3
				c-10.8,4.3-22.3,0.8-25.7-7.7c-0.3-0.7-0.5-1.5-0.7-2.3C424.7,218.8,435,221.4,444.8,217.5z"/>
			<g id="hand_2_">
				<path class="st12" d="M443.2,208.7L443.2,208.7c10.7-6,16-16.9,11.9-24.3L432.3,145c-4.1-7.4-22-20.4-32.7-14.4l0,0
					c-10.7,6-6.3,30.9-2.2,38.3l18.9,37.1C420.4,213.5,432.5,214.6,443.2,208.7z"/>
				<path class="st11" d="M445.5,206.6L445.5,206.6c10.7-6,16-16.9,11.9-24.3l-22.8-39.4c-4.1-7.4-22-20.4-32.7-14.4l0,0
					c-10.7,6-6.3,30.9-2.2,38.3l18.9,37.1C422.7,211.4,434.9,212.6,445.5,206.6z"/>
			</g>
			<g id="right_foot_1_">
				<path class="st11" d="M353.9,234.1c0,0,1,78.4,8.8,93c7.8,14.6,45.8,6.8,45.8,6.8l16.8-99.8H353.9z"/>
				<path class="st13" d="M370.9,327.2c-7.8-14.6-8.8-93-8.8-93h-8.3c0,0,1,78.4,8.8,93c4.3,8.1,17.9,9.3,29.1,8.8
					C382.9,335.5,374.2,333.3,370.9,327.2z"/>
			</g>
			<g id="left_foot_1_">
				<path class="st14" d="M297.1,237c0,0,1,78.4,8.8,93s45.8,6.8,45.8,6.8l16.8-99.8H297.1z"/>
				<path class="st13" d="M314.1,330c-7.8-14.6-8.8-93-8.8-93H297c0,0,1,78.4,8.8,93c4.3,8.1,17.9,9.3,29.1,8.8
					C326.1,338.3,317.4,336.2,314.1,330z"/>
			</g>
			<path id="body_2_" class="st11" d="M303.7,136.9c0,0-41.1,118.9,16.2,127.6c67.1,10.1,109.5-2.3,107.9-38.9
				c-3-67.7-13.1-86.5-16.3-93.9C401.2,107.1,303.7,136.9,303.7,136.9z"/>
			
				<ellipse transform="matrix(0.3702 -0.9289 0.9289 0.3702 -27.2752 408.8903)" class="st11" cx="287.9" cy="224.6" rx="16.7" ry="21"/>
			<path class="st11" d="M283.5,235.6c-9.8-3.9-15.6-12.9-14-21c-0.4,0.7-0.8,1.4-1.1,2.1c-3.4,8.6,2.5,19,13.3,23.3
				c10.8,4.3,22.3,0.8,25.7-7.7c0.3-0.7,0.5-1.5,0.7-2.3C303.8,237,293.3,239.6,283.5,235.6z"/>
			<g id="hand-2">
				<path class="st12" d="M288.7,225.7L288.7,225.7c-11.6-3.8-18.9-13.6-16.2-21.7l15-43c2.7-8.1,17.8-24.2,29.4-20.3l0,0
					c11.6,3.8,12.1,29.2,9.4,37.2l-11.6,40C311.9,226.1,300.3,229.6,288.7,225.7z"/>
				<path class="st11" d="M286,224.1L286,224.1c-11.6-3.8-18.9-13.6-16.2-21.7l15-43c2.7-8.1,17.8-24.2,29.4-20.3l0,0
					c11.6,3.8,12.1,29.2,9.4,37.2l-11.6,40C309.3,224.5,297.6,228,286,224.1z"/>
			</g>
			<g id="head">
				<path class="st11" d="M350.7,143.3c-57,0.8-76-20.6-78.5-76.5c-1.9-42.2,33.7-66.9,77.1-67c28.9-0.1,53.2,3.7,64.1,24.1
					c17.7,33.2,20.5,77-1.6,101.4C398.5,139.8,379,142.9,350.7,143.3z"/>
				<path class="st11" d="M418.1,114.8c-11.1,17.7-23.7,20.3-53.5,22.3c-63.4,4.2-87.6-17.5-86-80.9c0.3-11.3,1.8-22.1,6.3-31.8
					C276,36.9,271.5,52,272.2,67.3c2.5,55.9,21.5,77.3,78.5,76.5c28.3-0.4,47.9-3.4,61.1-18c3.8-4.4,6.9-9.3,9.2-14.6
					C420,112.6,418.9,113.6,418.1,114.8z"/>
				<ellipse class="st11" cx="361.2" cy="91.4" rx="13.4" ry="8.6"/>
				<path id="eye" class="st15" d="M383.9,73c0,0,1.1-8,14.8-8c15.6,0,16.1,8,16.1,8"/>
				<path class="st16" d="M383.9,110.2c0.8,0.7,14.2,15,37.9-1.2"/>
			</g>
			<line class="st11" x1="436.9" y1="-37.4" x2="440" y2="-37.4"/>
			<line class="st11" x1="441.1" y1="71.2" x2="437.9" y2="71.2"/>
			<line class="st11" x1="422.9" y1="30.2" x2="420" y2="30.2"/>
		</g>
	</g>
	<path class="st17" d="M153,333.4"/>
</g>
<g id="grandma_1_">
	<g>
		<path class="st3" d="M127,355.2l2.3-41.2l-19,0.6l2.4,40.6l1,8.4c1.1,3.2,2.9,1.3,7.9,2.5c7.1,1.8,12.5,2,14.4-2.2
			C137.4,360.7,133.8,357.7,127,355.2z"/>
		<path class="st18" d="M117.3,367.8c3.8,1.3,11.8,1.3,16,0.6c2.9-0.4,7.8-2.9,3.3-7.8l-3.5-2.9l-0.8,2.8c0,0-1.3,2.3-8.1,1.6
			c-2.9-0.3-7.2-1-8.9-3.3c-1.1-1.6-2.5-4-2.6-3C112.6,358.3,111.6,365.7,117.3,367.8z"/>
	</g>
	<g>
		<path class="st3" d="M153,349.5l2.3-41.2l-19,0.6l2.2,40l0.9,8.4c1.1,3.2,2,0.5,6.7,2.7c6.9,3.2,14,2.4,15.9-1.7
			C163.4,355,159.8,352,153,349.5z"/>
		<path class="st18" d="M143.1,362.6c3.8,1.3,11.8,1.3,16,0.6c2.9-0.4,7.8-2.9,3.3-7.8l-3.5-2.9l-0.8,2.8c0,0-1.3,2.3-8.1,1.6
			c-2.9-0.3-7.2-1-8.9-3.3c-1.1-1.6-2.5-4-2.6-3C138.4,353.1,137.4,360.6,143.1,362.6z"/>
	</g>
	<path id="dress_2_" class="st19" d="M91.7,231.2l4.3,37.8l8.1,54.7h60.8c1.8-0.9,8.9-92.3,8-92.6
		C171.5,230.6,91.7,231.2,91.7,231.2z"/>
	<g>
		<path class="st20" d="M178.6,250.8c-0.6-1.8-9.9-39.7-9.5-49.8c0.3-8,8.9-16.5,0-29c-2.2-3.1-9.8-10.8-12.6-13.4
			c-9.8-9.1-48-3.2-48-3.2s-43.2,96.8-6.9,97.4c26.4,2.6,43.6,3.2,54.7,1.8l0,0C156.3,254.6,179.3,253.1,178.6,250.8z"/>
		<path class="st21" d="M116.8,178.3c6.5,4.9,17.2,10.7,25,11.1c16.3,0.8,31.1-9,31.1-9l0,0.8c1,5.3-1.9,12.1-1.9,12.1
			s-8.4,5.3-23.3,6.9c-22.9,2.4-33.4-12.7-35.6-5.6c-7.3,23.4-3.5,58.9-3.5,58.9s-7.2-0.4-11.1-1.2c-5.8-1.2-8.3-6.7-8.3-6.7
			s2.2-48.3,7.1-53.8s9.1-14.6,9.1-14.6L116.8,178.3z"/>
		<path class="st20" d="M141.8,156.6l-7.1,0.8c-1.5,0.2-3.1,0.2-4.6,0l-8.1-0.8c-2,0-3.6-1.6-3.6-3.6v0c0-2,1.6-3.6,3.6-3.6l7,1.1
			c2,0.3,3.9,0.3,5.9,0l7-1.1c2,0,3.6,1.6,3.6,3.6v0C145.3,155,143.7,156.6,141.8,156.6z"/>
		<path class="st21" d="M141.8,154.7l-7.1,0.8c-1.5,0.2-3.1,0.2-4.6,0l-8.1-0.8c-1.6,0-3-1.1-3.4-2.6c-0.1,0.3-0.1,0.6-0.1,0.9
			c0,2,1.6,3.6,3.6,3.6l8.1,0.8c1.5,0.2,3.1,0.2,4.6,0l7.1-0.8c2,0,3.6-1.6,3.6-3.6c0-0.3-0.1-0.6-0.1-0.9
			C144.7,153.6,143.4,154.7,141.8,154.7z"/>
	</g>
	<path id="neck_1_" class="st17" d="M121.3,139.4l0.2,6.7c0,0,12.1,0.2,16.8-0.6l2.9-0.5v-6.5L121.3,139.4z"/>
	
		<radialGradient id="SVGID_1_" cx="80.5524" cy="250.0495" r="11.3826" gradientTransform="matrix(1.0011 0 0 1 -0.1025 0)" gradientUnits="userSpaceOnUse">
		<stop  offset="0" style="stop-color:#FEE8D2"/>
		<stop  offset="0.3354" style="stop-color:#FEE6CF"/>
		<stop  offset="0.6598" style="stop-color:#FEE1C3"/>
		<stop  offset="0.979" style="stop-color:#FDD7B0"/>
		<stop  offset="1" style="stop-color:#FDD6AE"/>
	</radialGradient>
	<path class="st22" d="M86.8,237.6c0,0-1.5,9.7-1.2,11.8s2.7,4.7,2.7,7.1c0,2.4-1.3,6.8-2.8,7.5c-1.5,0.7-5.4,0-8.5-1.2
		c-2.6-1-3.7-4.4-4.1-7.2c-0.4-2.4,0.6-4.8,2.6-6.3c1.1-0.9,2.4-1.8,3-2.4c1.5-1.3,2.2-10.9,2.2-10.9L86.8,237.6z"/>
	<g id="hand_3_">
		<path class="st20" d="M70.9,240.5c3.4-9.3,24.2-90,37.5-85.1l3.3,16.7c-6.4,30.4-3.9,26.9-7.3,36.2l-9.4,38.5
			C82.2,246.1,70.9,240.5,70.9,240.5z"/>
	</g>
	<path class="st21" d="M80.7,208.2c0,0-1.7,15-1.2,23.3c0.5,8.3,0.5,11.8,0.5,11.8l-9.1-3.4L80.7,208.2"/>
	<linearGradient id="SVGID_2_" gradientUnits="userSpaceOnUse" x1="188.1208" y1="97.8976" x2="77.1211" y2="97.8976">
		<stop  offset="0" style="stop-color:#FEE8D2"/>
		<stop  offset="0.979" style="stop-color:#FDD7B0"/>
		<stop  offset="1" style="stop-color:#FDD6AE"/>
	</linearGradient>
	<path class="st23" d="M185.5,94.2c-2.5-2-5.7-7.6-7.2-14.9c-0.9-4.7-2.6-11-3.9-14.9c-1.3-11.8-13.1-6.8-15.1-9.3
		c-5.3-6.4-6.3,9.4-8.1,5.9c-8.4-15.7,2.1-2.8-20.1-2.7c-29.3,0.1-45.3,22.2-47.5,22.9c-10.3-2-5.4,25.6-4.8,26.7
		c1.5,4.8,9.9,37.9,51.3,34.5c51.8,1.5,47.5-36.5,49.5-37C186,103.6,191.6,99.1,185.5,94.2z"/>
	<path class="st11" d="M46.8,77.7c10.6-8,24.4-7.4,31,1.2c2.6,3.5-0.2,7.7-0.6,12c-0.5,6.5-0.4,13.3-6.7,18.1
		c-10.6,8-24.4,7.4-31-1.2S36.2,85.7,46.8,77.7z"/>
	<path class="st24" d="M72.7,95.8c0,0-1.6,8.5-11.4,14c-6.8,3.8-13.9,3.7-13.9,3.7s3.7,1.3,6.7,1.1s3.9-0.2,9.2-1.7s9.4-5.9,9.4-5.9
		V97V95.8z"/>
	<g>
		<path class="st3" d="M167.3,80c0,0-3.7-6.8-9-5.7c-5.3,1.2-7.5,6.8-7.5,6.8l-3.4-3.5"/>
		<path d="M167.3,82l-0.9,0.5c0-0.1-3.9-5-7.7-4.2c-4.2,0.9-6,5.6-6.1,5.6l-1.5,0.4l-7.3-4.7l6.5,0.1c1.4-2,3.8-4.6,7.5-5.4
			c6.7-1.5,11,6.3,11.2,6.7"/>
	</g>
	<path class="st11" d="M177,48.2c-6-17.5-30.5-27.9-53.2-27.8c-34,0.1-58.5,26-57,57.3c0.2,3.5-1.3,10.4-0.1,14.8l3.9,4.6
		c0,0.4,0.2,2.7,0.2,2.9l0.3,3.5c0,0,1.2,7.9,4.5,13.5c6.8,11.6,22.5,19.5,22.5,19.5l-4.7-13.2c-1.1-5.1,1.5-18.3-3.6-17
		c-7.4,1.8-20.9-16.4-4.4-22c9-1.2,6.3,3.8,9,3l1.8,2.7c0,0,11.6-0.7,21.3-4.2c3.7-1.3,35.1-17,40.6-28.6c6,5.9,14.4,12.6,24.9,8.9
		c0.1,0,0.2-0.2,0.2-0.3C182.7,64.1,178.8,53.3,177,48.2z"/>
	<path class="st25" d="M163.9,118c0,0-0.2,6.7,9.6,6.7c1.8-2,2.8-5.5,2.7-5.5C167.9,120.4,163.9,118,163.9,118z"/>
	<path class="st24" d="M158.2,57.2c0,0,6.2,4.1,10.4,5.5c4.3,1.3,8.7,2.2,8.7,2.2l6,0.9c0,0-1.9,1.8-4.9,1.8
		c-3.1,0-7.7-0.9-10.4-2.3S158.2,57.2,158.2,57.2z"/>
	<path class="st17" d="M89.9,100.9c-6.7,1.9-11.9-11.5-1.4-12.9l0.2,4.7C88.5,95.1,89.9,100.9,89.9,100.9z"/>
	<path class="st11" d="M93.4,81c0,0-1,7.4-1.1,11.7c-0.2,4.3,1.2,8.3,1.2,8.3s1.6-2.8,3.2-7.5c1.6-4.8,3-10.5,3-10.5L93.4,81z"/>
	<path class="st24" d="M158.2,41.1c1.4,16.1,0,16.2-0.1,16.2c-0.2,0.4-0.7,2.9-5.1,8.1c-4.2,4.9-20.4,15.5-34.8,20.1
		c-14.4,4.6-20.5,4.3-20.5,4.3s16.8-4.8,20.9-6.6s29.4-9.8,37.9-27.4C157.5,53.8,158.2,41.1,158.2,41.1z"/>
	<path class="st24" d="M71,100.9c0,0,3.5,10.6,5.4,13.8s5.5,8.7,9.9,12.2s11.9,9.6,11.9,9.6s-5.6-3-8.7-5.4s-7.9-6.6-10.6-9.7
		C71,112.8,71,100.9,71,100.9z"/>
	<path class="st26" d="M102.4,253c0,0,2.6,34,4,42s4.2,28.8,4.2,28.8H104c0,0-8-53.9-8.5-58.2c-0.5-4.3-1.7-14.7-1.7-14.7L102.4,253
		z"/>
	
		<ellipse transform="matrix(3.243532e-02 -0.9995 0.9995 3.243532e-02 43.6353 241.824)" class="st5" cx="146.7" cy="98.4" rx="4.3" ry="7.7"/>
</g>
<g id="Layer_3">
	<g id="main_house">
		<rect id="house_body" x="-944" y="12.3" class="st27" width="458.5" height="316.6"/>
		<g>
			<rect x="-498.7" y="-3.2" class="st28" width="50.5" height="332.1"/>
			<rect x="-981.6" y="-3.2" class="st28" width="50.5" height="332.1"/>
			<g id="pillar_shadow">
				<rect x="-498.7" y="-1.8" class="st29" width="50.5" height="31.9"/>
				<rect x="-981.6" y="-1.8" class="st29" width="50.5" height="31.9"/>
				<rect x="-981.6" y="44.5" class="st29" width="50.5" height="7.9"/>
				<rect x="-981.6" y="77" class="st29" width="50.5" height="7.9"/>
				<rect x="-981.6" y="109.5" class="st29" width="50.5" height="7.9"/>
				<rect x="-981.6" y="141.9" class="st29" width="50.5" height="7.9"/>
				<rect x="-981.6" y="174.4" class="st29" width="50.5" height="7.9"/>
				<rect x="-981.6" y="206.9" class="st29" width="50.5" height="7.9"/>
				<rect x="-981.6" y="239.3" class="st29" width="50.5" height="7.9"/>
				<rect x="-981.6" y="271.8" class="st29" width="50.5" height="7.9"/>
				<rect x="-981.6" y="304.2" class="st29" width="50.5" height="7.9"/>
				<rect x="-498.7" y="44.5" class="st29" width="50.5" height="7.9"/>
				<rect x="-498.7" y="77" class="st29" width="50.5" height="7.9"/>
				<rect x="-498.7" y="109.5" class="st29" width="50.5" height="7.9"/>
				<rect x="-498.7" y="141.9" class="st29" width="50.5" height="7.9"/>
				<rect x="-498.7" y="174.4" class="st29" width="50.5" height="7.9"/>
				<rect x="-498.7" y="206.9" class="st29" width="50.5" height="7.9"/>
				<rect x="-498.7" y="239.3" class="st29" width="50.5" height="7.9"/>
				<rect x="-498.7" y="271.8" class="st29" width="50.5" height="7.9"/>
				<rect x="-498.7" y="304.2" class="st29" width="50.5" height="7.9"/>
			</g>
		</g>
		
			<linearGradient id="SVGID_3_" gradientUnits="userSpaceOnUse" x1="-714.8621" y1="242.5352" x2="-714.8621" y2="273.1352" gradientTransform="matrix(1 0 0 -1 0 256)">
			<stop  offset="0" style="stop-color:#8C7C67"/>
			<stop  offset="0.3224" style="stop-color:#8F7E69"/>
			<stop  offset="0.5163" style="stop-color:#97866F"/>
			<stop  offset="0.6762" style="stop-color:#A59379"/>
			<stop  offset="0.8176" style="stop-color:#B9A588"/>
			<stop  offset="0.9456" style="stop-color:#D3BD9B"/>
			<stop  offset="1" style="stop-color:#E1C9A5"/>
		</linearGradient>
		<rect x="-931.1" y="-17.1" class="st30" width="432.4" height="30.6"/>
		
			<linearGradient id="SVGID_4_" gradientUnits="userSpaceOnUse" x1="-712.7039" y1="-74.9732" x2="-712.7039" y2="209.8267" gradientTransform="matrix(1 0 0 -1 0 256)">
			<stop  offset="0" style="stop-color:#FFFFFF"/>
			<stop  offset="0.4078" style="stop-color:#FFF7D1"/>
			<stop  offset="0.5781" style="stop-color:#FFF6CE"/>
			<stop  offset="0.7127" style="stop-color:#FFF5C4"/>
			<stop  offset="0.8351" style="stop-color:#FFF2B3"/>
			<stop  offset="0.9497" style="stop-color:#FFED9C"/>
			<stop  offset="1" style="stop-color:#FFEB8F"/>
		</linearGradient>
		<path class="st31" d="M-825.3,331h225.1c32.1-30,52.1-72.8,52.1-120.2c0-90.9-73.7-164.6-164.6-164.6s-164.6,73.7-164.6,164.6
			C-877.4,258.2-857.3,300.9-825.3,331z"/>
		<g id="ring">
			<path class="st32" d="M-714.8,30.1c-99.3,0-179.9,80.5-179.9,179.9c0,46.2,17.4,88.3,46.1,120.2h43.8
				c-35.5-27.1-58.4-69.9-58.4-118c0-82,66.4-148.4,148.4-148.4s148.4,66.4,148.4,148.4c0,48.1-22.9,90.9-58.4,118h43.8
				c28.6-31.9,46.1-74,46.1-120.2C-534.9,110.7-615.4,30.1-714.8,30.1z"/>
			<g>
				<path class="st33" d="M-842.7,287.4c-0.8-1.3-1.5-2.7-2.3-4l-26.3,15.2c0.8,1.3,1.5,2.7,2.3,4L-842.7,287.4z"/>
				<path class="st33" d="M-820.3,107.9c1.1-1.1,2.2-2.2,3.3-3.2l-23.4-23.4c-1.1,1.1-2.2,2.2-3.3,3.3L-820.3,107.9z"/>
				<path class="st33" d="M-843.6,138.6c0.8-1.3,1.5-2.6,2.4-4l-28.2-16.3c-0.8,1.3-1.5,2.6-2.3,4L-843.6,138.6z"/>
				<path class="st33" d="M-863.2,212.2c0-1.3,0-2.7,0.1-4h-31.5c0,0.6,0,1.2,0,1.8c0,0.9,0,1.9,0,2.8h31.5
					C-863.2,212.6-863.2,212.4-863.2,212.2z"/>
				<path class="st33" d="M-857.9,251.4c-0.4-1.5-0.8-3-1.1-4.5l-29.9,8c0.4,1.5,0.8,3,1.2,4.4L-857.9,251.4z"/>
				<path class="st33" d="M-763.6,36.8l8.7,32.5c1.5-0.4,3-0.8,4.4-1.2l-8.7-32.5C-760.6,36-762.1,36.4-763.6,36.8z"/>
				<path class="st33" d="M-670.5,35.6l-8.7,32.5c1.5,0.4,3,0.8,4.5,1.2l8.7-32.5C-667.5,36.4-669,36-670.5,35.6z"/>
				<path class="st33" d="M-566.4,211.8h31.5c0-0.6,0-1.2,0-1.8c0-0.9,0-1.9,0-2.8h-31.5C-566.4,208.7-566.4,210.2-566.4,211.8z"/>
				<path class="st33" d="M-714.8,30.1c-0.8,0-1.5,0-2.3,0v33.7c0.8,0,1.5,0,2.3,0s1.5,0,2.3,0V30.1
					C-713.2,30.1-714,30.1-714.8,30.1z"/>
				<path class="st33" d="M-858.3,174.3c0.4-1.5,0.8-3,1.2-4.4l-31-8.3c-0.4,1.5-0.8,3-1.2,4.4L-858.3,174.3z"/>
				<path class="st33" d="M-606.5,313.7c-1,1.1-2.1,2.2-3.2,3.3l13.2,13.2h6.5L-606.5,313.7z"/>
				<path class="st33" d="M-557.5,297.3l-26.4-15.2c-0.7,1.4-1.5,2.7-2.2,4l26.3,15.2C-559,299.9-558.2,298.6-557.5,297.3z"/>
				<path class="st33" d="M-588.5,134.2c0.8,1.3,1.6,2.6,2.4,3.9l28.2-16.3c-0.8-1.3-1.5-2.7-2.3-4L-588.5,134.2z"/>
				<path class="st33" d="M-570.2,245.7c-0.3,1.5-0.7,3-1.1,4.5l29.9,8c0.4-1.5,0.8-3,1.2-4.4L-570.2,245.7z"/>
				<path class="st33" d="M-806.8,55.4l16.7,28.9c1.3-0.8,2.6-1.5,4-2.3l-16.7-28.9C-804.1,53.9-805.4,54.6-806.8,55.4z"/>
				<path class="st33" d="M-830.5,330.2l11.9-11.9c-1.1-1.1-2.2-2.2-3.2-3.3l-15.2,15.2L-830.5,330.2L-830.5,330.2z"/>
				<path class="st33" d="M-541.7,160.8l-31,8.3c0.4,1.5,0.9,2.9,1.3,4.4l31-8.3C-540.9,163.8-541.3,162.3-541.7,160.8z"/>
				<path class="st33" d="M-622.9,55.3c-1.3-0.8-2.6-1.6-4-2.3l-16.7,29c1.3,0.7,2.7,1.5,4,2.3L-622.9,55.3z"/>
				<path class="st33" d="M-609.4,107.7l23.3-23.3c-1.1-1.1-2.2-2.2-3.3-3.3l-23.4,23.4C-611.6,105.5-610.5,106.6-609.4,107.7z"/>
			</g>
		</g>
		<g id="Layer_16">
		</g>
		<g id="Layer_13">
		</g>
		<g id="Layer_14">
		</g>
		<g id="daughter">
			<polygon class="st3" points="-684.1,236.5 -689.7,232.3 -681.9,212.1 -675.2,214.7 			"/>
			<polygon class="st3" points="-621.3,236.3 -627.6,237.5 -632.8,216.5 -625.8,214.7 			"/>
			<path class="st25" d="M-624.1,228.7l-3.7,0.9c-2.3,0.6-4.7-0.9-5.2-3.1l-2.9-11.5c-0.6-2.3,0.9-4.7,3.1-5.2l3.7-0.9
				c5.6-0.7,5.1,3.7,5.6,5.9l2.3,9.5C-620.5,226.6-621.8,228.2-624.1,228.7z"/>
			<path class="st34" d="M-627.2,229.2c-2.7-0.1-3.1-1.3-3.6-3.5l-2.9-11.5c-0.5-2,0.2-3.8,1.9-4.7l-1.1,0.2
				c-2.2,0.5-3.7,2.9-3.1,5.2l2.9,11.5c0.5,2.2,2.9,4,5.2,3.4l3.5-1C-624,228.7-627.2,229.2-627.2,229.2z"/>
			<g id="head_1_">
				<path class="st25" d="M-672.2,210.4c-0.2-0.3-0.6-0.6-1-0.8l-5.2-1.9c-2.2-1-3.1,1.6-4.1,3.8l-3.9,8.6c-1,2.1-2.8,4.4-0.6,5.5
					l4.6,2.4c2.2,1,4,0.5,5-1.7l4-8.7l1.3,38.3l38.2-0.8l2.2-44.7H-672.2z"/>
				<path class="st3" d="M-640.5,210.4h-5.2c-1.1,0-1.8-0.5-1.8-1.6l-0.1-4.5c0-1.1-0.9-2-2-2h-5c-1.2,0-2.7,0.9-2.6,2.1l0.4,3.9
					c0.1,1.2-0.3,2.1-1.4,2.1h-5.2c0,0.1,0,0.3,0,0.4c0,5.5,5.2,7.6,11.5,7.6C-641.4,218.3-640.5,210.5-640.5,210.4z"/>
				<path class="st17" d="M-657.3,202.2l0.6,4.8c0,0,3.3,0.4,5.4,0.3l3.9-0.3l0.3-4.5L-657.3,202.2z"/>
				
					<radialGradient id="SVGID_5_" cx="-652.8212" cy="2876.2852" r="27.8268" gradientTransform="matrix(1 0 0 -1 0 3056)" gradientUnits="userSpaceOnUse">
					<stop  offset="0" style="stop-color:#FEE8D2"/>
					<stop  offset="0.3354" style="stop-color:#FEE6CF"/>
					<stop  offset="0.6598" style="stop-color:#FEE1C3"/>
					<stop  offset="0.979" style="stop-color:#FDD7B0"/>
					<stop  offset="1" style="stop-color:#FDD6AE"/>
				</radialGradient>
				<path class="st35" d="M-680.2,181.2v-4.5c0-12.6,10.3-23,23-23h8.4c12.6,0,23,10.3,23,23v4.5c1.3,0.7,2.3,2.3,2.3,4.3
					c0,2.5-1.5,4.5-3.4,4.5l0,0c-3,9.2-11.7,15.8-21.9,15.8h-8.4c-10.1,0-18.9-6.7-21.9-15.8l0,0c-1.9,0-3.4-2-3.4-4.5
					C-682.4,183.4-681.5,181.7-680.2,181.2z"/>
				<path class="st17" d="M-680.2,184.6c-0.5,0.1-0.7,0.9-0.5,1.8s0.8,1.4,1.3,1.3C-678.8,187.6-679.6,184.5-680.2,184.6z"/>
				<path class="st17" d="M-625.5,184.6c0.5,0.1,0.7,0.9,0.5,1.8s-0.8,1.4-1.3,1.3C-626.8,187.6-626,184.5-625.5,184.6z"/>
				<path class="st25" d="M-651.4,199.1c-3.5,0.4-6-1.6-6-1.7c-0.1-0.3,0.7,0.3,4.5-0.1c3.9-0.4,6-1.5,6-1.2
					C-646.9,196.1-648.4,198.8-651.4,199.1z"/>
				<path class="st25" d="M-672.4,183.2c0,4.1,3.3,7.4,7.4,7.4c4.1,0,7.4-3.3,7.4-7.4c0-0.5-0.1-0.9-0.1-1.3c1.1-1,2.6-1.7,4.3-1.7
					c1.5,0,2.9,0.5,3.9,1.4c-0.1,0.5-0.2,1-0.2,1.6c0,4.1,3.3,7.4,7.4,7.4c4.1,0,7.4-3.3,7.4-7.4s-3.3-7.4-7.4-7.4
					c-3.1,0-5.8,2-6.9,4.6c-1.2-0.9-2.7-1.4-4.3-1.4c-1.7,0-3.3,0.6-4.6,1.6c-1-2.8-3.7-4.8-6.9-4.8
					C-669.1,175.9-672.4,179.1-672.4,183.2z M-648.6,183.2c0-3.5,2.8-6.2,6.2-6.2s6.2,2.8,6.2,6.2s-2.8,6.2-6.2,6.2
					S-648.6,186.7-648.6,183.2z M-671.3,183.2c0-3.5,2.8-6.2,6.2-6.2c3.5,0,6.2,2.8,6.2,6.2s-2.8,6.2-6.2,6.2
					S-671.3,186.7-671.3,183.2z"/>
				<path class="st25" d="M-636.8,173.3c0,0-4.8-1.6-7.5-0.6c-2.7,0.9-3.2,1.6-3.2,1.6"/>
				<path class="st25" d="M-670.3,173.3c0,0,4.8-1.6,7.5-0.6s3.2,1.6,3.2,1.6"/>
			</g>
			<g id="right_streak">
				<path class="st25" d="M-629,173.8c0,0,11.1,1.2,13.9,7c1.8,3.6-3.1,6.9-2.8,11.7c0.2,2.4,3.9,5.2,6,8.4c3.2,4.8-1.8,7-11.1,12.6
					c-1.2,0.7,9.8-9.8,6-13c-7.3-6.4-4.3-13.3-1.8-17.7C-615.7,176.8-629,173.8-629,173.8z"/>
				<path class="st34" d="M-615.5,200.5c-7.3-6.4-4.3-13.3-1.8-17.7c2.1-4-3.3-6.7-7-8c-2.6-0.7-4.7-1-4.7-1s13.3,3,10.2,9
					c-2.5,4.4-5.5,11.3,1.8,17.7c3.8,3.2-7.2,13.7-6,13c1-0.6,1.9-1.1,2.8-1.6C-617.7,208.9-612.7,202.8-615.5,200.5z"/>
			</g>
			<g id="left_streak">
				<path class="st25" d="M-677.3,170.9c0,0-11.1,1.2-13.9,7c-1.8,3.6,3.1,6.9,2.8,11.7c-0.2,2.4-3.9,5.2-6,8.4
					c-3.2,4.8,1.8,7,11.1,12.6c1.2,0.7-9.8-9.8-6-13c7.3-6.3,4.3-13.3,1.8-17.7C-690.8,174-677.3,170.9-677.3,170.9z"/>
				<path class="st34" d="M-689.3,197.7c7.3-6.3,4.3-13.3,1.8-17.7c-3.3-5.9,10.2-9,10.2-9s-2.3,0.3-5.2,1.1c-3.7,1.4-8.8,4-6.6,7.9
					c2.5,4.4,5.5,11.4-1.8,17.7c-3.7,3.1,8,13,7.7,13C-682.7,210.8-693,200.8-689.3,197.7z"/>
			</g>
			<path class="st34" d="M-678,226c-1.3,1.8-3.3,2-5.2,1.4l0.8,0.5c2.2,1,4.1,0.5,5.1-1.7l4-8.7C-675.3,221-678,226-678,226z"/>
			<path class="st25" d="M-625.8,181.2l0.9-4.9c0-13.3-9.2-25.4-24.4-25.4h-8.6c-11,0-20.3,7.9-22.9,18.5c-0.7,3-0.7,6.1,0,9.1
				l0.6,2.8l26.8-15.7L-625.8,181.2z"/>
			<circle class="st36" cx="-671.4" cy="193.7" r="2.8"/>
			<circle class="st36" cx="-636.9" cy="193.7" r="2.8"/>
			<path class="st37" d="M-670.1,210.1l1.8-0.2h3.7c0.4,0,0.8,0.3,0.8,0.7l3.9,30.7l-6.5,0.8l-4.1-31.6
				C-670.5,210.4-670.3,210.2-670.1,210.1z"/>
			<path class="st37" d="M-634.8,210h-3.1c-0.8,0-1.4,0.6-1.5,1.4l-3.8,29.7c0,0.2,0.1,0.4,0.3,0.4l5.9,0.7c0.2,0,0.4-0.1,0.4-0.3
				l2.6-30.4C-634.1,211.2-633.8,210-634.8,210z"/>
			<path class="st37" d="M-673,242.2c-1.2-15.6,11.2-16.5,21.5-16.5s21.2,5.7,19.7,17.1c3.9,23.9-10.4,17.4-20.8,17.4
				C-663,260.2-674.6,258.1-673,242.2z"/>
			
				<radialGradient id="SVGID_6_" cx="-632.4509" cy="2818.7036" r="9.1798" gradientTransform="matrix(1 0 0 -1 0 3056)" gradientUnits="userSpaceOnUse">
				<stop  offset="0" style="stop-color:#FEE8D2"/>
				<stop  offset="0.3354" style="stop-color:#FEE6CF"/>
				<stop  offset="0.6598" style="stop-color:#FEE1C3"/>
				<stop  offset="0.979" style="stop-color:#FDD7B0"/>
				<stop  offset="1" style="stop-color:#FDD6AE"/>
			</radialGradient>
			<path class="st38" d="M-628.3,233.2l-15.6,8l0.3,2.4c0,0,20.2-2.6,21.8-5.7s-0.1-3.7-1.4-5.7
				C-624.9,229.7-628.2,232.3-628.3,233.2z"/>
			<radialGradient id="SVGID_7_" cx="-678.6918" cy="233.538" r="8.6287" gradientUnits="userSpaceOnUse">
				<stop  offset="0" style="stop-color:#FEE8D2"/>
				<stop  offset="0.3354" style="stop-color:#FEE6CF"/>
				<stop  offset="0.6598" style="stop-color:#FEE1C3"/>
				<stop  offset="0.979" style="stop-color:#FDD7B0"/>
				<stop  offset="1" style="stop-color:#FDD6AE"/>
			</radialGradient>
			<path class="st39" d="M-683.3,229.5l15.5,6.2l-1.3,3.3c0,0-17-0.9-19.3-3.5s-0.9-3.6-0.1-5.8
				C-687.5,226.8-683.6,228.7-683.3,229.5z"/>
		</g>
		<g>
			<g>
				
					<linearGradient id="SVGID_8_" gradientUnits="userSpaceOnUse" x1="-663.5903" y1="7234.2852" x2="-637.6661" y2="7234.2852" gradientTransform="matrix(1 0 0 -1 0 7470)">
					<stop  offset="0" style="stop-color:#787878"/>
					<stop  offset="1" style="stop-color:#FFFFFF"/>
				</linearGradient>
				<path class="st40" d="M-650.4,233.1c-6-0.1-9.6-0.1-13.2-3.9c0,0,0,0,0,0.1c0,7.1,5.8,13,13,13c7.1,0,13-5.8,13-13
					c0,0,0,0,0-0.1C-640.5,232.8-644.5,233.1-650.4,233.1z"/>
			</g>
			<ellipse class="st9" cx="-650.6" cy="230.3" rx="13" ry="5.7"/>
			<ellipse class="st41" cx="-650.7" cy="232.9" rx="11.5" ry="3.1"/>
			
				<radialGradient id="SVGID_9_" cx="-655.0901" cy="7239.6445" r="3.2252" gradientTransform="matrix(1 0 0 -1 0 7470)" gradientUnits="userSpaceOnUse">
				<stop  offset="0" style="stop-color:#F7931E"/>
				<stop  offset="1" style="stop-color:#FFFFFF"/>
			</radialGradient>
			<path class="st42" d="M-655.1,233.3c1.5,0,2.8-0.7,3.4-1.5c0.1-0.3,0.1-0.5,0.1-0.8c0-2-1.6-3.5-3.5-3.5c-1.9,0-3.5,1.6-3.5,3.5
				c0,0.3,0.1,0.5,0.1,0.8C-657.9,232.7-656.6,233.3-655.1,233.3z"/>
			
				<radialGradient id="SVGID_10_" cx="-646.1191" cy="7239.4619" r="3.224" gradientTransform="matrix(1 0 0 -1 0 7470)" gradientUnits="userSpaceOnUse">
				<stop  offset="0" style="stop-color:#39B54A"/>
				<stop  offset="1" style="stop-color:#FFFFFF"/>
			</radialGradient>
			<path class="st43" d="M-646.1,233.5c1.5,0,2.8-0.7,3.4-1.5c0.1-0.3,0.1-0.5,0.1-0.8c0-2-1.6-3.5-3.5-3.5c-1.9,0-3.5,1.6-3.5,3.5
				c0,0.3,0.1,0.5,0.1,0.8C-648.9,232.9-647.6,233.5-646.1,233.5z"/>
			
				<radialGradient id="SVGID_11_" cx="-649.8621" cy="7238.064" r="3.2271" gradientTransform="matrix(1 0 0 -1 0 7470)" gradientUnits="userSpaceOnUse">
				<stop  offset="0" style="stop-color:#FDF65C"/>
				<stop  offset="1" style="stop-color:#FFFFFF"/>
			</radialGradient>
			<path class="st44" d="M-649.9,234.9c1.5,0,2.8-0.7,3.4-1.5c0.1-0.3,0.1-0.5,0.1-0.8c0-2-1.6-3.5-3.5-3.5c-1.9,0-3.5,1.6-3.5,3.5
				c0,0.3,0.1,0.5,0.1,0.8C-652.7,234.3-651.4,234.9-649.9,234.9z"/>
		</g>
		<path id="guy_clothcloth" class="st45" d="M-775.2,201.8l-9.3,0.7c0,0-30.6,2.9-36,16.4c-0.4,1.1-0.4,2.8,0,5.1
			c0.6,2.9,15.7,12.7,15.7,12.7l0.7-2.5l1.8-6.4l-6.6-2.6c-6.1-4.5-2.6-5.3,0-7.4l10-4.5c0,0.6,0,1.2,0,1.9
			c-0.4,11.8-3.3,27.6-1.1,43.6c1,6.9,0.7,5.9,1.7,8.4c3.3,7.9,18.2-2.8,23.5-3.5c5.3,0.7,26.7,4.4,30-3.5
			c1.1-2.7-0.8-16.6-1.7-23.2c2.4-2.3,9.5-8.2,12-13.5C-727.3,199.2-775.2,201.8-775.2,201.8z M-747.8,228.1
			c-0.9-4.5-3.9-16.2-4.2-17.2c2.9,1.8,10.7,4.8,10.7,8.8C-741.4,222.3-745.5,226.4-747.8,228.1z"/>
		<path class="st46" d="M-734,216.3c0,0-0.4,4.8-2.3,8.7c-0.4,0.9-5,6.1-5,6.1l-6.3,6.6c0,0,4.2-3.3,5.5-4.5c1.3-1.2,6.7-6.2,7.9-10
			C-733.1,219.8-734,216.3-734,216.3z"/>
		<path class="st47" d="M-800.4,258c0.2-0.1,2.4,2.9,2.5,2.7c0,0-1.4-2.7-1.5-6.9c-0.2-13.4,0.5-41.5,0.5-41.5l-1.8,27.2
			c0,0-1,16-0.7,17.2C-801,257.9-800.4,258-800.4,258z"/>
		<path class="st46" d="M-752,210.9c0,0,3.7,14.9,4,16.1s2.7,19.6,2.8,21c0.4,5-2.4,7.3-2.4,7.3l1.2-5.2L-752,210.9z"/>
		<g id="dad">
			<path class="st3" d="M-745.4,229c2.7,3.8-0.9,9.8-7.8,12.4c-6.4,2.5-13,1.6-14.6-1.7c-1.6-3.3,4.7-1.5,10.9-4.5
				C-750.7,232.3-747.5,226.1-745.4,229z"/>
			<path id="neck" class="st3" d="M-774.6,206.3l-1.7,0.4c-5.2,0.2-5.3-2.7-5.4-3.9l-0.3-5.6c-0.1-1.6,1.2-2.9,2.7-2.9h4.1
				c1.6,0,2.8,1.3,2.7,2.9l-0.2,5.8C-772.7,205.2-773.3,205.8-774.6,206.3z"/>
			<path id="neck_shadow" class="st17" d="M-772.6,201.5c0,0-2.1,0.7-6.3,0.3l-2.9-0.2c0,0-0.1-0.9-0.1-2.2l-0.1-5.5
				c-0.1-1.6,1.2-2.9,2.7-2.9h4.1c1.6,0,2.8,1.3,2.7,2.9l-0.2,5.8C-772.5,201.1-772.6,201.5-772.6,201.5z"/>
			
				<radialGradient id="SVGID_12_" cx="-776.6508" cy="2891.8352" r="37.7816" gradientTransform="matrix(1 0 0 -1 0 3056)" gradientUnits="userSpaceOnUse">
				<stop  offset="0" style="stop-color:#FEE8D2"/>
				<stop  offset="0.3354" style="stop-color:#FEE6CF"/>
				<stop  offset="0.6598" style="stop-color:#FEE1C3"/>
				<stop  offset="0.979" style="stop-color:#FDD7B0"/>
				<stop  offset="1" style="stop-color:#FDD6AE"/>
			</radialGradient>
			<path class="st48" d="M-742.5,163.8l-0.5-3.9c0-17.7-12.8-32.1-28.4-32.1h-10.3c-15.6,0-28.4,14.5-28.4,32.1l0.3,2.7
				c-2.8-0.9-6.1,1.8-6.1,4.6c0,9.4,7,9.6,7,9.6c2.4,14,10.2,22.9,27.2,23.8h10.3c12.5,0,23.2-9.3,27-22.1c0,0,0,0,0.1,0
				C-736.9,177-734.4,164.3-742.5,163.8z"/>
			<path class="st49" d="M-748.3,122.3c0,0-1.6,1.4-4.5,2.6c-0.6,0.3-3.1,0.2-3.4,0.1c-1.1-0.5,2.8-6.4,2.8-6.4l-9.4,0.3
				c-4.7-0.3-16.4,2-16.4,2s1.8-0.5,2.6-4.4c-4.3-0.3-5.7,0.1-9.4,1c-12.2,2.7-28.9,13.8-27.9,32.1c0.5,6.9,3.5,16.6,3.5,16.6
				c0,0.7,0.5-7.1,1.2-11.8c0.7-4.7,2-9,2.6-8.8c12.6,5.4,23.1,5,23.1,5c-1.6-3.2-2.2-3.9-2.5-3.9c2.2-0.5,17.5,6.3,17.5,6.3
				c-1.2-3.6-5.5-5.6-4.7-5.6c1.5-0.1,15.4,5.1,15.4,5.1s-3.5-3.1-6.5-4.8c0,0,15.1-1.4,19,7.3c1.5,3.3,2.2,12.2,2.2,11.5l1.9-13.2
				c0.6-8-3.9-20.2-3.9-20.2c0.6-3.8-0.1-4.4-0.5-6C-745.6,126.6-748.3,122.3-748.3,122.3z"/>
			<path class="st17" d="M-810.5,166.6c0,0-2.9,0.3-2.6,3.4c0.6,2.9,3.2,3.4,3.2,3.4C-810.1,171.5-810.9,172.4-810.5,166.6z"/>
			<path class="st17" d="M-743,174.3c0,0,2.5,1.1,3-3.3c0.3-2.2-0.9-3.6-2.3-3.6C-742.2,171-742.7,172.4-743,174.3z"/>
			<ellipse cx="-792.1" cy="169" rx="2.2" ry="2.4"/>
			<g id="right_eye">
				<ellipse class="st7" cx="-760.5" cy="168.6" rx="3.6" ry="3.9"/>
				<ellipse cx="-759.3" cy="168.6" rx="2.4" ry="2.4"/>
			</g>
			<g id="right_eye_1_">
				<ellipse class="st7" cx="-642.2" cy="183.2" rx="3.6" ry="3.9"/>
				<ellipse cx="-642.8" cy="184.6" rx="2.4" ry="2.4"/>
			</g>
			<g id="left_eye">
				<ellipse class="st7" cx="-793.5" cy="169" rx="3.6" ry="3.9"/>
				<ellipse cx="-792.4" cy="169" rx="2.4" ry="2.4"/>
			</g>
			<g id="left_eye_1_">
				<ellipse class="st7" cx="-665" cy="183.2" rx="3.6" ry="3.9"/>
				<ellipse cx="-664.6" cy="184.6" rx="2.4" ry="2.4"/>
			</g>
			<path class="st50" d="M-760.7,158.7c-4.5,0-8.2,2.8-9.6,6.8c-1.8-1.4-4-2.2-6.4-2.2c-2.2,0-4.3,0.7-6,2c-1.5-3.8-5.2-6.5-9.6-6.5
				c-5.6,0-10.3,4.6-10.3,10.3c0,5.6,4.6,10.3,10.3,10.3c5.6,0,10.3-4.6,10.3-10.3c0-0.7-0.1-1.4-0.3-2.2c1.5-1.2,3.4-2,5.5-2
				c2.3,0,4.4,0.9,6,2.4c-0.1,0.6-0.2,1.2-0.2,1.8c0,5.6,4.6,10.3,10.3,10.3c5.6,0,10.3-4.6,10.3-10.3
				C-750.5,163.3-755.1,158.7-760.7,158.7z M-792.4,177.7c-4.8,0-8.7-3.9-8.7-8.7s3.9-8.7,8.7-8.7c4.8,0,8.7,3.9,8.7,8.7
				S-787.6,177.7-792.4,177.7z M-760.7,177.7c-4.8,0-8.7-3.9-8.7-8.7s3.9-8.7,8.7-8.7c4.8,0,8.7,3.9,8.7,8.7S-756,177.7-760.7,177.7
				z"/>
			<path d="M-800,155.2c0,0,6.7-2.2,10.4-0.9c3.7,1.3,4.5,2.2,4.5,2.2"/>
			<path class="st17" d="M-765.8,186.9c0,0-8,2.3-11.9,2.2c-3.9-0.1-8.8-3.6-8.8-3.6"/>
			<path d="M-753.3,155.2c0,0-6.7-2.2-10.4-0.9c-3.7,1.3-4.5,2.2-4.5,2.2"/>
			<path class="st3" d="M-667.4,237.7c0.9,3.9,6.5-2.4,6.2-0.1c-0.6,3.5-9.4,5.3-10.3,1.4c-1.3-5.3,3.7-6.7,7.7-2.7
				c2.1,1.8-1,0.2-2.6-0.1C-667,236-667.7,236.5-667.4,237.7z"/>
			<path class="st51" d="M-664.3,237.1c-1.7-0.2-6.3-1.5-6.8-1.2c-1.6,0.7,4.8,2.6,6.1,3.1c1.2,0.6,2,1.2,4.1,0.7
				c2.2-0.5,3.3-1.8,3.1-2.6c-0.2-0.7-2.5-0.9-3.7-0.4C-662.6,237.2-664.3,237.1-664.3,237.1z"/>
			<g>
				<path class="st51" d="M-667.1,236.5c-0.7,0.4-1.6,0.8-2.2,0.9c0.7,0.3,1.9,0.7,2.6,1c0.6-0.4,1.1-0.9,1.3-1.5
					C-665.8,236.8-666.5,236.6-667.1,236.5z"/>
			</g>
			<path class="st3" d="M-798.7,232.4c0,6,10.5-1.3,9.2,2c-2,5-15.6,4.6-15.7-1.3c-0.2-8.3,10-5.8,12.4-3.3c3.2,3.3-1.4,0.7-3.9,0.7
				C-797.7,230.4-798.7,230.5-798.7,232.4z"/>
			<path class="st51" d="M-790.3,234.2c-3-1-10.7-5.3-11.7-5c-3.1,0.7,7.6,6.6,9.6,8.1s3,3,7.1,3c4.1,0,6.6-1.8,6.6-3.3
				c0-1.4-4.1-2.6-6.5-2.3C-787.4,235.1-790.3,234.2-790.3,234.2z"/>
			<g>
				<g>
					
						<linearGradient id="SVGID_13_" gradientUnits="userSpaceOnUse" x1="-774.8621" y1="7237.585" x2="-748.9381" y2="7237.585" gradientTransform="matrix(1 0 0 -1 0 7470)">
						<stop  offset="0" style="stop-color:#787878"/>
						<stop  offset="1" style="stop-color:#FFFFFF"/>
					</linearGradient>
					<path class="st52" d="M-761.7,229.8c-6-0.1-9.6-0.1-13.2-3.9c0,0,0,0,0,0.1c0,7.1,5.8,13,13,13c7.1,0,13-5.8,13-13
						c0,0,0,0,0-0.1C-751.8,229.5-755.8,229.9-761.7,229.8z"/>
				</g>
				<ellipse class="st9" cx="-761.9" cy="227" rx="13" ry="5.7"/>
				<ellipse class="st41" cx="-762" cy="229.7" rx="11.5" ry="3.1"/>
				
					<radialGradient id="SVGID_14_" cx="-766.3802" cy="7242.918" r="3.2241" gradientTransform="matrix(1 0 0 -1 0 7470)" gradientUnits="userSpaceOnUse">
					<stop  offset="0" style="stop-color:#F7931E"/>
					<stop  offset="1" style="stop-color:#FFFFFF"/>
				</radialGradient>
				<path class="st53" d="M-766.4,230.1c1.5,0,2.8-0.7,3.4-1.5c0.1-0.3,0.1-0.5,0.1-0.8c0-2-1.6-3.5-3.5-3.5c-1.9,0-3.5,1.6-3.5,3.5
					c0,0.3,0.1,0.5,0.1,0.8C-769.2,229.4-767.9,230.1-766.4,230.1z"/>
				
					<radialGradient id="SVGID_15_" cx="-757.4094" cy="7242.7354" r="3.224" gradientTransform="matrix(1 0 0 -1 0 7470)" gradientUnits="userSpaceOnUse">
					<stop  offset="0" style="stop-color:#39B54A"/>
					<stop  offset="1" style="stop-color:#FFFFFF"/>
				</radialGradient>
				<path class="st54" d="M-757.4,230.3c1.5,0,2.8-0.7,3.4-1.5c0.1-0.3,0.1-0.5,0.1-0.8c0-2-1.6-3.5-3.5-3.5c-1.9,0-3.5,1.6-3.5,3.5
					c0,0.3,0.1,0.5,0.1,0.8C-760.2,229.6-758.9,230.3-757.4,230.3z"/>
				
					<radialGradient id="SVGID_16_" cx="-761.1458" cy="7241.3354" r="3.2219" gradientTransform="matrix(1 0 0 -1 0 7470)" gradientUnits="userSpaceOnUse">
					<stop  offset="0" style="stop-color:#FDF65C"/>
					<stop  offset="1" style="stop-color:#FFFFFF"/>
				</radialGradient>
				<path class="st55" d="M-761.2,231.6c1.5,0,2.8-0.7,3.4-1.5c0.1-0.3,0.1-0.5,0.1-0.8c0-2-1.6-3.5-3.5-3.5c-1.9,0-3.5,1.6-3.5,3.5
					c0,0.3,0.1,0.5,0.1,0.8C-764,231-762.6,231.6-761.2,231.6z"/>
			</g>
		</g>
		<path class="st56" d="M-933.4,48.9v278.5h437.8V48.9H-933.4z M-545.4,301.7h-335.1V67.5h335.2v234.2H-545.4z"/>
		<path class="st3" d="M-643.6,241.6c0.6,2.7-1.2,4-5.5,3.8c-4.1-0.2-7.4-2.2-7.5-4.4c-0.1-2.2,3.1,1.3,7.1,1.2
			C-645.4,242.1-644,239.5-643.6,241.6z"/>
		<path class="st17" d="M-779.6,178.4c0,0,1.3,1.3,3,1.3s3.1-1.3,3.1-1.3l-2.7,0.7L-779.6,178.4z"/>
		<path class="st17" d="M-655.1,191.2c0,0,1,1.7,2.7,1.2c1.6-0.5,1.8-1.6,1.8-1.6l-1.8,0.9c-0.2,0.1-0.4,0.1-0.6,0.1L-655.1,191.2z"
			/>
		<g id="collar">
			<line class="st57" x1="-785.6" y1="206.2" x2="-783.5" y2="205.4"/>
			<line class="st57" x1="-782.7" y1="206.7" x2="-784.4" y2="208.1"/>
			<g>
				<path class="st47" d="M-777.6,209.1c-3.7,0-5.4-2.1-6.3-4c-0.1-0.2-0.4-1.9-0.5-2.6l0.5,0c0.2,1.1,0.4,2.3,0.5,2.4
					c0.9,1.9,2.8,4.1,6.9,3.7c2.5-0.3,4.2-1.1,5.1-2.5c1.3-1.9,0.6-4.2,0.6-4.3l0.5,0c0,0.1,0.7,2.5-0.7,4.5c-1,1.5-2.9,2.5-5.5,2.8
					C-776.8,209.1-777.2,209.1-777.6,209.1z"/>
			</g>
			<g>
				<path class="st47" d="M-777,211.7c-3,0-5.7-1.2-7.5-3.5c-1.7-2-2-5.4-2-5.5l0.5-0.1c0,0,0.3,3.3,1.9,5.3
					c1.8,2.3,4.6,3.5,7.7,3.3c3.1-0.2,5.9-1.6,7.3-3.8c1.6-2.3,0.8-5.6,0.7-5.6l0.5,0c0,0.1,0.8,3.4-0.9,5.9c-1.5,2.3-4.5,3.8-7.7,4
					C-776.6,211.7-776.8,211.7-777,211.7z"/>
			</g>
			<line class="st57" x1="-781.5" y1="207.9" x2="-782.6" y2="209.8"/>
			<line class="st57" x1="-779.7" y1="208.7" x2="-780.2" y2="210.9"/>
			<line class="st57" x1="-778" y1="208.9" x2="-778" y2="211.3"/>
			<line class="st57" x1="-770.2" y1="202.4" x2="-768" y2="202.6"/>
			<line class="st57" x1="-770.4" y1="203.8" x2="-768" y2="204.2"/>
			<line class="st57" x1="-771.3" y1="206.2" x2="-768.9" y2="207.5"/>
			<line class="st57" x1="-774.4" y1="208.4" x2="-773.5" y2="210.9"/>
			<line class="st57" x1="-773" y1="207.9" x2="-771.7" y2="210.1"/>
			<line class="st57" x1="-776.3" y1="208.8" x2="-775.8" y2="211.3"/>
			<line class="st57" x1="-784" y1="204.2" x2="-786.1" y2="204.7"/>
			<line class="st57" x1="-770.5" y1="204.9" x2="-768.2" y2="205.9"/>
			<line class="st57" x1="-772" y1="207.2" x2="-770.1" y2="209.2"/>
			<path class="st45" d="M-745.8,225.9l-2.9,3.2c0,0,3,6,3,6.5l3.5-4l-2-3.8L-745.8,225.9z"/>
			<path class="st46" d="M-752,210.9c0,0,9.3,4.5,10.5,5.9c3.4,4.9-7.2,12.4-7.2,12.4s2.4-2.9,4.7-5.8c0,0,2.7-3.1,1.9-5.5
				C-742.7,216.1-752,210.9-752,210.9z"/>
		</g>
		<g>
			<g>
				
					<rect x="-732.2" y="316.9" transform="matrix(0.9986 -5.255166e-02 5.255166e-02 0.9986 -18.4335 -37.729)" class="st58" width="11.1" height="29.6"/>
				<polygon class="st59" points="-721.1,331.7 -732,335.3 -733.6,305.7 -722.5,305.1 				"/>
			</g>
			<g>
				
					<rect x="-704.3" y="318.5" transform="matrix(-0.9986 -5.255166e-02 5.255166e-02 -0.9986 -1414.1614 629.3275)" class="st58" width="11.1" height="29.6"/>
				<polygon class="st59" points="-704.3,333.3 -693.5,336.9 -691.9,307.3 -702.9,306.7 				"/>
			</g>
			<g>
				
					<rect x="-787.3" y="302.6" transform="matrix(0.9927 -0.1209 0.1209 0.9927 -44.1238 -92.2168)" class="st58" width="11.1" height="29.6"/>
				<polygon class="st59" points="-776.2,318.1 -786.8,322.1 -790.4,292.7 -779.4,291.4 				"/>
			</g>
			<g>
				
					<rect x="-652.6" y="302.6" transform="matrix(-0.9927 -0.1209 0.1209 -0.9927 -1327.7004 554.2502)" class="st58" width="11.1" height="29.6"/>
				<polygon class="st59" points="-652.7,318.1 -642,322.1 -638.5,292.7 -649.4,291.4 				"/>
			</g>
			<path class="st59" d="M-628.4,290.9v-5.4h-2.6c-9.6-12.7-43.5-22.1-83.8-22.1s-74.1,9.4-83.8,22.1h-2.7v8.7h0.1
				c1.9,15.7,39.9,28.2,86.5,28.2c47.8,0,86.6-13.2,86.6-29.5C-628.2,292.2-628.3,291.5-628.4,290.9z"/>
			<path class="st58" d="M-628.4,289.5v-5.4h-2.6c-9.6-12.7-43.5-22.1-83.8-22.1s-74.1,9.4-83.8,22.1h-2.7v8.7h0.1
				c1.9,15.7,39.9,28.2,86.5,28.2c47.8,0,86.6-13.2,86.6-29.5C-628.2,290.8-628.3,290.1-628.4,289.5z"/>
			<path class="st59" d="M-610.5,279.8v-6h-3.1c-11.6-14.2-52.5-24.7-101.2-24.7s-89.5,10.5-101.2,24.7h-3.3v9.7h0.1
				c2.3,17.6,48.2,31.6,104.4,31.6c57.7,0,104.5-14.8,104.5-33C-610.3,281.3-610.4,280.5-610.5,279.8z"/>
			<ellipse class="st58" cx="-714.8" cy="275.2" rx="104.5" ry="33"/>
		</g>
		<g id="roof_1_">
			<path class="st60" d="M-496-123h-218.4h-218.4c1,6.4-2.7,108.2-94.1,112.4h312.4h0.1h0.1h312.4C-493.3-14.8-497-116.6-496-123z"
				/>
			<path class="st33" d="M-491.4-145.3c0-4.6-6.9-7.5-8.1-5.5c-1.2,2,2.1,2.3,3.7,4.9c1.6,2.6-2.3,5.9-3.4,6.2
				c-1.1,0.3-4.9,0.1-5.7,0.1c0,0-4,0.9-6.3,5h-225.4h-0.1h-181.6c-2.3-4.1-6.4-5.1-6.4-5.1c-0.8,0-4.6,0.2-5.7-0.1
				c-1.1-0.3-5-3.6-3.4-6.2c1.6-2.6,4.9-2.9,3.7-4.9s-8.1,0.9-8.1,5.5c0,2.7,6.2,8.8,6.2,13.9c0,2.3-1.7,8-1.7,8h5.6v0.1h237h0.1
				h195c0,0-1.7-5.8-1.7-8C-497.7-136.5-491.4-142.6-491.4-145.3z"/>
			<g>
				<rect x="-830.3" y="-119.2" class="st61" width="8.1" height="108.6"/>
				<rect x="-756.2" y="-119.2" class="st61" width="8.1" height="108.6"/>
				<rect x="-855.1" y="-119.2" class="st61" width="8.1" height="108.6"/>
				<rect x="-780.9" y="-119.2" class="st61" width="8.1" height="108.6"/>
				<path class="st61" d="M-953.9-50.3v39.7h8.1v-54C-948.1-59.8-950.8-54.9-953.9-50.3z"/>
				<path class="st61" d="M-979.2-25v14.4h8.1V-31C-973.6-28.9-976.3-26.9-979.2-25z"/>
				<rect x="-731.5" y="-119.2" class="st61" width="8.1" height="108.6"/>
				<rect x="-929.2" y="-119.2" class="st61" width="8.1" height="108.6"/>
				<rect x="-879.8" y="-119.2" class="st61" width="8.1" height="108.6"/>
				<rect x="-904.5" y="-119.2" class="st61" width="8.1" height="108.6"/>
				<rect x="-805.6" y="-119.2" class="st61" width="8.1" height="108.6"/>
				<rect x="-533.7" y="-119.2" class="st61" width="8.1" height="108.6"/>
				<rect x="-706.7" y="-119.2" class="st61" width="8.1" height="108.6"/>
				<path class="st61" d="M-484.3-67.4v56.8h8.1v-41.7C-479.4-57.2-482-62.3-484.3-67.4z"/>
				<path class="st61" d="M-458.5-31.7v21.1h8.1v-14.9C-453.3-27.5-456-29.5-458.5-31.7z"/>
				<rect x="-558.4" y="-119.2" class="st61" width="8.1" height="108.6"/>
				<rect x="-509" y="-119.2" class="st61" width="8.1" height="108.6"/>
				<rect x="-682" y="-119.2" class="st61" width="8.1" height="108.6"/>
				<rect x="-657.3" y="-119.2" class="st61" width="8.1" height="108.6"/>
				<rect x="-632.6" y="-119.2" class="st61" width="8.1" height="108.6"/>
				<rect x="-607.9" y="-119.2" class="st61" width="8.1" height="108.6"/>
				<rect x="-583.1" y="-119.2" class="st61" width="8.1" height="108.6"/>
			</g>
			<g>
				<path class="st61" d="M-1027.6-10.6h43c61-29.9,62.6-96,61.8-101h207.6V-123h-218.3C-932.5-116.6-936.2-14.8-1027.6-10.6z"/>
				<path class="st61" d="M-496.3-123h-221.5v11.4h210.7c-0.8,5,0.9,71.1,61.8,101h43C-493.6-14.8-497.3-116.6-496.3-123z"/>
			</g>
			<g id="roof">
				<polygon class="st33" points="-714.7,-15 -714.8,-15 -1048.2,-15 -1048.2,1.3 -714.8,1.3 -714.7,1.3 -381.3,1.3 -381.3,-15 				
					"/>
			</g>
		</g>
		<path class="st47" d="M-818.4,225.8c-1.9-3-1.9-7.5-1.9-7.5s-0.7,1.5-0.8,2.4c-1.2,8.7,16.3,16.1,16.3,16.1
			c-2.8-2.7-5-3.1-9.1-6.5C-816,228.4-817.8,226.8-818.4,225.8z"/>
		<path class="st47" d="M-798.8,213.3v-1c-0.1,0.3-9.8,3.5-12.4,6.6l-0.4,0.5l-0.4,0.8c0,0,2.5-2.1,3.7-2.7c1.8-1,5.7-2.5,5.7-2.5
			L-798.8,213.3z"/>
	</g>
</g>
</svg>
