<?xml version="1.0" encoding="utf-8"?>
<!-- Generator: Adobe Illustrator 22.1.0, SVG Export Plug-In . SVG Version: 6.00 Build 0)  -->
<svg version="1.1" xmlns="http://www.w3.org/2000/svg" xmlns:xlink="http://www.w3.org/1999/xlink" x="0px" y="0px"
	 viewBox="0 0 201.7 381.2" style="enable-background:new 0 0 201.7 381.2;" xml:space="preserve">
<style type="text/css">
	.st0{display:none;}
	.st1{display:inline;fill:#0E3F8F;}
	.st2{fill:#FDD6AE;}
	.st3{fill:#F8A586;}
	.st4{fill:#4A0E07;}
	.st5{fill:#E56F35;}
	.st6{fill:#8A88FF;}
	.st7{fill:#6968C2;}
	.st8{fill:url(#SVGID_1_);}
	.st9{fill:url(#SVGID_2_);}
	.st10{fill:#D8D8D8;}
	.st11{fill:#7B7E80;}
	.st12{fill:#FF7BAC;}
	.st13{fill:#B5582A;}
	.st14{fill:#F9BFBD;}
</style>
<g id="Layer_3" class="st0">
	<rect x="-86.7" y="-88" class="st1" width="377.3" height="572.7"/>
</g>
<g id="Layer_1">
	<title>Asset 3</title>
	<polygon class="st2" points="114.7,126.9 136.5,126.9 136.5,147.7 115.5,148.3 	"/>
	<path class="st3" d="M149.4,341.9"/>
</g>
<g id="grandma_1_">
	<g>
		<path class="st2" d="M149.4,359.4l2.5-44.9l-20.7,0.7l2.4,43.6l1,9.2c1.2,3.5,2.2,0.6,7.3,2.9c7.6,3.4,15.2,2.6,17.3-1.9
			C160.7,365.4,156.9,362.1,149.4,359.4z"/>
		<path class="st3" d="M155,364.5c0,0-5.3,1-7.6,0.9c-2.3-0.1-6.8-1.1-9-2.5c-0.3-0.2-0.7-0.5-1-0.7c-1.2-1.2-2-2.8-2.2-4.4
			l-0.5-3.5l-1.7-31l-1.9-1.2l1.5,21.6l1,21.6l1.6,4.2l2.4,0l-1.5-5.1l1.5,1.2c0,0,6.5,1.6,7.4,1.7c1,0.1,10.9-0.6,10.9-0.6
			L155,364.5z"/>
		<path class="st4" d="M138.1,372.9c4.1,1.5,12.8,1.4,17.4,0.6c3.1-0.5,9.4-3.7,3.3-9.1l-3.6-2.5l-0.9,3.1c0,0-1.4,2.5-8.8,1.8
			c-3.1-0.3-7.9-1.1-9.7-3.6c-1.2-1.7-2.7-4.4-2.8-3.2C133,362.6,131.9,370.7,138.1,372.9z"/>
	</g>
	<g>
		<path class="st2" d="M121.1,365.6l2.5-44.9l-20.7,0.7l2.6,44.2l1.1,9.1c1.2,3.5,3.2,1.4,8.6,2.8c7.7,1.9,13.6,2.1,15.7-2.4
			C132.5,371.6,128.6,368.4,121.1,365.6z"/>
		<path class="st3" d="M126.9,371.1c0,0-5.3,1-7.6,0.9c-2.3-0.1-6.8-1.1-9-2.5c-0.3-0.2-0.7-0.5-1-0.7c-1.2-1.2-2-2.8-2.2-4.4
			l-0.5-3.5l-1.7-31l-1.9-1.2l1.5,21.6l1,21.6l1.6,4.2l2.4,0l-1.5-5.1l1.5,1.2c0,0,6.5,1.6,7.4,1.7c1,0.1,10.9-0.6,10.9-0.6
			L126.9,371.1z"/>
		<path class="st4" d="M110,379c4.1,1.5,12.8,1.4,17.4,0.6c3.1-0.5,8.5-3.2,3.5-8.5l-3.8-3.1l-0.9,3.1c0,0-1.4,2.5-8.8,1.8
			c-3.1-0.3-7.9-1.1-9.7-3.6c-1.2-1.7-2.7-4.4-2.8-3.2C104.9,368.8,103.8,376.8,110,379z"/>
	</g>
	<path id="dress_2_" class="st5" d="M82.7,230.6l4.6,41.2l8.8,59.6h66.2c1.9-1,9.7-100.5,8.8-100.8C169.7,230,82.7,230.6,82.7,230.6
		z"/>
	<g>
		<path class="st6" d="M177.3,251.9c-0.6-2-10.8-43.2-10.3-54.2c0.4-8.7,9.7-17.9,0-31.6c-2.4-3.4-10.6-11.7-13.7-14.6
			c-10.7-9.9-52.3-3.4-52.3-3.4s-47,105.5-7.5,106c28.8,2.8,47.5,3.5,59.6,2l0,0C153,256.1,178.1,254.4,177.3,251.9z"/>
		<path class="st7" d="M110,173c7.1,5.3,26,7.6,34.5,8c17.7,0.9,26.5-5.7,26.5-5.7l0.2,0.7c1.4,5-2.7,15.2-2.8,15.2
			c-1.4,0.3-12.5,2.7-23.5,3.7c-21.1,1.9-37.6-11.9-40-4.1c-7.9,25.5-3.8,64.1-3.8,64.1s-7.8-0.5-12.1-1.3c-6.3-1.3-9-7.3-9-7.3
			s2.4-52.6,7.7-58.6c5.3-6,9.9-15.9,9.9-15.9L110,173z"/>
		<path class="st6" d="M137.2,149.4l-7.7,0.9c-1.7,0.2-3.4,0.2-5,0l-8.8-0.9c-2.1,0-3.9-1.7-3.9-3.9v0c0-2.1,1.7-3.9,3.9-3.9
			l7.6,1.2c2.1,0.3,4.3,0.3,6.4,0l7.6-1.2c2.1,0,3.9,1.7,3.9,3.9v0C141.1,147.6,139.3,149.4,137.2,149.4z"/>
		<path class="st7" d="M137.2,147.3l-7.7,0.9c-1.7,0.2-3.4,0.2-5,0l-8.8-0.9c-1.8,0-3.3-1.2-3.7-2.8c-0.1,0.3-0.2,0.7-0.2,1
			c0,2.1,1.7,3.9,3.9,3.9l8.8,0.9c1.7,0.2,3.4,0.2,5,0l7.7-0.9c2.1,0,3.9-1.7,3.9-3.9c0-0.4-0.1-0.7-0.2-1
			C140.5,146.1,139,147.3,137.2,147.3z"/>
	</g>
	<path id="neck_1_" class="st3" d="M114.9,130.6l0.2,7.3c0,0,13.2,0.2,18.3-0.6l3.1-0.5v-7L114.9,130.6z"/>
	
		<radialGradient id="SVGID_1_" cx="70.5813" cy="251.1355" r="12.3946" gradientTransform="matrix(1.0011 0 0 1 -0.1025 0)" gradientUnits="userSpaceOnUse">
		<stop  offset="0" style="stop-color:#FEE8D2"/>
		<stop  offset="0.3354" style="stop-color:#FEE6CF"/>
		<stop  offset="0.6598" style="stop-color:#FEE1C3"/>
		<stop  offset="0.979" style="stop-color:#FDD7B0"/>
		<stop  offset="1" style="stop-color:#FDD6AE"/>
	</radialGradient>
	<path class="st8" d="M77.3,237.5c0,0-1.6,10.6-1.3,12.8s3,5.1,3,7.7s-1.4,7.4-3,8.1c-1.6,0.7-5.9,0-9.2-1.3c-2.9-1.1-4-4.8-4.5-7.9
		c-0.4-2.6,0.7-5.2,2.8-6.9c1.3-1,2.6-2,3.3-2.6c1.6-1.4,2.3-11.8,2.3-11.8L77.3,237.5z"/>
	<g id="hand_2_">
		<path class="st6" d="M60.1,240.8c3.7-10.1,26.4-98,40.9-92.7l3.6,18.2c-7,33.1-4.2,29.3-7.9,39.4l-10.2,41.9
			C72.3,246.8,60.1,240.8,60.1,240.8z"/>
	</g>
	<path class="st7" d="M70.4,207.2c0,0-1.5,15.8-0.9,24.9c0.5,9,0.6,12.5,0.6,12.5l-3.3-0.9c-1.2-0.3-2.4-0.8-3.5-1.3l-3-1.5
		L70.4,207.2"/>
	<linearGradient id="SVGID_2_" gradientUnits="userSpaceOnUse" x1="187.7041" y1="85.4553" x2="66.8351" y2="85.4553">
		<stop  offset="0" style="stop-color:#FEE8D2"/>
		<stop  offset="0.979" style="stop-color:#FDD7B0"/>
		<stop  offset="1" style="stop-color:#FDD6AE"/>
	</linearGradient>
	<path class="st9" d="M184.8,81.4c-2.7-2.2-6.3-8.3-7.8-16.2c-1-5.1-2.9-12-4.3-16.3c-1.4-12.9-14.2-7.4-16.4-10.1
		c-5.7-7-6.8,10.2-8.8,6.5c-9.1-17.1,2.3-3-21.9-2.9c-31.9,0.1-49.4,24.1-51.8,24.9c-11.2-2.2-5.9,27.9-5.2,29
		c1.7,5.2,10.8,41.2,55.9,37.6c56.4,1.7,51.7-39.8,53.9-40.2C185.4,91.6,191.5,86.7,184.8,81.4z"/>
	<path class="st10" d="M33.8,63.5c11.5-8.7,26.6-8.1,33.7,1.3c2.8,3.8-0.2,8.4-0.6,13.1c-0.6,7.1-0.4,14.5-7.3,19.7
		c-11.5,8.7-26.6,8.1-33.7-1.3S22.3,72.2,33.8,63.5z"/>
	<path class="st11" d="M62.1,83.2c0,0-1.7,9.3-12.4,15.3c-7.4,4.2-15.1,4.1-15.1,4.1s4.6,1.8,7.8,1.6c3.2-0.2,4.2,0,9.9-1.9
		c5.7-1.9,9.8-6.7,9.8-6.7v-11V83.2z"/>
	<g>
		<path d="M165.1,68.1l-1,0.5c0-0.1-4.2-5.5-8.3-4.6c-4.6,1-6.6,6-6.6,6.1l-1.7,0.5l-7.9-5.1l7,0.2c1.5-2.2,4.1-5,8.2-5.9
			c7.3-1.6,12,6.9,12.2,7.3"/>
	</g>
	<path class="st10" d="M175.6,31.3c-6.5-19-33.2-30.4-57.9-30.3C80.6,1.1,54,29.3,55.6,63.4c0.2,3.8-1.4,11.3-0.1,16.1l4.2,5
		c0,0.4,0.2,3,0.3,3.2l0.3,3.8c0,0,1.3,8.6,4.9,14.7c7.4,12.7,24.5,21.2,24.5,21.2l-2-4c-1.2-2.4-2.1-4.9-2.7-7.5v0
		c-3.1-9.9,1.3-22.7-4.2-21.3c-8,2-22.8-17.9-4.8-24c9.7-1.3,6.9,4.1,9.8,3.3l1.9,2.9c0,0,12.6-0.7,23.2-4.5
		c4.1-1.5,38.2-18.5,44.2-31.2c6.5,6.4,15.7,13.8,27.2,9.7c0.1,0,0.2-0.2,0.1-0.3C181.8,48.7,177.5,36.9,175.6,31.3z"/>
	<path class="st12" d="M161.4,107.3c0,0-0.2,7.3,10.5,7.3c1.9-2.2,3-6,2.9-6C165.7,110,161.4,107.3,161.4,107.3z"/>
	<path class="st11" d="M155.1,41.2c0,0,6.7,4.5,11.3,5.9c4.6,1.5,9.4,2.5,9.4,2.5l6.6,1c0,0,0,2-5.4,2c-3.3,0-8.4-1-11.3-2.5
		S155.1,41.2,155.1,41.2z"/>
	<path class="st3" d="M80.8,88.7c-7.3,2.1-12.9-12.5-1.6-14l0.2,5.2C79.2,82.4,80.8,88.7,80.8,88.7z"/>
	<path class="st10" d="M84.6,67c0,0-1.1,8.1-1.2,12.7c-0.2,4.7,1.3,9,1.3,9s1.8-3,3.5-8.2c1.7-5.2,3.3-11.5,3.3-11.5L84.6,67z"/>
	<path class="st11" d="M156.5,27.1c-0.6,16.9-2.2,17.3-7.1,23.1c-4.6,5.4-22.2,16.9-37.8,21.8s-22.3,4.7-22.3,4.7s18.2-5.2,22.7-7.2
		c4.5-2,32.1-10.7,41.2-29.8C154.3,37.5,156.5,27.1,156.5,27.1z"/>
	<path class="st11" d="M60.1,88.8c0,0,4.7,14.3,6.7,17.8c2,3.5,6.1,8.4,10.8,12.3c4.8,3.8,12.1,8.7,12.1,8.7s-6.2-3.1-9.9-5.2
		c-4.9-2.7-8.2-5.8-11.1-9.1C60.2,103.8,60.1,88.8,60.1,88.8z"/>
	<path class="st13" d="M94.4,254.3c0,0,2.9,37,4.4,45.7c1.5,8.7,4.6,31.3,4.6,31.3h-7.3c0,0-8.7-58.7-9.2-63.4
		c-0.5-4.7-1.8-16-1.8-16L94.4,254.3z"/>
	
		<ellipse transform="matrix(3.243532e-02 -0.9995 0.9995 3.243532e-02 52.0636 225.7304)" class="st14" cx="142.6" cy="86" rx="4.6" ry="8.4"/>
</g>
</svg>
