<?xml version="1.0" encoding="utf-8"?>
<!-- Generator: Adobe Illustrator 22.1.0, SVG Export Plug-In . SVG Version: 6.00 Build 0)  -->
<svg version="1.1" xmlns="http://www.w3.org/2000/svg" xmlns:xlink="http://www.w3.org/1999/xlink" x="0px" y="0px"
	 viewBox="0 0 108.3 194" style="enable-background:new 0 0 108.3 194;" xml:space="preserve">
<style type="text/css">
	.st0{fill:#F3CC0D;}
	.st1{fill:#F3B40D;}
	.st2{fill:url(#SVGID_1_);}
	.st3{fill:#EE3A31;stroke:#EE3A31;stroke-miterlimit:10;}
</style>
<g id="Layer_1">
	<rect x="54.8" y="139.5" class="st0" width="1.9" height="40.7"/>
	<rect x="29.1" y="38.1" class="st1" width="51.3" height="11.2"/>
	<rect x="31.3" y="38.1" class="st0" width="49.2" height="7"/>
	<rect x="29.1" y="129.2" class="st1" width="51.3" height="11.2"/>
	<rect x="31.3" y="131" class="st0" width="49.2" height="7.7"/>
	
		<radialGradient id="SVGID_1_" cx="54.15" cy="236.2" r="48.6748" gradientTransform="matrix(1 0 0 1 0 -145.8)" gradientUnits="userSpaceOnUse">
		<stop  offset="0" style="stop-color:#72F3F3"/>
		<stop  offset="1" style="stop-color:#67E685"/>
	</radialGradient>
	<path class="st2" d="M70.8,47.9H37.5C16.8,47.9,0,66.9,0,90.4s16.8,42.5,37.5,42.5h33.3c20.7,0,37.5-19,37.5-42.5
		S91.5,47.9,70.8,47.9z"/>
	<g>
		<path class="st1" d="M48.7,135.6c-9.1-7.2-18.4-25-18.4-45c0-20.5,9.5-38.1,18.8-44.9l1.2,1.6c-8.7,6.3-18,23.6-18,43.3
			c0,19.4,8.9,36.5,17.6,43.4L48.7,135.6z"/>
	</g>
	<g>
		<path class="st1" d="M61.2,135.6L60,134c8.8-6.9,17.6-24.1,17.6-43.4c0-19.6-9.3-37-18-43.3l1.2-1.6c9.4,6.8,18.8,24.4,18.8,44.9
			C79.6,110.6,70.4,128.4,61.2,135.6z"/>
	</g>
	<g>
		<path class="st1" d="M77.1,134.3l-1.3-1.5c7.7-6.7,19.2-23.5,19.2-42.3c0-19.5-12-36.3-19.5-42.3l1.2-1.6
			C84.6,52.7,97,70.2,97,90.4C97,111.5,84,128.3,77.1,134.3z"/>
	</g>
	<g>
		<path class="st1" d="M32.2,134.3c-6.9-5.9-19.9-22.8-19.9-43.9c0-20.2,12.4-37.7,20.3-43.9l1.2,1.6c-7.6,6-19.5,22.8-19.5,42.3
			c0,18.9,11.5,35.7,19.2,42.3L32.2,134.3z"/>
	</g>
	<path class="st0" d="M70.2,132.9H37c-2.1,0-4.2-0.2-6.2-0.6v6.4h49.8l-0.1-7.3C77.3,132.3,73.6,132.9,70.2,132.9z"/>
	<rect x="54.3" class="st0" width="1" height="39"/>
	<circle class="st0" cx="55.8" cy="158.9" r="2"/>
	<rect x="53.4" y="178.8" class="st0" width="4.7" height="17.6"/>
	<rect x="53.4" y="181" class="st3" width="4.7" height="4.7"/>
	<path class="st0" d="M55.8,145.5c-3,0-5.4,2.4-5.4,5.4c0,3,2.4,5.4,5.4,5.4c3-0.1,5.3-2.4,5.4-5.4C61.2,148,58.8,145.5,55.8,145.5z
		 M55.8,154.1c-1.7,0-3.2-1.5-3.2-3.2c0-1.8,1.4-3.2,3.2-3.2c1.7,0,3.2,1.5,3.2,3.2C59,152.7,57.6,154.1,55.8,154.1z"/>
	<path class="st0" d="M55.8,171.9c-3,0-5.4-2.4-5.4-5.4c0-3,2.4-5.4,5.4-5.4s5.4,2.4,5.4,5.4l0,0C61.1,169.5,58.8,171.9,55.8,171.9z
		 M55.8,163.3c-1.8,0-3.2,1.4-3.2,3.2c0,1.7,1.5,3.2,3.2,3.2c1.8,0,3.2-1.4,3.2-3.2C59,164.8,57.5,163.4,55.8,163.3L55.8,163.3z"/>
	<path class="st0" d="M48.4,153.4c-3,0-5.4,2.4-5.4,5.4s2.4,5.4,5.4,5.4c0,0,0,0,0,0c3,0,5.4-2.4,5.4-5.4
		C53.8,155.9,51.4,153.4,48.4,153.4z M48.4,162C48.4,162,48.4,162,48.4,162c-1.8,0-3.2-1.4-3.2-3.2c0-1.8,1.4-3.2,3.2-3.2
		c1.8,0,3.2,1.4,3.2,3.2C51.6,160.6,50.1,162,48.4,162z"/>
	<path class="st0" d="M63.3,164.2c-3,0-5.4-2.4-5.4-5.4c0-3,2.4-5.4,5.4-5.4c3,0,5.4,2.4,5.4,5.4c0,0,0,0,0,0
		C68.7,161.8,66.3,164.2,63.3,164.2C63.3,164.3,63.3,164.3,63.3,164.2z M63.3,155.6c-1.8,0-3.2,1.4-3.2,3.2c0,1.8,1.4,3.2,3.2,3.2
		c0,0,0,0,0,0c1.7,0,3.2-1.5,3.2-3.2C66.5,157.1,65.1,155.7,63.3,155.6C63.4,155.6,63.3,155.6,63.3,155.6L63.3,155.6z"/>
</g>
<g id="Layer_2">
	<polygon class="st0" points="53.8,0 55.8,0 55.7,38.1 53.8,38.1 	"/>
</g>
</svg>
