<?xml version="1.0" encoding="utf-8"?>
<!-- Generator: Adobe Illustrator 22.1.0, SVG Export Plug-In . SVG Version: 6.00 Build 0)  -->
<svg version="1.1" xmlns="http://www.w3.org/2000/svg" xmlns:xlink="http://www.w3.org/1999/xlink" x="0px" y="0px"
	 viewBox="0 0 172.7 217.3" style="enable-background:new 0 0 172.7 217.3;" xml:space="preserve">
<style type="text/css">
	.st0{fill:url(#SVGID_1_);}
	.st1{fill:#FCED04;}
	.st2{fill:url(#SVGID_2_);}
	.st3{fill:url(#SVGID_3_);}
	.st4{fill:url(#SVGID_4_);}
	.st5{fill:url(#SVGID_5_);}
</style>
<g id="Layer_1">
	<title>Asset 1</title>
	<linearGradient id="SVGID_1_" gradientUnits="userSpaceOnUse" x1="86.3334" y1="0" x2="86.3334" y2="211.4578">
		<stop  offset="0" style="stop-color:#FC4D04"/>
		<stop  offset="1" style="stop-color:#FEF78E"/>
	</linearGradient>
	<path class="st0" d="M105.7,0H86.3H67C23.7,3,0,18.7,0,45.8c0,84.8,18.3,165.6,62,165.6l24.3-0.3l24.3,0.3c43.7,0,62-80.8,62-165.6
		C172.7,18.7,149,3,105.7,0z"/>
	<ellipse class="st1" cx="86.3" cy="203.6" rx="41.2" ry="13"/>
	<g id="Layer_4_2_">
		
			<radialGradient id="SVGID_2_" cx="-195.2056" cy="71.5696" r="17.81" gradientTransform="matrix(-1.22 0 0 -1.28 -152.2471 270.6896)" gradientUnits="userSpaceOnUse">
			<stop  offset="0" style="stop-color:#FFFFFF"/>
			<stop  offset="1.000000e-02" style="stop-color:#FFFFFF;stop-opacity:0.99"/>
			<stop  offset="0.3" style="stop-color:#FFFFFF;stop-opacity:0.64"/>
			<stop  offset="0.55" style="stop-color:#FFFFFF;stop-opacity:0.37"/>
			<stop  offset="0.76" style="stop-color:#FFFFFF;stop-opacity:0.17"/>
			<stop  offset="0.91" style="stop-color:#FFFFFF;stop-opacity:5.000000e-02"/>
			<stop  offset="1" style="stop-color:#FFFFFF;stop-opacity:0"/>
		</radialGradient>
		<ellipse class="st2" cx="86.3" cy="178.2" rx="23.8" ry="20.2"/>
	</g>
</g>
<g id="Layer_2">
	<g id="Layer_4_3_">
		<linearGradient id="SVGID_3_" gradientUnits="userSpaceOnUse" x1="86.3334" y1="173.9" x2="86.3334" y2="203.5567">
			<stop  offset="0" style="stop-color:#FFFFFF"/>
			<stop  offset="1" style="stop-color:#FEF9A7"/>
		</linearGradient>
		<path class="st3" d="M91.3,203.6h-10c-3.1,0-5.7-2.5-5.7-5.7v-18.3c0-3.1,2.5-5.7,5.7-5.7h10c3.1,0,5.7,2.5,5.7,5.7v18.3
			C97,201,94.5,203.6,91.3,203.6z"/>
		<linearGradient id="SVGID_4_" gradientUnits="userSpaceOnUse" x1="86.3334" y1="-9.094947e-13" x2="86.3334" y2="208.5227">
			<stop  offset="0" style="stop-color:#FC4D04"/>
			<stop  offset="1" style="stop-color:#FEF78E"/>
		</linearGradient>
		<path class="st4" d="M105.7,0H86.3H67C23.7,3,0,18.7,0,45.8c0,75.3,14.5,147.5,48.3,162.7c-2-1.5-3.1-3.2-3.1-5
			c0-7.2,18.4-13,41.2-13s41.2,5.8,41.2,13c0,1.8-1.1,3.4-3.1,5c33.8-15.2,48.3-87.3,48.3-162.7C172.7,18.7,149,3,105.7,0z"/>
		
			<radialGradient id="SVGID_5_" cx="-195.2056" cy="68.5019" r="17.81" gradientTransform="matrix(-1.22 0 0 -1.28 -152.2471 270.6896)" gradientUnits="userSpaceOnUse">
			<stop  offset="0" style="stop-color:#FFFFFF"/>
			<stop  offset="1.000000e-02" style="stop-color:#FFFFFF;stop-opacity:0.99"/>
			<stop  offset="0.3" style="stop-color:#FFFFFF;stop-opacity:0.64"/>
			<stop  offset="0.55" style="stop-color:#FFFFFF;stop-opacity:0.37"/>
			<stop  offset="0.76" style="stop-color:#FFFFFF;stop-opacity:0.17"/>
			<stop  offset="0.91" style="stop-color:#FFFFFF;stop-opacity:5.000000e-02"/>
			<stop  offset="1" style="stop-color:#FFFFFF;stop-opacity:0"/>
		</radialGradient>
		<ellipse class="st5" cx="86.3" cy="182.2" rx="23.8" ry="20.2"/>
	</g>
</g>
</svg>
