<?xml version="1.0" encoding="utf-8"?>
<!-- Generator: Adobe Illustrator 22.1.0, SVG Export Plug-In . SVG Version: 6.00 Build 0)  -->
<svg version="1.1" id="Layer_1" xmlns="http://www.w3.org/2000/svg" xmlns:xlink="http://www.w3.org/1999/xlink" x="0px" y="0px"
	 viewBox="0 0 80.2 224.3" style="enable-background:new 0 0 80.2 224.3;" xml:space="preserve">
<style type="text/css">
	.st0{fill:#F3CC0D;}
	.st1{fill:url(#SVGID_1_);}
	.st2{fill:url(#SVGID_2_);}
	.st3{fill:url(#SVGID_3_);}
	.st4{fill:url(#SVGID_4_);}
	.st5{fill:url(#SVGID_5_);}
	.st6{fill:url(#SVGID_6_);}
	.st7{fill:url(#SVGID_7_);}
	.st8{fill:url(#SVGID_8_);}
	.st9{fill:url(#SVGID_9_);}
	.st10{fill:url(#SVGID_10_);}
	.st11{fill:url(#SVGID_11_);}
	.st12{fill:url(#SVGID_12_);}
	.st13{fill:url(#SVGID_13_);}
	.st14{fill:url(#SVGID_14_);}
	.st15{fill:url(#SVGID_15_);}
	.st16{fill:#FF1F29;}
	.st17{fill:#F3B40D;}
</style>
<rect x="39.7" class="st0" width="1" height="39"/>
<linearGradient id="SVGID_1_" gradientUnits="userSpaceOnUse" x1="0" y1="166.755" x2="80.24" y2="166.755" gradientTransform="matrix(1 0 0 -1 0 218)">
	<stop  offset="4.000000e-02" style="stop-color:#EE3ACA"/>
	<stop  offset="0.52" style="stop-color:#EEC9CA"/>
	<stop  offset="1" style="stop-color:#EE3ACA"/>
</linearGradient>
<polygon class="st1" points="40.1,47.4 0,47.4 7.5,55.1 40.1,55.1 72.7,55.1 80.2,47.4 "/>
<linearGradient id="SVGID_2_" gradientUnits="userSpaceOnUse" x1="0" y1="1401.24" x2="80.24" y2="1401.24" gradientTransform="matrix(1 0 0 1 0 -1342.27)">
	<stop  offset="4.000000e-02" style="stop-color:#EE3ACA"/>
	<stop  offset="0.52" style="stop-color:#EEC9CA"/>
	<stop  offset="1" style="stop-color:#EE3ACA"/>
</linearGradient>
<polygon class="st2" points="40.1,62.8 0,62.8 7.5,55.1 40.1,55.1 72.7,55.1 80.2,62.8 "/>
<linearGradient id="SVGID_3_" gradientUnits="userSpaceOnUse" x1="0" y1="151.305" x2="80.24" y2="151.305" gradientTransform="matrix(1 0 0 -1 0 218)">
	<stop  offset="4.000000e-02" style="stop-color:#EE3ACA"/>
	<stop  offset="0.52" style="stop-color:#EEC9CA"/>
	<stop  offset="1" style="stop-color:#EE3ACA"/>
</linearGradient>
<polygon class="st3" points="40.1,62.8 0,62.8 7.5,70.6 40.1,70.6 72.7,70.6 80.2,62.8 "/>
<linearGradient id="SVGID_4_" gradientUnits="userSpaceOnUse" x1="0" y1="1416.6901" x2="80.24" y2="1416.6901" gradientTransform="matrix(1 0 0 1 0 -1342.27)">
	<stop  offset="4.000000e-02" style="stop-color:#EE3ACA"/>
	<stop  offset="0.52" style="stop-color:#EEC9CA"/>
	<stop  offset="1" style="stop-color:#EE3ACA"/>
</linearGradient>
<polygon class="st4" points="40.1,78.3 0,78.3 7.5,70.6 40.1,70.6 72.7,70.6 80.2,78.3 "/>
<linearGradient id="SVGID_5_" gradientUnits="userSpaceOnUse" x1="0" y1="135.86" x2="80.24" y2="135.86" gradientTransform="matrix(1 0 0 -1 0 218)">
	<stop  offset="4.000000e-02" style="stop-color:#EE3ACA"/>
	<stop  offset="0.52" style="stop-color:#EEC9CA"/>
	<stop  offset="1" style="stop-color:#EE3ACA"/>
</linearGradient>
<polygon class="st5" points="40.1,78.3 0,78.3 7.5,86 40.1,86 72.7,86 80.2,78.3 "/>
<linearGradient id="SVGID_6_" gradientUnits="userSpaceOnUse" x1="0" y1="1432.135" x2="80.24" y2="1432.135" gradientTransform="matrix(1 0 0 1 0 -1342.27)">
	<stop  offset="4.000000e-02" style="stop-color:#EE3ACA"/>
	<stop  offset="0.52" style="stop-color:#EEC9CA"/>
	<stop  offset="1" style="stop-color:#EE3ACA"/>
</linearGradient>
<polygon class="st6" points="40.1,93.7 0,93.7 7.5,86 40.1,86 72.7,86 80.2,93.7 "/>
<linearGradient id="SVGID_7_" gradientUnits="userSpaceOnUse" x1="0" y1="120.41" x2="80.24" y2="120.41" gradientTransform="matrix(1 0 0 -1 0 218)">
	<stop  offset="4.000000e-02" style="stop-color:#EE3ACA"/>
	<stop  offset="0.52" style="stop-color:#EEC9CA"/>
	<stop  offset="1" style="stop-color:#EE3ACA"/>
</linearGradient>
<polygon class="st7" points="40.1,93.7 0,93.7 7.5,101.4 40.1,101.4 72.7,101.4 80.2,93.7 "/>
<linearGradient id="SVGID_8_" gradientUnits="userSpaceOnUse" x1="0" y1="1447.5801" x2="80.24" y2="1447.5801" gradientTransform="matrix(1 0 0 1 0 -1342.27)">
	<stop  offset="4.000000e-02" style="stop-color:#EE3ACA"/>
	<stop  offset="0.52" style="stop-color:#EEC9CA"/>
	<stop  offset="1" style="stop-color:#EE3ACA"/>
</linearGradient>
<polygon class="st8" points="40.1,109.2 0,109.2 7.5,101.4 40.1,101.4 72.7,101.4 80.2,109.2 "/>
<linearGradient id="SVGID_9_" gradientUnits="userSpaceOnUse" x1="0" y1="104.965" x2="80.24" y2="104.965" gradientTransform="matrix(1 0 0 -1 0 218)">
	<stop  offset="4.000000e-02" style="stop-color:#EE3ACA"/>
	<stop  offset="0.52" style="stop-color:#EEC9CA"/>
	<stop  offset="1" style="stop-color:#EE3ACA"/>
</linearGradient>
<polygon class="st9" points="40.1,109.2 0,109.2 7.5,116.9 40.1,116.9 72.7,116.9 80.2,109.2 "/>
<rect x="30.9" y="155.5" class="st0" width="18.4" height="6.6"/>
<linearGradient id="SVGID_10_" gradientUnits="userSpaceOnUse" x1="0" y1="1463.03" x2="80.24" y2="1463.03" gradientTransform="matrix(1 0 0 1 0 -1342.27)">
	<stop  offset="4.000000e-02" style="stop-color:#EE3ACA"/>
	<stop  offset="0.52" style="stop-color:#EEC9CA"/>
	<stop  offset="1" style="stop-color:#EE3ACA"/>
</linearGradient>
<polygon class="st10" points="40.1,124.6 0,124.6 7.5,116.9 40.1,116.9 72.7,116.9 80.2,124.6 "/>
<linearGradient id="SVGID_11_" gradientUnits="userSpaceOnUse" x1="0" y1="89.52" x2="80.24" y2="89.52" gradientTransform="matrix(1 0 0 -1 0 218)">
	<stop  offset="4.000000e-02" style="stop-color:#EE3ACA"/>
	<stop  offset="0.52" style="stop-color:#EEC9CA"/>
	<stop  offset="1" style="stop-color:#EE3ACA"/>
</linearGradient>
<polygon class="st11" points="40.1,124.6 0,124.6 7.5,132.3 40.1,132.3 72.7,132.3 80.2,124.6 "/>
<linearGradient id="SVGID_12_" gradientUnits="userSpaceOnUse" x1="0" y1="74.07" x2="80.24" y2="74.07" gradientTransform="matrix(1 0 0 -1 0 218)">
	<stop  offset="4.000000e-02" style="stop-color:#EE3ACA"/>
	<stop  offset="0.52" style="stop-color:#EEC9CA"/>
	<stop  offset="1" style="stop-color:#EE3ACA"/>
</linearGradient>
<polygon class="st12" points="40.1,140.1 0,140.1 7.5,147.8 40.1,147.8 72.7,147.8 80.2,140.1 "/>
<linearGradient id="SVGID_13_" gradientUnits="userSpaceOnUse" x1="0" y1="1478.475" x2="80.24" y2="1478.475" gradientTransform="matrix(1 0 0 1 0 -1342.27)">
	<stop  offset="4.000000e-02" style="stop-color:#EE3ACA"/>
	<stop  offset="0.52" style="stop-color:#EEC9CA"/>
	<stop  offset="1" style="stop-color:#EE3ACA"/>
</linearGradient>
<polygon class="st13" points="40.1,140.1 0,140.1 7.5,132.3 40.1,132.3 72.7,132.3 80.2,140.1 "/>
<linearGradient id="SVGID_14_" gradientUnits="userSpaceOnUse" x1="0.43" y1="174.535" x2="79.81" y2="174.535" gradientTransform="matrix(1 0 0 -1 0 218)">
	<stop  offset="4.000000e-02" style="stop-color:#EE3ACA"/>
	<stop  offset="0.52" style="stop-color:#EEC9CA"/>
	<stop  offset="1" style="stop-color:#EE3ACA"/>
</linearGradient>
<polygon class="st14" points="51.8,39.5 42.6,39.5 37.7,39.5 28.4,39.5 0.4,47.4 37.7,47.4 42.6,47.4 79.8,47.4 "/>
<linearGradient id="SVGID_15_" gradientUnits="userSpaceOnUse" x1="7.26" y1="1518.145" x2="72.97" y2="1518.145" gradientTransform="matrix(1 0 0 1 0 -1366.4401)">
	<stop  offset="4.000000e-02" style="stop-color:#EE3ACA"/>
	<stop  offset="0.52" style="stop-color:#EEC9CA"/>
	<stop  offset="1" style="stop-color:#EE3ACA"/>
</linearGradient>
<polygon class="st15" points="49.8,155.6 42.2,155.6 38.1,155.6 30.4,155.6 7.3,147.8 38.1,147.8 42.2,147.8 73,147.8 "/>
<rect x="30.7" y="32.9" class="st0" width="18.8" height="6.7"/>
<path class="st16" d="M55.5,178.8c-3.1,0-5.7,2.2-6.3,5.2l-3.4-3.4l3.3-3.3c1.5-1.5,1.5-4,0-5.5s-4-1.5-5.5,0l0,0l-3.6,3.6l-3.6-3.6
	c-1.5-1.5-4-1.5-5.5,0s-1.5,4,0,5.5l0,0l3.3,3.3L31,184c-0.6-3.4-3.9-5.7-7.3-5.1c-3.4,0.6-5.7,3.9-5.1,7.3s3.9,5.7,7.3,5.1
	c2.6-0.5,4.6-2.5,5.1-5.1l3.4,3.4l-3.6,3.6c-1.5,1.5-1.5,4,0,5.5c0.7,0.7,1.7,1.1,2.7,1.1c1,0,2-0.4,2.7-1.1l3.9-3.9l3.9,3.9
	c1.5,1.5,4,1.5,5.5,0s1.5-4,0-5.5l-3.6-3.6l3.4-3.4c0.5,3.5,3.8,5.9,7.3,5.3c3.5-0.5,5.9-3.8,5.3-7.3
	C61.4,181.1,58.7,178.8,55.5,178.8z M24.7,189.5c-2.4-0.1-4.3-2.1-4.2-4.5c0.1-2.4,2.1-4.3,4.5-4.2c2.4,0.1,4.2,2,4.2,4.4
	C29.1,187.6,27.1,189.5,24.7,189.5C24.7,189.5,24.7,189.5,24.7,189.5z M45.1,173.2c0.8-0.8,2-0.8,2.7,0c0.8,0.8,0.8,2,0,2.8
	l-3.3,3.3l-2.7-2.8L45.1,173.2z M43.3,180.8l-3.1,3.1l-3.2-3.2l3.1-3.1L43.3,180.8z M32.4,176c-0.7-0.8-0.7-2,0-2.7
	c0.4-0.4,0.9-0.6,1.4-0.6c0.5,0,1,0.2,1.4,0.6l3.3,3.3l-2.7,2.8L32.4,176z M32.7,185.1l3-3.1l3,3.1l-3,3L32.7,185.1z M34.9,197.3
	c-0.8,0.7-2,0.7-2.7,0c-0.7-0.8-0.7-2,0-2.7l3.6-3.6l2.7,2.8L34.9,197.3z M37,189.6l3.1-3.1l0,0l0.8,0.8l0,0l2.4,2.4l-3.1,3.1
	L37,189.6z M48.1,194.6c0.7,0.8,0.7,2,0,2.7c-0.8,0.7-2,0.7-2.7,0l-3.6-3.6l2.7-2.8L48.1,194.6z M44.5,188.2l-3-3l3-3.1l3,3.1
	L44.5,188.2z M55.5,189.5c-2.4-0.1-4.3-2-4.2-4.4c0.1-2.4,2-4.3,4.4-4.2c2.4,0.1,4.2,2,4.2,4.3C60,187.5,58,189.5,55.5,189.5
	L55.5,189.5z"/>
<rect x="37.3" y="206.9" class="st16" width="5.7" height="17.3"/>
<rect x="37.3" y="209.7" class="st0" width="5.7" height="3.1"/>
<rect x="39.2" y="-17.2" class="st0" width="1" height="49.9"/>
<rect x="39.2" y="-17.2" class="st16" width="1.9" height="50.1"/>
<polygon class="st16" points="39.2,162.2 41.1,162.2 41.1,176 39.1,176 "/>
<polygon class="st16" points="39.2,194.4 41.1,194.4 41.1,208.3 39.1,208.3 "/>
<rect x="30.7" y="37.6" class="st17" width="18.8" height="1.9"/>
<rect x="30.9" y="161.2" class="st17" width="18.4" height="1.9"/>
</svg>
