<?xml version="1.0" encoding="utf-8"?>
<!-- Generator: Adobe Illustrator 22.1.0, SVG Export Plug-In . SVG Version: 6.00 Build 0)  -->
<svg version="1.1" id="Layer_1" xmlns="http://www.w3.org/2000/svg" xmlns:xlink="http://www.w3.org/1999/xlink" x="0px" y="0px"
	 viewBox="0 0 148.8 186.8" style="enable-background:new 0 0 148.8 186.8;" xml:space="preserve">
<style type="text/css">
	.st0{fill:#F3CC0D;}
	.st1{fill:url(#SVGID_1_);}
	.st2{fill:#EE3A31;stroke:#EE3A31;stroke-miterlimit:10;}
	.st3{fill:#F3B40D;}
</style>
<rect x="74.6" y="124.2" class="st0" width="1.9" height="50.1"/>
<radialGradient id="SVGID_1_" cx="74.3912" cy="83.1667" r="60.1743" gradientUnits="userSpaceOnUse">
	<stop  offset="0" style="stop-color:#EEEEEE"/>
	<stop  offset="1" style="stop-color:#EEDC75"/>
</radialGradient>
<path class="st1" d="M91.3,41.4H74.4H57.5c-18,2.7-56.9,23.1-57.3,41c-0.2,11,29,34.8,57.3,42.6h16.9h16.9
	c28.3-7.8,57.4-31.6,57.3-42.6C148.2,64.5,109.3,44.1,91.3,41.4z"/>
<circle class="st0" cx="75.4" cy="149.3" r="2"/>
<rect x="74.7" y="129.9" class="st0" width="1.7" height="40.8"/>
<rect x="73.2" y="169.2" class="st0" width="4.7" height="17.6"/>
<rect x="73.2" y="171.4" class="st2" width="4.7" height="4.7"/>
<rect x="51" y="32" class="st3" width="46.8" height="11.2"/>
<rect x="51" y="123.1" class="st3" width="46.8" height="11.2"/>
<path class="st0" d="M75.4,146.7c-3,0-5.4-2.4-5.4-5.4c0-3,2.4-5.4,5.4-5.4s5.4,2.4,5.4,5.4l0,0C80.7,144.3,78.4,146.7,75.4,146.7z
	 M75.4,138.1c-1.8,0-3.2,1.4-3.2,3.2c0,1.7,1.5,3.2,3.2,3.2c1.8,0,3.2-1.4,3.2-3.2C78.6,139.6,77.2,138.2,75.4,138.1z"/>
<path class="st0" d="M75.4,162.3c-3,0-5.4-2.4-5.4-5.4c0-3,2.4-5.4,5.4-5.4s5.4,2.4,5.4,5.4l0,0C80.7,159.9,78.4,162.3,75.4,162.3z
	 M75.4,153.7c-1.8,0-3.2,1.4-3.2,3.2c0,1.7,1.5,3.2,3.2,3.2c1.8,0,3.2-1.4,3.2-3.2C78.6,155.2,77.2,153.8,75.4,153.7L75.4,153.7z"/>
<path class="st0" d="M68,154.6c-3,0-5.4-2.4-5.4-5.4c0-3,2.4-5.4,5.4-5.4c3,0,5.4,2.4,5.4,5.4l0,0C73.4,152.2,71,154.6,68,154.6
	C68.1,154.6,68,154.6,68,154.6z M68,146c-1.8,0-3.2,1.4-3.2,3.2c0,1.8,1.4,3.2,3.2,3.2c1.7,0,3.2-1.5,3.2-3.2
	C71.2,147.5,69.8,146,68,146L68,146z"/>
<path class="st0" d="M82.9,154.6c-3,0-5.4-2.4-5.4-5.4c0-3,2.4-5.4,5.4-5.4s5.4,2.4,5.4,5.4l0,0C88.3,152.2,85.9,154.6,82.9,154.6
	C83,154.6,82.9,154.6,82.9,154.6z M82.9,146c-1.8,0-3.2,1.4-3.2,3.2s1.4,3.2,3.2,3.2c0,0,0,0,0,0c1.7,0,3.2-1.5,3.2-3.2
	C86.1,147.5,84.8,146,82.9,146C83,146,83,146,82.9,146L82.9,146z"/>
<rect x="73.5" y="0" class="st0" width="1.9" height="32"/>
<path class="st3" d="M69,127.1c-11.2-7-22.5-24.4-22.5-43.9c0-20,11.6-37.2,23.1-43.9l1.4,1.6c-10.7,6.2-22,23.1-22,42.3
	c0,18.9,10.9,35.7,21.6,42.4L69,127.1z"/>
<path class="st3" d="M55.8,127.2c-8.4-6-24.4-22.9-24.4-44.1c0-20.3,15.2-37.8,24.9-44.1l1.5,1.6c-9.3,6-23.9,22.9-23.9,42.5
	c0,19,14.1,35.8,23.5,42.5L55.8,127.2z"/>
<path class="st3" d="M37.9,47.8c-2.2,1-4.4,2-6.5,3.2c-7.3,7.3-14.7,18.8-14.7,31.7c0,12.4,6.7,23.2,13.4,30.3
	c2.2,1.3,4.5,2.6,6.9,3.8c-8.2-6.8-18-19.8-18-34.2C18.9,67.4,29.7,54,37.9,47.8z"/>
<path class="st3" d="M79.8,127.1c11.2-7,22.5-24.4,22.5-43.9c0-20-11.6-37.2-23.1-43.9l-1.4,1.6c10.7,6.2,22,23.1,22,42.3
	c0,18.9-10.9,35.7-21.6,42.4L79.8,127.1z"/>
<path class="st3" d="M93,127.2c8.4-6,24.4-22.9,24.4-44.1c0-20.3-15.2-37.8-24.9-44.1L91,40.7c9.3,6,23.9,22.9,23.9,42.5
	c0,19-14.1,35.8-23.5,42.5L93,127.2z"/>
<path class="st3" d="M110.8,47.8c2.2,1,4.4,2,6.5,3.2c7.3,7.3,14.7,18.8,14.7,31.7c0,12.4-6.7,23.2-13.4,30.3
	c-2.2,1.3-4.5,2.6-6.9,3.8c8.2-6.8,18-19.8,18-34.2C129.9,67.4,119.1,54,110.8,47.8z"/>
<rect x="53" y="124.9" class="st0" width="44.9" height="7.7"/>
<polygon class="st0" points="53,32 97.9,32 97.8,40.5 52.9,40.5 "/>
</svg>
