<?xml version="1.0" encoding="utf-8"?>
<!-- Generator: Adobe Illustrator 22.1.0, SVG Export Plug-In . SVG Version: 6.00 Build 0)  -->
<svg version="1.1" xmlns="http://www.w3.org/2000/svg" xmlns:xlink="http://www.w3.org/1999/xlink" x="0px" y="0px"
	 viewBox="0 0 120.3 83.8" style="enable-background:new 0 0 120.3 83.8;" xml:space="preserve">
<style type="text/css">
	.st0{fill:url(#SVGID_1_);}
	.st1{fill:#FFFFFF;}
	.st2{fill:#CFEAFF;}
	.st3{fill:url(#SVGID_2_);}
	.st4{fill:url(#SVGID_3_);}
	.st5{fill:url(#SVGID_4_);}
	.st6{fill:url(#SVGID_5_);}
	.st7{fill:url(#SVGID_6_);}
	.st8{fill:url(#SVGID_7_);}
</style>
<g id="Layer_2">
</g>
<g id="Layer_1">
	<linearGradient id="SVGID_1_" gradientUnits="userSpaceOnUse" x1="0" y1="41.875" x2="120.25" y2="41.875">
		<stop  offset="0" style="stop-color:#787878"/>
		<stop  offset="1" style="stop-color:#FFFFFF"/>
	</linearGradient>
	<path class="st0" d="M60.1,0C26.9,0,0,11.8,0,26.4s14,57.4,58.7,57.4c0.5,0,0.9,0,1.4,0c0.5,0,0.9,0,1.4,0
		c44.8,0,58.7-42.8,58.7-57.4S93.3,0,60.1,0z"/>
	<ellipse class="st1" cx="60.1" cy="26.4" rx="60.1" ry="26.4"/>
	<path class="st2" d="M64.7,52.7c0.8,0,1.6-0.1,2.4-0.1c0.4,0,0.8,0,1.2-0.1c0.8,0,1.6-0.1,2.3-0.2c0.4,0,0.7-0.1,1.1-0.1
		c0.9-0.1,1.9-0.2,2.8-0.3c0.2,0,0.3,0,0.5-0.1c1.1-0.1,2.2-0.3,3.3-0.4c0.2,0,0.3-0.1,0.5-0.1c0.9-0.1,1.8-0.3,2.7-0.4
		c0.3,0,0.5-0.1,0.8-0.1c0.8-0.1,1.6-0.3,2.4-0.4c0.2,0,0.5-0.1,0.7-0.1c0.9-0.2,1.8-0.4,2.7-0.6c0.1,0,0.2,0,0.3-0.1
		c2.1-0.5,4-1,5.9-1.6c0.1,0,0.1,0,0.2-0.1c0.9-0.3,1.7-0.5,2.6-0.8c0.1,0,0.2-0.1,0.3-0.1c0.9-0.3,1.7-0.6,2.6-0.9c0,0,0,0,0,0
		c2.6-1,5.1-2.2,7.3-3.4c0,0,0,0,0,0c0.7-0.4,1.4-0.8,2.1-1.2c0,0,0,0,0,0c-10.9-6.8-28.9-11.3-49.2-11.3s-38.4,4.4-49.2,11.3
		c0,0,0,0,0,0c0.7,0.4,1.4,0.8,2.1,1.2c0,0,0,0,0,0c2.2,1.2,4.6,2.3,7.3,3.4c0,0,0,0,0,0c0.8,0.3,1.7,0.6,2.6,0.9
		c0.1,0,0.2,0.1,0.3,0.1c0.8,0.3,1.7,0.6,2.6,0.8c0.1,0,0.1,0,0.2,0.1c1.9,0.6,3.9,1.1,5.9,1.6c0.1,0,0.2,0,0.3,0.1
		c0.9,0.2,1.8,0.4,2.7,0.6c0.2,0,0.5,0.1,0.7,0.1c0.8,0.2,1.6,0.3,2.4,0.4c0.3,0,0.5,0.1,0.8,0.1c0.9,0.1,1.8,0.3,2.7,0.4
		c0.2,0,0.3,0.1,0.5,0.1c1.1,0.2,2.2,0.3,3.3,0.4c0.2,0,0.3,0,0.5,0.1c0.9,0.1,1.9,0.2,2.8,0.3c0.4,0,0.7,0.1,1.1,0.1
		c0.8,0.1,1.5,0.1,2.3,0.2c0.4,0,0.8,0,1.2,0.1c0.8,0,1.6,0.1,2.4,0.1c0.4,0,0.7,0,1.1,0c1.2,0,2.3,0,3.5,0s2.3,0,3.5,0
		C64,52.7,64.3,52.7,64.7,52.7z"/>
	
		<radialGradient id="SVGID_2_" cx="71.975" cy="813.6607" r="9.06" gradientTransform="matrix(1 0 0 1 0 -789.5)" gradientUnits="userSpaceOnUse">
		<stop  offset="0" style="stop-color:#F7931E"/>
		<stop  offset="1" style="stop-color:#FFFFFF"/>
	</radialGradient>
	<path class="st3" d="M72,32.4c4.2,0,7.9-1.8,9.6-4.3c0.2-0.7,0.3-1.5,0.3-2.3c0-5.5-4.4-9.9-9.9-9.9c-5.5,0-9.9,4.4-9.9,9.9
		c0,0,0,0,0,0c0,0.8,0.1,1.6,0.3,2.3C64.1,30.7,67.8,32.4,72,32.4z"/>
	
		<radialGradient id="SVGID_3_" cx="50.075" cy="816.7814" r="9.0697" gradientTransform="matrix(1 0 0 1 0 -789.5)" gradientUnits="userSpaceOnUse">
		<stop  offset="0" style="stop-color:#FF7BAC"/>
		<stop  offset="1" style="stop-color:#FFFFFF"/>
	</radialGradient>
	<path class="st4" d="M50.1,35.5c4.2,0,7.9-1.8,9.6-4.3c0.2-0.7,0.3-1.5,0.3-2.3c0-5.5-4.4-9.9-9.9-9.9c-5.5,0-9.9,4.4-9.9,9.9
		c0,0.8,0.1,1.6,0.3,2.3C42.2,33.8,45.9,35.5,50.1,35.5z"/>
	
		<radialGradient id="SVGID_4_" cx="56.175" cy="821.5407" r="9.08" gradientTransform="matrix(1 0 0 1 0 -789.5)" gradientUnits="userSpaceOnUse">
		<stop  offset="0" style="stop-color:#8A88FF"/>
		<stop  offset="1" style="stop-color:#FFFFFF"/>
	</radialGradient>
	<path class="st5" d="M56.2,40.3c4.2,0,7.9-1.8,9.6-4.3c0.2-0.7,0.3-1.5,0.3-2.3c0-5.5-4.4-9.9-9.9-9.9c-5.5,0-9.9,4.4-9.9,9.9
		c0,0.8,0.1,1.6,0.3,2.3C48.4,38.6,52,40.3,56.2,40.3z"/>
	
		<radialGradient id="SVGID_5_" cx="86.155" cy="821.5407" r="9.07" gradientTransform="matrix(1 0 0 1 0 -789.5)" gradientUnits="userSpaceOnUse">
		<stop  offset="0" style="stop-color:#39B54A"/>
		<stop  offset="1" style="stop-color:#FFFFFF"/>
	</radialGradient>
	<path class="st6" d="M86.2,40.3c4.2,0,7.9-1.8,9.6-4.3c0.2-0.7,0.3-1.5,0.3-2.3c0-5.5-4.4-9.9-9.9-9.9s-9.9,4.4-9.9,9.9l0,0
		c0,0.8,0.1,1.6,0.3,2.3C78.3,38.6,82,40.3,86.2,40.3z"/>
	
		<radialGradient id="SVGID_6_" cx="74.995" cy="825.9" r="9.0703" gradientTransform="matrix(1 0 0 1 0 -789.5)" gradientUnits="userSpaceOnUse">
		<stop  offset="0" style="stop-color:#FDF65C"/>
		<stop  offset="1" style="stop-color:#FFFFFF"/>
	</radialGradient>
	<path class="st7" d="M75,44.7c4.2,0,7.9-1.8,9.6-4.3c0.2-0.7,0.3-1.5,0.3-2.3c0-5.5-4.4-9.9-9.9-9.9c-5.5,0-9.9,4.4-9.9,9.9
		c0,0,0,0,0,0c0,0.8,0.1,1.6,0.3,2.3C67.1,42.9,70.8,44.7,75,44.7z"/>
	
		<radialGradient id="SVGID_7_" cx="34.675" cy="825.9393" r="9.08" gradientTransform="matrix(1 0 0 1 0 -789.5)" gradientUnits="userSpaceOnUse">
		<stop  offset="0" style="stop-color:#A1A1A1"/>
		<stop  offset="1" style="stop-color:#FFFFFF"/>
	</radialGradient>
	<path class="st8" d="M34.7,44.6c4.2,0,7.9-1.8,9.6-4.3c0.2-0.7,0.3-1.5,0.3-2.3c0-5.5-4.4-9.9-9.9-9.9c-5.5,0-9.9,4.4-9.9,9.9
		c0,0.8,0.1,1.6,0.3,2.3C26.9,42.9,30.5,44.6,34.7,44.6z"/>
</g>
</svg>
